<?xml version="1.0" standalone="no"?>
<!DOCTYPE svg PUBLIC "-//W3C//DTD SVG 1.1//EN" "http://www.w3.org/Graphics/SVG/1.1/DTD/svg11.dtd" >
<svg xmlns="http://www.w3.org/2000/svg">
<metadata>
This is a custom SVG webfont generated by Font Squirrel.
Copyright   : Copyright c 2010 2011 Denis Masharov denismasharovgmailcom This Font Software is licensed under the SIL Open Font License Version 11 This license is available with a FAQ at httpscriptssilorgOFL
Designer    : Denis Masharov
Foundry     : Denis Masharov
Foundry URL : denismasharovgmailcom
</metadata>
<defs>
<font id="TenorSansRegular" horiz-adv-x="1232" >
<font-face units-per-em="2048" ascent="1638" descent="-410" />
<missing-glyph horiz-adv-x="716" />
<glyph unicode=" "  horiz-adv-x="716" />
<glyph unicode="&#x09;" horiz-adv-x="716" />
<glyph unicode="&#xa0;" horiz-adv-x="716" />
<glyph unicode="!" horiz-adv-x="712" d="M240 1434h225l-66 -1160h-96zM246 86q0 45 32.5 78t77.5 33t78 -33t33 -78t-33 -78t-78 -33t-77.5 33t-32.5 78z" />
<glyph unicode="&#x22;" horiz-adv-x="706" d="M61 1530h207l-59 -473h-84zM440 1530h205l-63 -473h-78z" />
<glyph unicode="#" horiz-adv-x="1773" d="M123 367l27 125h417l64 327h-418l31 125h415l89 418h129l-91 -418h326l90 420h123l-88 -420h414l-27 -125h-414l-67 -327h413l-28 -125h-412l-92 -412h-123l88 412h-325l-89 -412h-126l88 412h-414zM692 492h326l69 327h-329z" />
<glyph unicode="$" horiz-adv-x="1280" d="M76 362q2 -80 39 -147.5t99 -116.5t147 -79.5t188 -38.5v-236h149v236q205 16 324 123.5t119 279.5q0 98 -38 166.5t-100.5 120t-142.5 86.5t-162 65v539q100 -16 168 -70.5t82 -154.5h139q-23 133 -131 214t-258 103v180h-149v-176q-86 -6 -162 -33.5t-132 -76t-89 -115 t-33 -152.5q0 -90 36 -153.5t94.5 -109.5t133 -77.5t152.5 -60.5v-610q-109 8 -173.5 42.5t-99 80t-47 92.5t-14.5 79h-139zM283 1130q0 86 67.5 153t198.5 81v-487q-55 23 -104.5 47t-85 54t-56 66.5t-20.5 85.5zM698 70v553q55 -23 104.5 -50.5t86.5 -62.5t58.5 -81 t21.5 -107q0 -115 -73 -176.5t-198 -75.5z" />
<glyph unicode="%" horiz-adv-x="1519" d="M123 1135q0 51 16.5 108t53 104.5t93 79t136.5 31.5t137 -31.5t94 -79t53.5 -104.5t16.5 -108q0 -66 -21.5 -126.5t-61.5 -105.5t-95.5 -71.5t-122.5 -26.5q-68 0 -123 26.5t-94 71.5t-60.5 105.5t-21.5 126.5zM256 1135q0 -74 16.5 -124t41 -81t54 -44.5t54.5 -13.5 q27 0 55.5 13.5t53 44.5t41 81t16.5 124q0 43 -8.5 88t-26.5 81.5t-50 60.5t-81 24q-47 0 -79 -24t-51.5 -60.5t-27.5 -81.5t-8 -88zM305 -25l789 1483h125l-793 -1483h-121zM795 299q0 53 16 111.5t53 106.5t94.5 79t137.5 31t137 -31t94 -79t53.5 -106.5t16.5 -111.5 q0 -63 -21.5 -121.5t-61.5 -102.5t-95.5 -71t-122.5 -27q-68 0 -123 27t-95 71t-61.5 102.5t-21.5 121.5zM930 299q0 -74 16.5 -123t42 -79.5t54 -43t53.5 -12.5t54.5 12.5t54 43t41 79.5t16.5 123q0 45 -7.5 92t-27 84t-51 60.5t-80.5 23.5q-47 0 -79 -23.5t-51.5 -60.5 t-27.5 -84t-8 -92z" />
<glyph unicode="&#x26;" horiz-adv-x="1445" d="M123 375q0 78 29.5 143.5t82 121.5t122 102t151.5 85q-66 92 -112 169t-46 163q0 51 17.5 105.5t55.5 97.5t96.5 70.5t139.5 27.5q63 0 119 -20.5t96.5 -59.5t65.5 -93t25 -122q0 -86 -58.5 -169t-201.5 -150l407 -537q61 82 94 187.5t39 269.5h160q-10 -111 -42 -199 t-70 -155.5t-73.5 -111.5t-54.5 -64l187 -236h-217l-95 123q-125 -92 -224 -119t-183 -27q-125 0 -220.5 34t-160 90.5t-97 128t-32.5 145.5zM297 434q0 -84 35 -148.5t91 -109.5t124.5 -68.5t136.5 -23.5q16 0 50 3t77 13.5t89 31t89 56.5l-430 568q-150 -78 -206 -154 t-56 -168zM502 1198q0 -72 45 -140.5t110 -150.5q27 14 59 40t58.5 59.5t44 76.5t17.5 95q0 27 -8.5 60.5t-27 62t-50 49t-80.5 20.5q-45 0 -77 -15.5t-52.5 -40t-29.5 -55t-9 -61.5z" />
<glyph unicode="'" horiz-adv-x="327" d="M61 1530h205l-57 -473h-86z" />
<glyph unicode="(" horiz-adv-x="614" d="M203 504q0 55 3 136t14 173t35 190.5t64.5 185.5t103 156.5t150.5 108.5v-59q-66 -59 -102.5 -138t-57 -186.5t-25.5 -247t-5 -319.5t5 -320.5t25.5 -249t57.5 -189.5t102 -138v-56q-88 37 -150.5 107t-103 158t-64.5 187t-35 192.5t-14 174.5t-3 134z" />
<glyph unicode=")" horiz-adv-x="614" d="M41 -389q63 57 101 137t58.5 187.5t25.5 248t5 318.5q0 180 -6 320.5t-25.5 249t-57.5 188t-101 139.5v55q88 -37 150.5 -106.5t103.5 -157.5t64.5 -187.5t35 -192.5t14.5 -174t3 -134t-3 -134t-14.5 -174.5t-35 -191.5t-64.5 -185t-103.5 -158t-150.5 -108v60z" />
<glyph unicode="*" horiz-adv-x="681" d="M61 1229h215l64 205l68 -205h213l-175 -127l68 -203l-174 129l-172 -129l63 203z" />
<glyph unicode="+" horiz-adv-x="1818" d="M205 717v90h643v651h125v-651h641v-90h-641v-664h-125v664h-643z" />
<glyph unicode="," horiz-adv-x="520" d="M123 250h192l-125 -529h-67v529z" />
<glyph unicode="-" horiz-adv-x="751" d="M123 471v154h506v-154h-506z" />
<glyph unicode="." horiz-adv-x="548" d="M164 88q0 45 32.5 78t77.5 33t78 -33t33 -78t-33 -78t-78 -33t-77.5 33t-32.5 78z" />
<glyph unicode="/" horiz-adv-x="1056" d="M61 -25l789 1483h145l-792 -1483h-142z" />
<glyph unicode="0" horiz-adv-x="1222" d="M123 713q0 59 9 138t30.5 162t57.5 162.5t89 142t127 101.5t172 39t173 -39t129.5 -101.5t91 -142t58 -162.5t31 -162t9.5 -138q0 -129 -29 -259t-89 -236.5t-153.5 -173.5t-220.5 -67t-218 67t-150.5 173.5t-88 236.5t-28.5 259zM328 713q0 -104 8 -219t37.5 -209.5 t85 -155.5t149.5 -61q96 0 153.5 61t87.5 155.5t38 209t8 219.5q0 106 -8 223t-38 212t-87 157.5t-154 62.5q-94 0 -149.5 -62.5t-85 -157.5t-37.5 -212t-8 -223z" />
<glyph unicode="1" horiz-adv-x="653" d="M61 1135l289 299h99v-1434h-175v1241l-157 -164z" />
<glyph unicode="2" horiz-adv-x="1114" d="M102 1047q0 86 35 161.5t97.5 131t146.5 87t182 31.5q111 0 199 -31.5t147.5 -87t91 -128t31.5 -152.5q0 -100 -19.5 -172t-61.5 -138.5t-108.5 -140t-160.5 -176.5l-266 -285h637v-147h-942l387 432q51 61 109.5 133t107.5 152t81.5 166t32.5 176q0 141 -74.5 225 t-191.5 84q-70 0 -116 -26.5t-75.5 -70.5t-44 -102.5t-20.5 -121.5h-205z" />
<glyph unicode="3" horiz-adv-x="1175" d="M102 324h205q2 -49 21.5 -96.5t53.5 -82t81 -56t106 -21.5q123 0 200 81.5t77 253.5q0 37 -8.5 90.5t-42 103.5t-105.5 85t-196 35v90q43 0 99 9t106.5 39t84 85t33.5 145q0 55 -15.5 105.5t-47 90.5t-80.5 63.5t-117 23.5q-43 0 -82 -10t-69.5 -38t-51 -77t-28.5 -125 h-183q2 55 23.5 115.5t71 111t129 82t200.5 31.5q111 0 192 -31.5t133 -84t76.5 -122t24.5 -145.5q0 -106 -57 -172.5t-174 -116.5l-23 -8v-14l23 -4q68 -10 121 -44t91 -82t58.5 -106.5t20.5 -115.5q0 -82 -32 -160t-95.5 -138.5t-158.5 -97t-222 -36.5q-90 -2 -170 24.5 t-140.5 74.5t-96.5 111.5t-36 133.5z" />
<glyph unicode="4" horiz-adv-x="1120" d="M61 344l707 1090h76v-981h194v-109h-194v-344h-166v344h-617zM221 453h457v706z" />
<glyph unicode="5" horiz-adv-x="1155" d="M61 332h150q2 -55 22.5 -103.5t56.5 -84t87 -56t117 -20.5q59 0 118.5 23.5t107.5 75.5t77.5 133t29.5 196q0 162 -86 262t-258 100q-41 0 -112.5 -8t-159.5 -53l182 637h621l-41 -113h-492l-119 -401q57 23 103.5 34t103.5 11q98 0 182.5 -32t147 -92.5t98 -144.5 t35.5 -188q0 -127 -42 -225.5t-114.5 -166t-170 -103.5t-207.5 -36q-94 0 -173 28t-136.5 75t-91.5 112.5t-36 139.5z" />
<glyph unicode="6" horiz-adv-x="1198" d="M123 721q0 -131 18.5 -263t70.5 -238.5t147.5 -174.5t246.5 -68q104 0 190.5 39t148 106.5t96 158t34.5 192.5q0 123 -39 211t-100.5 145.5t-138 85t-152.5 27.5q-127 0 -203.5 -51t-111.5 -121l-25 -47h-8q0 143 13.5 262t50 204t102 132t168.5 47q78 0 133 -40t67 -111 h173q-8 63 -41 109t-82.5 75t-110.5 43t-129 14q-141 0 -239.5 -62.5t-161 -166t-90 -236.5t-27.5 -272zM317 459q0 106 27 181t69 121t93 67.5t102 21.5q45 0 94.5 -18.5t90.5 -63.5t66.5 -121t25.5 -188q0 -123 -29 -200t-72 -120t-91 -57t-87 -14q-49 0 -101 21.5 t-93 69.5t-68 122t-27 178z" />
<glyph unicode="7" horiz-adv-x="1087" d="M61 1321h750l-231 -569h-228v-88h193l-269 -664h170l269 664h209v88h-174l276 682h-965v-113z" />
<glyph unicode="8" horiz-adv-x="1198" d="M123 395q0 63 22.5 127t63.5 116t101.5 86t135.5 38v10q-72 8 -124 41t-87.5 79t-53 99t-17.5 107q0 57 22.5 120.5t73.5 117t133 88t203 34.5q119 0 202 -34.5t134 -88t74.5 -117t23.5 -120.5q0 -53 -17.5 -106.5t-53 -99.5t-88 -79t-121.5 -41v-10q76 -4 136 -38 t102 -86t64.5 -115.5t22.5 -127.5q0 -76 -29.5 -150.5t-89 -134t-149.5 -96.5t-211 -37t-210 37t-147.5 96.5t-87 134t-28.5 150.5zM322 416q0 -160 74.5 -254t199.5 -94q129 0 205 94t76 254q0 66 -19.5 122t-56.5 98t-89.5 65.5t-115.5 23.5q-61 0 -112.5 -23.5 t-87.5 -65.5t-55 -98t-19 -122zM334 1079q0 -72 22.5 -124t59.5 -88t84 -53t96 -17q51 0 99 17t86 53t60.5 88.5t22.5 123.5q0 86 -27.5 142.5t-68.5 88t-87 45t-85 13.5t-84 -13.5t-85 -45t-66.5 -88t-26.5 -142.5z" />
<glyph unicode="9" horiz-adv-x="1198" d="M123 963q0 100 35 190t96 157.5t147 107.5t191 40q152 0 247 -67.5t147 -174t70.5 -239.5t18.5 -262q0 -139 -27.5 -272.5t-90 -237t-161 -166t-239.5 -62.5q-68 0 -129 14.5t-110.5 43t-82 75t-40.5 109.5h172q12 -72 67 -111.5t133 -39.5q102 0 168 47t102.5 132 t50 203.5t13.5 262.5h-8l-19 -47q-18 -47 -54 -79t-81 -52.5t-95 -28.5t-99 -8q-70 0 -144.5 26.5t-136 84t-101.5 144.5t-40 210zM313 977q0 -115 26 -189.5t66.5 -119.5t89 -63.5t95.5 -18.5q51 0 102 21.5t93 67.5t69 120.5t27 181.5q0 104 -27 178t-68 122t-93 69.5 t-101 21.5q-39 0 -87 -14.5t-91 -57.5t-72 -119.5t-29 -199.5z" />
<glyph unicode=":" horiz-adv-x="466" d="M123 86q0 -45 32.5 -78t77.5 -33t78 33t33 78t-32.5 78t-78.5 33q-45 0 -77.5 -33t-32.5 -78zM123 936q0 -45 32.5 -78t77.5 -33t78 33t33 78t-32.5 78t-78.5 33q-45 0 -77.5 -33t-32.5 -78z" />
<glyph unicode=";" horiz-adv-x="466" d="M123 936q0 -45 32.5 -78t77.5 -33t78 33t33 78t-32.5 78t-78.5 33q-45 0 -77.5 -33t-32.5 -78zM129 250v-529h68l125 529h-193z" />
<glyph unicode="&#x3c;" horiz-adv-x="1601" d="M123 674l1323 -559l33 90l-1076 469l1076 475l-33 90z" />
<glyph unicode="=" horiz-adv-x="1818" d="M205 457h1409v127h-1409v-127zM205 848h1409v125h-1409v-125z" />
<glyph unicode="&#x3e;" horiz-adv-x="1599" d="M123 205l33 -90l1321 559l-1321 565l-33 -90l1075 -475z" />
<glyph unicode="?" horiz-adv-x="1062" d="M205 1202h143v12q0 37 15.5 69t42 54.5t59.5 34.5t67 12q33 0 67 -12t61.5 -33.5t44 -51.5t16.5 -66q0 -63 -29.5 -115.5t-74 -100t-95.5 -93.5t-97 -95t-78 -104.5t-36 -124.5v-21q0 -47 14.5 -89t43 -73.5t71.5 -50t103 -18.5q51 0 111.5 32.5t107.5 90.5l-98 67 q-33 -41 -72 -73.5t-86 -32.5q-25 0 -50.5 23.5t-25.5 64.5q0 55 32 106.5t79 101.5t103 100t103.5 105.5t79 118t31.5 134.5q0 51 -15.5 102t-53 91t-103 65.5t-166.5 25.5q-78 0 -136 -19.5t-98 -54t-59.5 -82t-21.5 -100.5zM403 86q0 -45 33 -78t78 -33t78 33t33 78 t-33 78t-78 33t-78 -33t-33 -78z" />
<glyph unicode="@" horiz-adv-x="2107" d="M123 610q0 -178 65.5 -353t187.5 -315.5t297 -226.5t396 -86q57 0 126 6.5t146.5 29t163.5 64.5t183 113l-48 60q-23 -20 -69.5 -54t-119.5 -66t-169 -54.5t-219 -22.5q-201 0 -361.5 79t-272.5 207t-172 289.5t-60 327.5q0 160 48 296t127 241.5t178 181.5t204 117 q78 31 160.5 45t166.5 14q188 0 342 -60.5t261.5 -167t166 -250.5t58.5 -312q0 -123 -41 -223.5t-102.5 -173t-134 -111.5t-138.5 -39q-12 0 -29.5 5t-34 19.5t-27.5 41t-11 69.5q0 23 9 65t32 115l184 617h-176l-43 -127q-33 49 -69 76.5t-69.5 41t-63.5 17.5t-50 4 q-121 0 -225.5 -47t-182.5 -129t-122 -189.5t-44 -228.5q0 -109 32 -185.5t84 -125.5t118.5 -71.5t136.5 -22.5q72 0 136.5 27.5t140.5 86.5q29 -45 62.5 -71.5t68 -41t66.5 -18.5t57 -4q109 0 201.5 48t162.5 133t109 199t39 243q0 86 -12.5 172t-43.5 168 q-37 94 -108.5 188t-174 170t-235.5 122t-293 46q-100 0 -199.5 -13.5t-191.5 -47.5q-141 -55 -253 -149.5t-190.5 -214.5t-119.5 -260.5t-41 -283.5zM776 438q0 127 33 237.5t84 191.5t115.5 127t130.5 46q78 0 135 -56t74 -148l-146 -514q-16 -23 -39.5 -46.5t-54.5 -43 t-67.5 -32t-79.5 -12.5q-94 0 -139.5 69.5t-45.5 180.5z" />
<glyph unicode="A" horiz-adv-x="1499" d="M61 0h95l180 422h706l197 -422h199l-668 1434h-102zM375 514l295 690h8l321 -690h-624z" />
<glyph unicode="B" horiz-adv-x="1353" d="M246 0h514q137 0 231 36t151.5 93t83 130t25.5 147q0 117 -50 186.5t-119.5 106t-143.5 49t-119 14.5v8q72 0 135.5 27.5t111.5 71.5t76.5 102.5t28.5 124.5q0 57 -24.5 116.5t-74.5 108.5t-129 81t-185 32h-512v-1434zM432 90v627h225q100 0 174 -26.5t122 -72 t72 -104.5t24 -125q0 -72 -26 -127t-69 -94t-101 -58.5t-124 -19.5h-297zM432 807v536h250q80 0 136 -22.5t92 -59t52.5 -84t16.5 -94.5q0 -59 -23.5 -110t-65.5 -88t-96.5 -57.5t-115.5 -20.5h-246z" />
<glyph unicode="C" horiz-adv-x="1554" d="M102 731q0 -143 46.5 -279.5t142.5 -242t245.5 -170t356.5 -64.5q131 0 234.5 25t180 60.5t128 76.5t77.5 72l-61 55q-209 -197 -496 -196q-160 0 -282.5 55t-204.5 147t-124 213t-42 252q0 139 44 255t124 200t189.5 131t238.5 47q88 0 161 -20.5t129 -53t92 -74.5 t50 -85h152q-31 70 -79 129t-120 102t-168 67.5t-219 24.5q-178 0 -324.5 -51t-251 -146.5t-162 -229.5t-57.5 -300z" />
<glyph unicode="D" horiz-adv-x="1566" d="M266 0v1434h471q170 0 311.5 -54.5t243 -149.5t157.5 -226.5t56 -282.5q0 -158 -58 -290t-159.5 -228.5t-237 -149.5t-288.5 -53h-496zM453 90h225q168 0 285.5 56.5t193.5 146.5t111 201.5t35 222.5q0 123 -41 236.5t-120 200.5t-196 138t-268 51h-225v-1253z" />
<glyph unicode="E" d="M246 0h925v113h-739v600h635v94h-635v514h739v113h-925v-1434z" />
<glyph unicode="F" d="M246 0h186v713h635v94h-635v514h739v113h-925v-1434z" />
<glyph unicode="G" horiz-adv-x="1673" d="M123 737q0 -145 46 -281.5t141.5 -244t242.5 -172t352 -64.5q154 0 272.5 34t196.5 75v-84h176v639h-405v-84h229v-371q-92 -59 -188 -87.5t-219 -28.5q-162 0 -283 49t-201 136t-119.5 207t-39.5 263q0 141 37.5 260t113.5 205t185.5 133t254.5 47q96 0 180.5 -20.5 t150 -53t107.5 -74.5t54 -85h147q-18 45 -62 101t-120 105.5t-187.5 83t-262.5 33.5q-174 0 -320.5 -49t-253 -141t-166 -226.5t-59.5 -304.5z" />
<glyph unicode="H" horiz-adv-x="1722" d="M246 0h186v713h858v-713h187v1434h-187v-627h-858v627h-186v-1434z" />
<glyph unicode="I" horiz-adv-x="841" d="M328 0h186v1434h-186v-1434z" />
<glyph unicode="J" horiz-adv-x="1069" d="M20 305q4 -158 102.5 -244t295.5 -86q141 0 223 42t122 106.5t50 140.5t10 142v1028h-186v-1035q0 -49 -3 -107.5t-23.5 -108.5t-62.5 -83.5t-120 -33.5q-68 0 -112 24.5t-69.5 61t-36.5 78.5t-11 75h-179z" />
<glyph unicode="K" horiz-adv-x="1482" d="M246 0h186v504l232 248l544 -752h213l-639 879l521 555h-103l-768 -807v807h-186v-1434z" />
<glyph unicode="L" d="M246 0v1434h186v-1321h739v-113h-925z" />
<glyph unicode="M" horiz-adv-x="2101" d="M246 0h90v1169h8l633 -1194h37l647 1186h8v-1161h186v1434h-141l-663 -1231h-9l-657 1231h-139v-1434z" />
<glyph unicode="N" horiz-adv-x="1740" d="M246 0h94v1096h8l1137 -1121h10v1459h-94v-1096h-8l-1137 1120h-10v-1458z" />
<glyph unicode="O" horiz-adv-x="1771" d="M102 717q0 -115 44 -245t138.5 -240.5t240 -183.5t347.5 -73q137 0 249 34t201 91.5t154.5 132t107.5 157.5t63.5 167t21.5 160q0 115 -47 245t-145.5 240.5t-249 183t-355.5 72.5q-203 0 -348 -71.5t-239.5 -181t-138.5 -240.5t-44 -248zM303 717q0 143 44 263t121 206 t181.5 134t227.5 48q121 0 228 -48t188 -134t128 -206t47 -263t-47 -263t-128 -206t-188.5 -134t-227.5 -48q-123 0 -227.5 48t-181.5 134t-121 206t-44 263z" />
<glyph unicode="P" horiz-adv-x="1255" d="M246 0h186v598q53 -14 114.5 -23.5t135.5 -9.5q125 0 221 35t160.5 95.5t97.5 139t33 169.5q0 86 -28.5 164.5t-87 137t-146.5 93.5t-207 35h-479v-1434zM432 682v661h215q86 0 151.5 -30.5t108.5 -80.5t64.5 -112.5t21.5 -124.5q0 -59 -19.5 -119.5t-62.5 -109.5 t-108.5 -80t-157.5 -31q-63 0 -116.5 5.5t-96.5 21.5z" />
<glyph unicode="Q" horiz-adv-x="1830" d="M133 719q0 -152 57.5 -287t162 -236.5t248.5 -161t319 -59.5q70 0 137 9.5t133 31.5l192 -196l156 55l-195 203q100 59 172 138t117 165t65.5 173t20.5 165q0 117 -46 247t-143 239.5t-248 181t-361 71.5q-209 0 -357.5 -71.5t-244 -180t-140.5 -239.5t-45 -248zM336 719 q0 145 46 265t125 205t185.5 132t227.5 47q125 0 233.5 -47t188 -132t125.5 -205t46 -265q0 -39 -5 -101.5t-29.5 -137t-76.5 -154.5t-147 -154l-155 162l-129 -84l145 -150q-53 -20 -106.5 -27t-108.5 -7q-113 0 -215 44t-180 129t-124 205.5t-46 274.5z" />
<glyph unicode="R" horiz-adv-x="1470" d="M246 0h186v633h90q57 0 95 -10.5t69 -35t57.5 -63.5t63.5 -96l162 -240q31 -47 60.5 -86t64 -66.5t79 -44t105.5 -16.5q45 0 73.5 4.5t57.5 20.5v76q-10 -2 -20.5 -3t-20.5 -1q-43 0 -75.5 12t-61.5 35.5t-55.5 57.5t-55.5 77q-86 125 -133 199.5t-74.5 115.5t-45 59.5 t-42.5 30.5l-20 11v8q98 6 168.5 43t116 92t66 119.5t20.5 126.5q0 55 -21.5 120.5t-74 122t-142.5 94.5t-227 38h-465v-1434zM432 725v618h207q78 0 140.5 -22.5t107.5 -62t68.5 -95t23.5 -121.5q0 -55 -21.5 -111.5t-64.5 -102.5t-105.5 -74.5t-144.5 -28.5h-211z" />
<glyph unicode="S" horiz-adv-x="1280" d="M76 362q4 -88 46 -159.5t114.5 -121.5t171 -78t215.5 -28q119 0 214 29t162.5 82t104.5 129t37 168q0 127 -63.5 208t-159 135t-207 91t-206.5 78t-158.5 94t-63.5 141q0 49 21.5 92.5t63.5 75t103 51t141 19.5q133 0 226.5 -56.5t109.5 -176.5h139q-12 76 -55 136 t-108.5 102t-148.5 63.5t-173 21.5q-94 0 -179 -24.5t-149.5 -71.5t-102.5 -119t-38 -164q0 -121 61.5 -194.5t154.5 -122.5t201.5 -84t202 -79t155 -107.5t61.5 -169.5q0 -133 -97.5 -194.5t-259.5 -61.5q-129 0 -206.5 33.5t-118.5 80.5t-55.5 97.5t-16.5 84.5h-139z" />
<glyph unicode="T" horiz-adv-x="1366" d="M41 1321h549v-1321h186v1321h549v113h-1284v-113z" />
<glyph unicode="U" horiz-adv-x="1474" d="M164 553q0 -84 16.5 -185.5t77.5 -188.5t182 -145.5t330 -58.5q131 0 232.5 41t170 113t103.5 167t35 204v934h-90v-867q0 -45 -2 -91t-12.5 -92t-32 -91t-62.5 -90q-74 -80 -166 -108.5t-192 -28.5q-86 0 -152.5 26.5t-126.5 79.5q-47 41 -71.5 82t-37 81t-14.5 81 t-2 82v936h-186v-881z" />
<glyph unicode="V" horiz-adv-x="1427" d="M61 1434l601 -1434h122l582 1434h-106l-478 -1180h-8l-491 1180h-222z" />
<glyph unicode="W" horiz-adv-x="2162" d="M61 1434l508 -1434h123l391 1120h11l379 -1120h120l508 1434h-94l-424 -1196h-8l-399 1196h-89l-407 -1190h-8l-422 1190h-189z" />
<glyph unicode="X" horiz-adv-x="1472" d="M61 1434l560 -719l-549 -715h110l490 641h8l500 -641h231l-620 793l489 641h-109l-432 -564h-10l-438 564h-230z" />
<glyph unicode="Y" horiz-adv-x="1308" d="M61 1434l496 -891v-543h186v561l504 873h-110l-439 -756h-8l-418 756h-211z" />
<glyph unicode="Z" horiz-adv-x="1363" d="M61 0h1242v113h-945l910 1321h-1155v-113h866z" />
<glyph unicode="[" horiz-adv-x="624" d="M205 -451h358v101h-178v1685h178v99h-358v-1885z" />
<glyph unicode="\" horiz-adv-x="1056" d="M61 1458h146l788 -1483h-141z" />
<glyph unicode="]" horiz-adv-x="624" d="M61 -350h179v1685h-179v99h359v-1885h-359v101z" />
<glyph unicode="^" horiz-adv-x="892" d="M123 1544l323 129l324 -129v74l-278 180h-86l-283 -180v-74z" />
<glyph unicode="_" horiz-adv-x="1554" d="M61 -303v-148h1432v148h-1432z" />
<glyph unicode="`" horiz-adv-x="456" d="M33 1458l317 -260h80l-170 260h-227z" />
<glyph unicode="a" horiz-adv-x="1105" d="M82 322q0 66 24.5 131t73.5 117.5t121 85t164 32.5t175 -36t136 -101v88q0 168 -50 250t-183 82q-57 0 -100.5 -14.5t-77 -40t-62.5 -63.5t-57 -85l-107 106q29 31 60.5 62t78 55.5t110 40t153.5 15.5q150 0 231.5 -42t119.5 -110t44 -156t6 -180v-559h-166v100 q-59 -57 -151.5 -91t-184.5 -34q-88 0 -155.5 31t-112.5 80t-67.5 111t-22.5 125zM258 319q0 -66 23.5 -113.5t60.5 -81.5t82 -50.5t86 -16.5q39 0 79 14.5t75.5 40t64.5 60.5t47 76v158q-10 25 -29.5 57.5t-50 63t-73.5 52t-103 21.5q-59 0 -108.5 -23.5t-83 -61.5 t-52 -89.5t-18.5 -106.5z" />
<glyph unicode="b" horiz-adv-x="1236" d="M164 0v1434h174v-578h8q20 53 54 89t77 58.5t91 33t98 10.5q102 0 188 -38t148.5 -108t97.5 -168t35 -219q0 -123 -35 -222t-97.5 -170t-148.5 -109t-188 -38q-244 0 -320 191h-8v-166h-174zM338 410q0 -68 21.5 -128.5t60.5 -104.5t91 -69.5t112 -25.5q63 0 121.5 23.5 t101.5 74.5t68.5 133t25.5 197q0 117 -25.5 199t-69.5 134t-101.5 75.5t-120.5 23.5q-57 0 -108.5 -23.5t-90.5 -69.5t-62.5 -111.5t-23.5 -149.5v-178z" />
<glyph unicode="c" horiz-adv-x="1114" d="M102 518q0 -115 37 -214t105.5 -172t165 -115t217.5 -42q135 0 236.5 45.5t170.5 98.5l-59 78q-72 -59 -142.5 -87t-154.5 -28q-74 0 -142.5 22.5t-122 72.5t-85 133t-31.5 204q0 125 35 212t87 139.5t115.5 76t120.5 23.5q94 0 164 -49.5t92 -120.5h142 q-20 74 -65.5 122t-104 77.5t-125 41t-127.5 11.5q-129 0 -227.5 -42t-166 -114t-101.5 -168t-34 -205z" />
<glyph unicode="d" horiz-adv-x="1236" d="M102 514q0 -123 35 -222t97.5 -170t148.5 -109t188 -38q242 0 320 191h8v-166h174v1434h-174v-578h-8q-20 53 -54 89t-77 58.5t-91 33t-98 10.5q-102 0 -188 -38t-148.5 -108t-97.5 -168t-35 -219zM297 510q0 117 25.5 199t69.5 134t101.5 75.5t120.5 23.5 q57 0 108.5 -23.5t90.5 -69.5t62.5 -111.5t23.5 -149.5v-178q0 -68 -22.5 -128.5t-60.5 -104.5t-90 -69.5t-112 -25.5q-66 0 -123 23.5t-100 74.5t-68.5 133t-25.5 197z" />
<glyph unicode="e" horiz-adv-x="1175" d="M102 518q0 -102 32 -199.5t96.5 -174t164 -123t234.5 -46.5q131 0 241.5 46.5t192.5 132.5l-66 65q-43 -37 -80.5 -67.5t-76.5 -51t-81 -32t-93 -11.5q-57 0 -122 17.5t-120 62.5t-92 125t-37 205h778v43q0 137 -39 237.5t-105.5 166t-154.5 98t-186 32.5 q-104 0 -192.5 -35.5t-154 -104t-102.5 -166t-37 -220.5zM295 549q0 82 17.5 158.5t53 136t91 95.5t131.5 36q145 0 226 -113.5t81 -312.5h-600z" />
<glyph unicode="f" horiz-adv-x="743" d="M61 942h179v-942h174v942h248v82h-248v172q0 25 2 58.5t12 63.5t31.5 50.5t60.5 20.5q49 0 81 -41t52 -84l90 96q-49 49 -101 73.5t-118 24.5q-53 0 -104 -18.5t-91 -56t-64.5 -97t-24.5 -139.5v-123h-179v-82z" />
<glyph unicode="g" d="M102 514q0 -123 34 -222t95.5 -170t146.5 -109t189 -38q115 0 200 45.5t120 143.5h8v-250q0 -94 -22.5 -159.5t-62.5 -106.5t-94 -59.5t-116 -18.5q-109 0 -175.5 55.5t-121.5 147.5l-113 -103q14 -18 45 -48t78 -59.5t113 -51t149 -21.5q156 0 252.5 44t149.5 118 t72.5 169t19.5 197v1006h-174v-160h-8q-25 86 -106 134.5t-212 48.5q-104 0 -190 -38t-147.5 -108t-95.5 -168t-34 -219zM291 518q0 143 39 228t91 130.5t106.5 58.5t84.5 13q68 0 121 -29.5t89 -80t54.5 -116t18.5 -134.5v-152q0 -86 -23.5 -151.5t-62.5 -110.5t-90 -68.5 t-107 -23.5q-49 0 -105 17.5t-104.5 64.5t-80 133t-31.5 221z" />
<glyph unicode="h" horiz-adv-x="1165" d="M164 0h174v592q0 41 6 100.5t34 114.5t83 95t153 40q70 0 112 -25.5t64.5 -68.5t29.5 -100.5t7 -118.5v-629h174v676q0 115 -32.5 187.5t-81.5 113.5t-107.5 55.5t-111.5 14.5q-72 0 -151 -28t-148 -106l-23 -28h-8v549h-174v-1434z" />
<glyph unicode="i" horiz-adv-x="630" d="M205 1348q0 -45 32.5 -78t77.5 -33t78 33t33 78t-33 77.5t-78 32.5t-77.5 -32.5t-32.5 -77.5zM229 0h174v1024h-174v-1024z" />
<glyph unicode="j" horiz-adv-x="595" d="M-123 -412q45 -59 105.5 -79.5t126.5 -20.5q45 0 97 16.5t97 62.5t75 127t30 210v1120h-177v-1212q0 -47 -4 -91.5t-17 -79t-39 -55t-67 -20.5q-51 0 -76.5 24.5t-47.5 77.5zM211 1348q0 -45 31.5 -78t79.5 -33q45 0 77.5 33t32.5 78t-32.5 77.5t-77.5 32.5 q-47 0 -79 -32.5t-32 -77.5z" />
<glyph unicode="k" horiz-adv-x="1097" d="M164 0h174v385l119 121l411 -506h230l-514 631l391 393h-133l-504 -508v918h-174v-1434z" />
<glyph unicode="l" horiz-adv-x="583" d="M205 0h174v1434h-174v-1434z" />
<glyph unicode="m" horiz-adv-x="1759" d="M164 0h174v584q0 37 6 97t31.5 118.5t79 100.5t149.5 42q70 0 108 -30.5t56 -75.5t21.5 -94.5t3.5 -86.5v-655h174v584q0 45 8 107.5t34.5 117.5t77 94t136.5 39q63 0 102 -18.5t60.5 -55.5t28.5 -90t7 -123v-655h174v715q0 47 -10 105.5t-44 108.5t-98.5 84t-170.5 34 q-31 0 -72 -6.5t-86 -27t-87 -59.5t-73 -102h-14q-12 33 -34.5 66.5t-57.5 62.5t-83 47.5t-116 18.5q-31 0 -74 -7.5t-86 -28t-80.5 -57t-62.5 -96.5h-8v166h-174v-1024z" />
<glyph unicode="n" horiz-adv-x="1189" d="M164 0h174v633q0 80 22.5 137t61.5 96t89 57.5t103 18.5q86 0 133.5 -34t69 -79t25.5 -90t4 -65v-674h174v664q0 37 -6 101t-40 126.5t-107.5 109t-209.5 46.5h-8q-56 0 -125 -24q-74 -26 -145 -97l-33 -33h-8v131h-174v-1024z" />
<glyph unicode="o" horiz-adv-x="1265" d="M102 510q0 106 38 203.5t106.5 171t168 118t222.5 44.5q121 0 218 -44.5t166 -118t105.5 -171t36.5 -203.5t-36.5 -203.5t-105.5 -171.5t-166 -117t-218 -43q-123 0 -222.5 44t-168 118t-106.5 171.5t-38 201.5zM297 510q0 -141 31.5 -230.5t82 -138.5t110 -66.5 t114.5 -17.5t114.5 17.5t108.5 66.5t80 138.5t31 230.5q0 143 -31 232t-80 138.5t-108.5 67t-114.5 17.5t-114.5 -17.5t-110 -67t-82 -138.5t-31.5 -232z" />
<glyph unicode="p" horiz-adv-x="1236" d="M164 -512h174v680h8q20 -53 54 -90t77 -59.5t91 -33t98 -10.5q102 0 188 38t148.5 107.5t97.5 169t35 220.5q0 123 -35 221t-97.5 169t-148.5 109t-188 38q-244 0 -320 -189h-8v166h-174v-1536zM338 436v178q0 68 21.5 128.5t60.5 104.5t91 69.5t112 25.5 q63 0 121.5 -23.5t101.5 -74.5t68.5 -133t25.5 -197q0 -117 -25.5 -199t-69.5 -134t-101.5 -75.5t-120.5 -23.5q-57 0 -108.5 23.5t-90.5 69.5t-62.5 111.5t-23.5 149.5z" />
<glyph unicode="q" horiz-adv-x="1236" d="M102 510q0 123 35 221t97.5 169t148.5 109t188 38q244 0 320 -189h8v166h174v-1536h-174v680h-8q-20 -53 -54 -90t-77 -59.5t-91 -33t-98 -10.5q-102 0 -188 38t-148.5 107.5t-97.5 169t-35 220.5zM297 514q0 -117 25.5 -199t69.5 -134t101.5 -75.5t120.5 -23.5 q57 0 108.5 23.5t90.5 69.5t62.5 111.5t23.5 149.5v178q0 68 -22.5 128.5t-60.5 104.5t-90 69.5t-112 25.5q-66 0 -123 -23.5t-100 -74.5t-68.5 -133t-25.5 -197z" />
<glyph unicode="r" horiz-adv-x="782" d="M164 0h174v618q0 84 19.5 142.5t50 95.5t67.5 53.5t72 16.5q47 0 87 -31t58 -57l70 127q-18 25 -44 41t-51.5 25t-47 12.5t-31.5 3.5q-86 0 -143.5 -47.5t-94.5 -139.5h-12v164h-174v-1024z" />
<glyph unicode="s" horiz-adv-x="983" d="M68 279q0 -57 26.5 -111.5t80.5 -97.5t133 -69t184 -26q188 0 283 83t95 218q0 98 -46 158t-115.5 95.5t-150.5 58t-150.5 47t-115.5 59.5t-46 99q0 27 10 56.5t34.5 55t65.5 43t103 17.5q61 0 106 -17.5t76 -43t45 -56.5t14 -57h117q0 55 -28.5 102t-79 81t-117 53.5 t-141.5 19.5q-72 0 -134.5 -18.5t-108.5 -55.5t-72.5 -91.5t-26.5 -125.5q0 -98 45 -155.5t112.5 -92.5t146.5 -56.5t146.5 -47t112.5 -64.5t45 -107q0 -29 -9.5 -59.5t-34 -56t-67.5 -43t-108 -17.5q-82 0 -138.5 26t-92.5 61.5t-51 72.5t-15 62h-133z" />
<glyph unicode="t" horiz-adv-x="768" d="M61 942v82h179v315h174v-315h248v-82h-248v-680q0 -25 2 -56.5t12 -59t31.5 -46t60.5 -18.5q49 0 82 37t53 80l97 -99q-100 -100 -228 -100q-53 0 -104 18.5t-91 56.5t-64.5 97t-24.5 139v631h-179z" />
<glyph unicode="u" horiz-adv-x="1189" d="M164 358q0 -37 7 -101t42 -126.5t109.5 -109t209.5 -46.5h9q56 0 122 24q71 26 142 97l33 33h8v-129h174v1024h-174v-635q0 -80 -22.5 -137t-59.5 -95t-86 -56.5t-103 -18.5q-86 0 -134 34t-71.5 79t-27.5 89t-4 64v676h-174v-666z" />
<glyph unicode="v" horiz-adv-x="1044" d="M41 1024l426 -1024h123l414 1024h-97l-332 -821h-12l-342 821h-180z" />
<glyph unicode="w" horiz-adv-x="1527" d="M41 1024l354 -1024h111l237 686h9l266 -686h96l373 1024h-107l-278 -766h-8l-291 766h-41l-268 -772h-9l-266 772h-178z" />
<glyph unicode="x" horiz-adv-x="1087" d="M61 1024l383 -520l-381 -504h121l320 424l313 -424h209l-418 561l344 463h-118l-285 -383l-281 383h-207z" />
<glyph unicode="y" horiz-adv-x="1032" d="M20 1024l459 -1012l-108 -266q-18 -47 -48 -75.5t-69 -28.5q-37 0 -70.5 21.5t-52.5 62.5l-90 -170q39 -35 86 -51.5t88 -16.5q57 0 100 28.5t76 75t57.5 102.5t47.5 111l495 1219h-100l-322 -784h-8l-354 784h-187z" />
<glyph unicode="z" horiz-adv-x="1003" d="M41 0h895v82h-643l649 942h-868v-82h616z" />
<glyph unicode="{" horiz-adv-x="729" d="M123 596q31 -4 65.5 -17.5t64.5 -47t50.5 -91t20.5 -149.5q0 -72 -4.5 -130.5t-4.5 -117.5q0 -47 10.5 -110.5t46.5 -122t105.5 -100.5t190.5 -46v121q-55 12 -86 38.5t-47.5 57.5t-20.5 62.5t-4 56.5q0 63 6 125.5t6 122.5q0 158 -62.5 253t-199.5 158v17 q137 63 199.5 159.5t62.5 254.5q0 66 -6 127t-6 126q0 23 4 55t20.5 62.5t47 57t86.5 41.5v118q-61 -2 -124 -19.5t-113 -60.5t-83 -115.5t-33 -185.5q0 -61 4.5 -121.5t4.5 -121.5q0 -84 -16.5 -141.5t-44 -93.5t-64.5 -54.5t-76 -20.5v-147z" />
<glyph unicode="|" horiz-adv-x="559" d="M205 -510h149v2322h-149v-2322z" />
<glyph unicode="}" horiz-adv-x="733" d="M61 -215v-121q125 6 197 51t106.5 105.5t44 122t9.5 100.5q0 59 -4 117.5t-4 130.5q0 80 16 136t44 93t64.5 54.5t75.5 21.5v147q-29 2 -63.5 15.5t-65 47.5t-51 93t-20.5 154q0 61 4 121.5t4 121.5q0 113 -33 185.5t-85 115.5t-115.5 60.5t-123.5 19.5v-118 q51 -12 83 -36t49.5 -53.5t23.5 -62.5t6 -64q0 -66 -6 -127t-6 -126q0 -158 60.5 -254.5t197.5 -159.5v-17q-137 -63 -197.5 -158t-60.5 -253q0 -59 6 -122t6 -126q0 -31 -6 -64.5t-23.5 -63.5t-49.5 -52.5t-83 -34.5z" />
<glyph unicode="~" d="M123 621l55 -39q23 33 59.5 52t98.5 19q72 0 123 -4t92 -11t78 -15.5t80 -16.5l116 -20q10 -2 21 -2h22q27 0 58.5 6t63.5 23.5t63.5 50t56.5 88.5l-47 30q-35 -37 -76 -52t-98 -15q-31 0 -99.5 10t-146.5 23.5t-150.5 23.5t-111.5 10q-27 0 -59.5 -5t-66.5 -22.5 t-68.5 -49t-63.5 -84.5z" />
<glyph unicode="&#xa2;" horiz-adv-x="1218" d="M164 508q0 -102 32.5 -194.5t94 -163t149.5 -116.5t197 -54v-316h108v313q111 10 200 52.5t151 89.5l-60 78q-72 -59 -140.5 -89t-150.5 -32v878q96 -10 151.5 -54t76.5 -105h141q-18 63 -55 108t-86 75t-107.5 45t-120.5 19v275h-108v-273q-113 -6 -201 -51 t-148.5 -116.5t-92 -167t-31.5 -201.5zM358 510q0 121 26 202t65.5 131t89 74.5t98.5 32.5v-864q-57 14 -108.5 45t-89.5 83t-59.5 125t-21.5 171z" />
<glyph unicode="&#xa3;" horiz-adv-x="1572" d="M135 117q0 -47 22.5 -75t51.5 -42t57.5 -18.5t40.5 -4.5h51q80 6 145.5 53.5t114.5 102.5l62 -33q109 -59 189.5 -91t158.5 -32q86 0 147.5 33t105.5 88.5t74.5 129t55.5 157.5l-96 25q-16 -53 -39 -102.5t-56.5 -86.5t-78.5 -58.5t-107 -21.5q-84 0 -171 34t-187 67 q33 66 55.5 141.5t22.5 165.5q0 10 -2 51t-9 117h433v90h-443q-10 68 -17 119t-11.5 89t-6.5 65.5t-2 52.5q0 43 9.5 86t29 76.5t51 54t78.5 20.5q49 0 70.5 -14.5t21.5 -28.5q0 -12 -8 -19.5t-19 -18.5t-19.5 -30.5t-8.5 -52.5q0 -45 33 -77.5t88 -32.5q59 0 89 46t30 118 q0 92 -64.5 145t-163.5 53q-78 0 -152.5 -24.5t-134 -73.5t-96 -122t-36.5 -169q0 -59 6 -132t16 -130h-319v-90h335q23 -72 29 -148.5t6 -152.5q0 -35 -4 -64.5t-18 -66.5q-35 10 -76 16t-74 6q-55 0 -102 -12t-82 -37t-55.5 -60.5t-20.5 -80.5zM252 121q0 12 5 27.5 t18.5 28.5t39 22.5t66.5 9.5q23 0 53.5 -4t71.5 -21q-45 -78 -92 -101.5t-76 -23.5q-41 0 -63.5 19.5t-22.5 42.5z" />
<glyph unicode="&#xa5;" horiz-adv-x="1267" d="M41 1434l473 -852h-260v-115h283v-84h-283v-117h283v-266h186v266h283v117h-283v84h283v115h-271l492 852h-111l-438 -756h-8l-418 756h-211z" />
<glyph unicode="&#xa8;" horiz-adv-x="503" d="M0 1348q0 -45 33 -78t78 -33t77.5 33t32.5 78t-32.5 77.5t-77.5 32.5t-78 -32.5t-33 -77.5zM283 1348q0 -45 32.5 -78t77.5 -33t78 33t33 78t-33 77.5t-78 32.5t-77.5 -32.5t-32.5 -77.5z" />
<glyph unicode="&#xa9;" horiz-adv-x="1765" d="M143 717q0 -152 58.5 -286t159 -234.5t234.5 -158.5t288 -58t288 58t234 158.5t158.5 234.5t58.5 286q0 154 -58.5 288t-158.5 234t-234.5 158.5t-287.5 58.5q-154 0 -288 -58.5t-234.5 -158.5t-159 -234t-58.5 -288zM276 717q0 125 48.5 235.5t131.5 192.5t192.5 130 t234.5 48t234.5 -48t192.5 -130t131 -192.5t48 -235.5t-48 -234.5t-131 -192.5t-192.5 -131t-234.5 -48t-234.5 48t-192.5 131t-131.5 192.5t-48.5 234.5zM506 700q0 -80 27.5 -151.5t78 -124.5t122 -85t159.5 -32q98 0 174 34t127 73l-51 63q-53 -45 -102.5 -69.5 t-112.5 -24.5q-53 0 -101.5 17.5t-87.5 55.5t-61.5 98t-22.5 146q0 106 25 172t62.5 102t81.5 48t83 12q84 0 127 -35.5t60 -85.5h114q-16 55 -48 91t-76 57.5t-95 30t-104 8.5q-90 0 -161 -32t-119 -85t-73.5 -127t-25.5 -156z" />
<glyph unicode="&#xab;" horiz-adv-x="1105" d="M164 530l246 -405h139l-240 405l240 406h-139zM553 530l250 -405h139l-242 405l242 406h-139z" />
<glyph unicode="&#xad;" horiz-adv-x="751" d="M123 471v154h506v-154h-506z" />
<glyph unicode="&#xae;" horiz-adv-x="1765" d="M143 715q0 -152 58.5 -287t159 -235.5t234.5 -159t288 -58.5t288 58.5t234 159t158.5 235.5t58.5 287q0 154 -58.5 288t-158.5 234t-234.5 158.5t-287.5 58.5q-154 0 -288 -58.5t-234.5 -158.5t-159 -234t-58.5 -288zM276 715q0 125 48.5 234.5t131.5 192.5t192.5 131 t234.5 48t234.5 -48t192.5 -131t131 -192.5t48 -234.5t-48 -234.5t-131 -192.5t-192.5 -131t-234.5 -48t-234.5 48t-192.5 131t-131.5 192.5t-48.5 234.5zM612 309h131v336h88q8 0 31 -29.5t48.5 -68.5t48 -76t32.5 -51q18 -25 33.5 -47.5t36 -40t46.5 -26.5t64 -9 q33 0 50.5 4t35.5 16v66q-18 -6 -36 -6q-47 0 -70 24.5t-33 40.5l-160 226q47 12 81 36.5t55.5 55.5t31 62.5t9.5 60.5q0 18 -8.5 54t-36 71.5t-80 61.5t-138.5 26h-260v-787zM743 723v303h93q70 0 115.5 -46t45.5 -106q0 -43 -15 -71.5t-39.5 -46t-52.5 -25.5t-52 -8h-95z " />
<glyph unicode="&#xaf;" horiz-adv-x="743" d="M51 1194h641v82h-641v-82z" />
<glyph unicode="&#xb4;" horiz-adv-x="397" d="M0 1198l170 260h227l-317 -260h-80z" />
<glyph unicode="&#xb8;" horiz-adv-x="370" d="M0 -389q31 -4 66.5 -8t70.5 -4q43 0 85 9t75 30.5t53.5 53.5t20.5 79q0 66 -55.5 103.5t-122.5 37.5h-25q-12 0 -25 -2l25 90h-68l-51 -168q14 4 38 6t38 2q78 0 104.5 -24.5t26.5 -48.5q0 -35 -18.5 -55.5t-47 -31t-62.5 -14.5t-62 -4h-27q-12 0 -23 4z" />
<glyph unicode="&#xbb;" horiz-adv-x="1105" d="M164 125h141l244 405l-244 406h-141l242 -406zM553 125h141l248 405l-248 406h-141l246 -406z" />
<glyph unicode="&#xc4;" horiz-adv-x="1499" d="M61 0h95l180 422h706l197 -422h199l-668 1434h-102zM375 514l295 690h8l321 -690h-624zM498 1757q0 -45 32.5 -77.5t77.5 -32.5t78 32.5t33 77.5t-33 78t-78 33t-77.5 -33t-32.5 -78zM780 1757q0 -45 33 -77.5t78 -32.5t77.5 32.5t32.5 77.5t-32.5 78t-77.5 33t-78 -33 t-33 -78z" />
<glyph unicode="&#xc5;" horiz-adv-x="1499" d="M61 0h95l180 422h706l197 -422h199l-668 1434h-102zM375 514l295 690h8l321 -690h-624zM561 1698q0 -39 14.5 -73t40 -59.5t60.5 -41t74 -15.5t73.5 15.5t60 41t40 59.5t14.5 73q0 31 -11.5 64.5t-35 60t-59 44t-82.5 17.5t-82 -17.5t-58.5 -44t-36 -60t-12.5 -64.5z M629 1698q0 51 34.5 85t86.5 34q49 0 84.5 -34t35.5 -85t-35.5 -86t-84.5 -35q-51 0 -86 35t-35 86z" />
<glyph unicode="&#xc6;" horiz-adv-x="2052" d="M41 0h119l284 428h605v-428h942v113h-756v604h614v90h-614v512h721v115h-952zM506 520l543 811v-811h-543z" />
<glyph unicode="&#xd0;" horiz-adv-x="1609" d="M20 678v82h226v674h471q170 0 312 -55.5t243.5 -152t158 -229.5t56.5 -286q0 -156 -59.5 -286t-161 -224.5t-236.5 -147.5t-289 -53h-495v678h-226zM432 90h225q168 0 286 57.5t193.5 148.5t110.5 203.5t35 223.5q0 125 -41 237.5t-120 197.5t-195.5 135t-268.5 50h-225 v-583h230v-82h-230v-588z" />
<glyph unicode="&#xd3;" horiz-adv-x="1771" d="M102 717q0 -115 44 -245t138.5 -240.5t240 -183.5t347.5 -73q137 0 249 34t201 91.5t154.5 132t107.5 157.5t63.5 167t21.5 160q0 115 -47 245t-145.5 240.5t-249 183t-355.5 72.5q-203 0 -348 -71.5t-239.5 -181t-138.5 -240.5t-44 -248zM303 717q0 143 44 263t121 206 t181.5 134t227.5 48q121 0 228 -48t188 -134t128 -206t47 -263t-47 -263t-128 -206t-188.5 -134t-227.5 -48q-123 0 -227.5 48t-181.5 134t-121 206t-44 263zM686 1608l170 260h227l-317 -260h-80z" />
<glyph unicode="&#xd5;" horiz-adv-x="1771" d="M102 717q0 -115 44 -245t138.5 -240.5t240 -183.5t347.5 -73q137 0 249 34t201 91.5t154.5 132t107.5 157.5t63.5 167t21.5 160q0 115 -47 245t-145.5 240.5t-249 183t-355.5 72.5q-203 0 -348 -71.5t-239.5 -181t-138.5 -240.5t-44 -248zM303 717q0 143 44 263t121 206 t181.5 134t227.5 48q121 0 228 -48t188 -134t128 -206t47 -263t-47 -263t-128 -206t-188.5 -134t-227.5 -48q-123 0 -227.5 48t-181.5 134t-121 206t-44 263zM504 1647l55 -31q23 39 58.5 64.5t70.5 25.5q27 0 52.5 -8t47.5 -19q74 -29 135.5 -51t114.5 -22q72 0 132.5 48 t95.5 156l-62 29q-23 -53 -57.5 -72.5t-69.5 -19.5q-25 0 -48 6t-42 10q-88 29 -150.5 54.5t-109.5 25.5q-78 0 -136 -56t-87 -140z" />
<glyph unicode="&#xd6;" horiz-adv-x="1771" d="M102 717q0 -115 44 -245t138.5 -240.5t240 -183.5t347.5 -73q137 0 249 34t201 91.5t154.5 132t107.5 157.5t63.5 167t21.5 160q0 115 -47 245t-145.5 240.5t-249 183t-355.5 72.5q-203 0 -348 -71.5t-239.5 -181t-138.5 -240.5t-44 -248zM303 717q0 143 44 263t121 206 t181.5 134t227.5 48q121 0 228 -48t188 -134t128 -206t47 -263t-47 -263t-128 -206t-188.5 -134t-227.5 -48q-123 0 -227.5 48t-181.5 134t-121 206t-44 263zM633 1757q0 -45 32.5 -77.5t77.5 -32.5t78 32.5t33 77.5t-33 78t-78 33t-77.5 -33t-32.5 -78zM915 1757 q0 -45 33 -77.5t78 -32.5t78 32.5t33 77.5t-33 78t-78 33t-78 -33t-33 -78z" />
<glyph unicode="&#xd8;" horiz-adv-x="1794" d="M123 705q0 -80 21.5 -168t65.5 -172t111.5 -159t161.5 -128l-53 -103h141l27 50q66 -23 137.5 -36.5t157.5 -13.5q137 0 247.5 33t196.5 89.5t149.5 129t104.5 153.5t60.5 165t19.5 160q0 80 -21.5 169t-67.5 174t-116.5 159.5t-167.5 127.5l66 123h-145l-37 -69 q-131 45 -289 45q-203 0 -348.5 -70t-239.5 -177.5t-138 -236t-44 -245.5zM324 705q0 143 44 260.5t120.5 201.5t181 130t227.5 46q121 0 233 -51l-587 -1104q-102 86 -160.5 217.5t-58.5 299.5zM649 119l590 1108q106 -84 168.5 -217t62.5 -305q0 -143 -44 -261 t-121.5 -203t-182 -131.5t-225.5 -46.5q-137 1 -248 56z" />
<glyph unicode="&#xdc;" horiz-adv-x="1474" d="M164 553q0 -84 16.5 -185.5t77.5 -188.5t182 -145.5t330 -58.5q131 0 232.5 41t170 113t103.5 167t35 204v934h-90v-867q0 -45 -2 -91t-12.5 -92t-32 -91t-62.5 -90q-74 -80 -166 -108.5t-192 -28.5q-86 0 -152.5 26.5t-126.5 79.5q-47 41 -71.5 82t-37 81t-14.5 81 t-2 82v936h-186v-881zM485 1757q0 -45 33 -77.5t78 -32.5t78 32.5t33 77.5t-33 78t-78 33t-78 -33t-33 -78zM768 1757q0 -45 33 -77.5t78 -32.5t77.5 32.5t32.5 77.5t-32.5 78t-77.5 33t-78 -33t-33 -78z" />
<glyph unicode="&#xe4;" horiz-adv-x="1105" d="M82 322q0 66 24.5 131t73.5 117.5t121 85t164 32.5t175 -36t136 -101v88q0 168 -50 250t-183 82q-57 0 -100.5 -14.5t-77 -40t-62.5 -63.5t-57 -85l-107 106q29 31 60.5 62t78 55.5t110 40t153.5 15.5q150 0 231.5 -42t119.5 -110t44 -156t6 -180v-559h-166v100 q-59 -57 -151.5 -91t-184.5 -34q-88 0 -155.5 31t-112.5 80t-67.5 111t-22.5 125zM258 319q0 -66 23.5 -113.5t60.5 -81.5t82 -50.5t86 -16.5q39 0 79 14.5t75.5 40t64.5 60.5t47 76v158q-10 25 -29.5 57.5t-50 63t-73.5 52t-103 21.5q-59 0 -108.5 -23.5t-83 -61.5 t-52 -89.5t-18.5 -106.5zM301 1348q0 -45 33 -78t78 -33t77.5 33t32.5 78t-32.5 77.5t-77.5 32.5t-78 -32.5t-33 -77.5zM584 1348q0 -45 32.5 -78t77.5 -33t78 33t33 78t-33 77.5t-78 32.5t-77.5 -32.5t-32.5 -77.5z" />
<glyph unicode="&#xe5;" horiz-adv-x="1105" d="M82 322q0 66 24.5 131t73.5 117.5t121 85t164 32.5t175 -36t136 -101v88q0 168 -50 250t-183 82q-57 0 -100.5 -14.5t-77 -40t-62.5 -63.5t-57 -85l-107 106q29 31 60.5 62t78 55.5t110 40t153.5 15.5q150 0 231.5 -42t119.5 -110t44 -156t6 -180v-559h-166v100 q-59 -57 -151.5 -91t-184.5 -34q-88 0 -155.5 31t-112.5 80t-67.5 111t-22.5 125zM258 319q0 -66 23.5 -113.5t60.5 -81.5t82 -50.5t86 -16.5q39 0 79 14.5t75.5 40t64.5 60.5t47 76v158q-10 25 -29.5 57.5t-50 63t-73.5 52t-103 21.5q-59 0 -108.5 -23.5t-83 -61.5 t-52 -89.5t-18.5 -106.5zM365 1288q0 -39 14 -72.5t39.5 -59.5t60.5 -41t74 -15t74 15t60.5 41t39.5 59.5t14 72.5q0 31 -11 64.5t-34.5 60.5t-59.5 44.5t-83 17.5t-82 -17.5t-58.5 -44.5t-35.5 -60.5t-12 -64.5zM432 1288q0 51 35 85t86 34q49 0 85 -34t36 -85t-36 -86 t-85 -35q-51 0 -86 35t-35 86z" />
<glyph unicode="&#xe6;" horiz-adv-x="1818" d="M84 315q0 -61 22.5 -121.5t67.5 -108.5t113.5 -79t161.5 -31q106 0 210.5 47.5t184.5 153.5q31 -37 71.5 -72.5t93 -64.5t118 -46.5t145.5 -17.5q109 0 219.5 46.5t204.5 144.5l-60 61q-88 -92 -165.5 -130t-184.5 -38q-74 0 -139.5 30t-114.5 84t-76.5 132t-27.5 176v8 h755v35q0 158 -46 260.5t-115.5 161t-148.5 81t-146 22.5q-47 0 -98.5 -10.5t-99.5 -30t-88 -46t-64 -59.5q-78 90 -160 118t-189 28q-106 0 -182 -22.5t-151 -80.5l61 -86q59 53 129 85t147 32q31 0 70 -9.5t74 -26.5t60.5 -45t29.5 -65v-270q-37 43 -78 67.5t-82 38 t-77.5 17.5t-63.5 4q-92 0 -164 -31.5t-120 -84t-72.5 -120t-24.5 -137.5zM262 338q0 61 20.5 109.5t55.5 80t81 49t95 17.5q61 0 106.5 -20.5t76 -48t47 -57.5t22.5 -50v-180q-18 -43 -47 -75t-63.5 -53.5t-71.5 -31.5t-70 -10q-53 0 -99 20.5t-80 56t-53.5 85t-19.5 108.5 zM928 561q0 102 25.5 180t66.5 130.5t94 79t107 26.5q123 0 199.5 -105.5t76.5 -291.5v-19h-569z" />
<glyph unicode="&#xf3;" horiz-adv-x="1265" d="M102 510q0 106 38 203.5t106.5 171t168 118t222.5 44.5q121 0 218 -44.5t166 -118t105.5 -171t36.5 -203.5t-36.5 -203.5t-105.5 -171.5t-166 -117t-218 -43q-123 0 -222.5 44t-168 118t-106.5 171.5t-38 201.5zM297 510q0 -141 31.5 -230.5t82 -138.5t110 -66.5 t114.5 -17.5t114.5 17.5t108.5 66.5t80 138.5t31 230.5q0 143 -31 232t-80 138.5t-108.5 67t-114.5 17.5t-114.5 -17.5t-110 -67t-82 -138.5t-31.5 -232zM434 1198l170 260h227l-317 -260h-80z" />
<glyph unicode="&#xf5;" horiz-adv-x="1265" d="M102 510q0 106 38 203.5t106.5 171t168 118t222.5 44.5q121 0 218 -44.5t166 -118t105.5 -171t36.5 -203.5t-36.5 -203.5t-105.5 -171.5t-166 -117t-218 -43q-123 0 -222.5 44t-168 118t-106.5 171.5t-38 201.5zM252 1237l55 -31q23 39 58.5 64.5t70.5 25.5q27 0 52.5 -8 t48.5 -18q74 -29 135 -51.5t114 -22.5q72 0 132.5 48t95.5 157l-62 29q-23 -53 -57.5 -73t-69.5 -20q-25 0 -48 6.5t-42 10.5q-88 29 -150.5 54.5t-109.5 25.5q-78 0 -136 -56.5t-87 -140.5zM297 510q0 -141 31.5 -230.5t82 -138.5t110 -66.5t114.5 -17.5t114.5 17.5 t108.5 66.5t80 138.5t31 230.5q0 143 -31 232t-80 138.5t-108.5 67t-114.5 17.5t-114.5 -17.5t-110 -67t-82 -138.5t-31.5 -232z" />
<glyph unicode="&#xf6;" horiz-adv-x="1265" d="M102 510q0 106 38 203.5t106.5 171t168 118t222.5 44.5q121 0 218 -44.5t166 -118t105.5 -171t36.5 -203.5t-36.5 -203.5t-105.5 -171.5t-166 -117t-218 -43q-123 0 -222.5 44t-168 118t-106.5 171.5t-38 201.5zM297 510q0 -141 31.5 -230.5t82 -138.5t110 -66.5 t114.5 -17.5t114.5 17.5t108.5 66.5t80 138.5t31 230.5q0 143 -31 232t-80 138.5t-108.5 67t-114.5 17.5t-114.5 -17.5t-110 -67t-82 -138.5t-31.5 -232zM381 1348q0 -45 32.5 -78t78.5 -33q45 0 77.5 33t32.5 78t-32.5 77.5t-77.5 32.5t-78 -32.5t-33 -77.5zM664 1348 q0 -45 32.5 -78t77.5 -33t78 33t33 78t-33 77.5t-78 32.5t-77.5 -32.5t-32.5 -77.5z" />
<glyph unicode="&#xf8;" horiz-adv-x="1306" d="M123 510q0 -131 54 -244.5t153 -187.5l-58 -103h134l24 43q47 -20 102.5 -31.5t116.5 -11.5q123 0 222.5 44t168 118t106.5 171.5t38 201.5q0 135 -59.5 253t-170.5 191l54 95h-138l-20 -39q-47 16 -96 26.5t-105 10.5q-121 0 -218 -44.5t-165.5 -118t-105.5 -171 t-37 -203.5zM317 510q0 143 31 233.5t80 141.5t108.5 70.5t114.5 19.5q37 0 77 -8.5t79 -30.5l-418 -750q-33 53 -52.5 132t-19.5 192zM473 96l426 760q41 -53 65.5 -137t24.5 -209q0 -141 -31.5 -231.5t-82 -141.5t-109.5 -70.5t-115 -19.5q-45 0 -91 10t-87 39z" />
<glyph unicode="&#xfc;" horiz-adv-x="1189" d="M164 358q0 -37 7 -101t42 -126.5t109.5 -109t209.5 -46.5q59 -2 130 24t143 97l33 33h8v-129h174v1024h-174v-635q0 -80 -22.5 -137t-59.5 -95t-86 -56.5t-103 -18.5q-86 0 -134 34t-71.5 79t-27.5 89t-4 64v676h-174v-666zM342 1348q0 -45 33 -78t78 -33t77.5 33 t32.5 78t-32.5 77.5t-77.5 32.5t-78 -32.5t-33 -77.5zM625 1348q0 -45 32.5 -78t77.5 -33t78 33t33 78t-33 77.5t-78 32.5t-77.5 -32.5t-32.5 -77.5z" />
<glyph unicode="&#x100;" horiz-adv-x="1499" d="M61 0h95l180 422h706l197 -422h199l-668 1434h-102zM375 514l295 690h8l321 -690h-624zM428 1604h641v82h-641v-82z" />
<glyph unicode="&#x101;" horiz-adv-x="1105" d="M82 322q0 66 24.5 131t73.5 117.5t121 85t164 32.5t175 -36t136 -101v88q0 168 -50 250t-183 82q-57 0 -100.5 -14.5t-77 -40t-62.5 -63.5t-57 -85l-107 106q29 31 60.5 62t78 55.5t110 40t153.5 15.5q150 0 231.5 -42t119.5 -110t44 -156t6 -180v-559h-166v100 q-59 -57 -151.5 -91t-184.5 -34q-88 0 -155.5 31t-112.5 80t-67.5 111t-22.5 125zM231 1194h641v82h-641v-82zM258 319q0 -66 23.5 -113.5t60.5 -81.5t82 -50.5t86 -16.5q39 0 79 14.5t75.5 40t64.5 60.5t47 76v158q-10 25 -29.5 57.5t-50 63t-73.5 52t-103 21.5 q-59 0 -108.5 -23.5t-83 -61.5t-52 -89.5t-18.5 -106.5z" />
<glyph unicode="&#x102;" horiz-adv-x="1499" d="M61 0h95l180 422h706l197 -422h199l-668 1434h-102zM375 514l295 690h8l321 -690h-624zM449 1868q0 -57 22.5 -108.5t63 -89.5t95 -59.5t120.5 -21.5q63 0 118.5 21.5t96.5 59.5t63.5 89t22.5 109h-86q-4 -92 -66.5 -148.5t-148.5 -56.5q-84 0 -146.5 56.5t-68.5 148.5 h-86z" />
<glyph unicode="&#x103;" horiz-adv-x="1105" d="M82 322q0 66 24.5 131t73.5 117.5t121 85t164 32.5t175 -36t136 -101v88q0 168 -50 250t-183 82q-57 0 -100.5 -14.5t-77 -40t-62.5 -63.5t-57 -85l-107 106q29 31 60.5 62t78 55.5t110 40t153.5 15.5q150 0 231.5 -42t119.5 -110t44 -156t6 -180v-559h-166v100 q-59 -57 -151.5 -91t-184.5 -34q-88 0 -155.5 31t-112.5 80t-67.5 111t-22.5 125zM252 1458q0 -57 22.5 -108.5t63.5 -89t95 -59t120 -21.5q63 0 118.5 21.5t96.5 59t63.5 89t22.5 108.5h-86q-4 -92 -66.5 -148.5t-148.5 -56.5q-84 0 -146.5 56.5t-68.5 148.5h-86zM258 319 q0 -66 23.5 -113.5t60.5 -81.5t82 -50.5t86 -16.5q39 0 79 14.5t75.5 40t64.5 60.5t47 76v158q-10 25 -29.5 57.5t-50 63t-73.5 52t-103 21.5q-59 0 -108.5 -23.5t-83 -61.5t-52 -89.5t-18.5 -106.5z" />
<glyph unicode="&#x104;" horiz-adv-x="1499" d="M61 0h95l180 422h706l197 -422h100l-94 -68q-55 -41 -101 -90t-46 -108q0 -70 48 -96.5t103 -26.5q47 0 93.5 16.5t78.5 40.5l-22 56q-20 -10 -51 -22.5t-60 -12.5q-43 0 -54 26.5t-11 38.5q0 35 18.5 68t49 64.5t69.5 60t78 53.5l-668 1434h-102zM375 514l295 690h8 l321 -690h-624z" />
<glyph unicode="&#x105;" horiz-adv-x="1105" d="M82 322q0 66 24.5 131t73.5 117.5t121 85t164 32.5t175 -36t136 -101v88q0 168 -50 250t-183 82q-57 0 -100.5 -14.5t-77 -40t-62.5 -63.5t-57 -85l-107 106q29 31 60.5 62t78 55.5t110 40t153.5 15.5q150 0 231.5 -42t119.5 -110t44 -156t6 -180v-559h-166v100 q-59 -57 -151.5 -91t-184.5 -34q-88 0 -155.5 31t-112.5 80t-67.5 111t-22.5 125zM258 319q0 -66 23.5 -113.5t60.5 -81.5t82 -50.5t86 -16.5q39 0 79 14.5t75.5 40t64.5 60.5t47 76v158q-10 25 -29.5 57.5t-50 63t-73.5 52t-103 21.5q-59 0 -108.5 -23.5t-83 -61.5 t-52 -89.5t-18.5 -106.5zM602 -266q0 -70 48 -96.5t104 -26.5q47 0 93 16.5t79 40.5l-23 56q-20 -10 -51 -22.5t-59 -12.5q-43 0 -54.5 26.5t-11.5 38.5q0 35 18.5 68t49 64.5t69.5 60t78 53.5h-98l-94 -68q-55 -41 -101.5 -90t-46.5 -108z" />
<glyph unicode="&#x106;" horiz-adv-x="1554" d="M102 731q0 -143 46.5 -279.5t142.5 -242t245.5 -170t356.5 -64.5q131 0 234.5 25t180 60.5t128 76.5t77.5 72l-61 55q-209 -197 -496 -196q-160 0 -282.5 55t-204.5 147t-124 213t-42 252q0 139 44 255t124 200t189.5 131t238.5 47q88 0 161 -20.5t129 -53t92 -74.5 t50 -85h152q-31 70 -79 129t-120 102t-168 67.5t-219 24.5q-178 0 -324.5 -51t-251 -146.5t-162 -229.5t-57.5 -300zM578 1608l170 260h227l-318 -260h-79z" />
<glyph unicode="&#x107;" horiz-adv-x="1114" d="M102 518q0 -115 37 -214t105.5 -172t165 -115t217.5 -42q135 0 236.5 45.5t170.5 98.5l-59 78q-72 -59 -142.5 -87t-154.5 -28q-74 0 -142.5 22.5t-122 72.5t-85 133t-31.5 204q0 125 35 212t87 139.5t115.5 76t120.5 23.5q94 0 164 -49.5t92 -120.5h142 q-20 74 -65.5 122t-104 77.5t-125 41t-127.5 11.5q-129 0 -227.5 -42t-166 -114t-101.5 -168t-34 -205zM358 1198l170 260h228l-318 -260h-80z" />
<glyph unicode="&#x108;" horiz-adv-x="1554" d="M102 731q0 -143 46.5 -279.5t142.5 -242t245.5 -170t356.5 -64.5q131 0 234.5 25t180 60.5t128 76.5t77.5 72l-61 55q-209 -197 -496 -196q-160 0 -282.5 55t-204.5 147t-124 213t-42 252q0 139 44 255t124 200t189.5 131t238.5 47q88 0 161 -20.5t129 -53t92 -74.5 t50 -85h152q-31 70 -79 129t-120 102t-168 67.5t-219 24.5q-178 0 -324.5 -51t-251 -146.5t-162 -229.5t-57.5 -300zM420 1571l49 -62l24 14q24 13 57.5 34.5t73.5 45t73.5 45t56.5 34.5l22 14l23 -14q23 -13 56.5 -33.5t73.5 -45t73 -45.5l57 -36l22 -15l52 64l-23 22 q-23 23 -56.5 55.5t-73.5 71.5t-74 72t-56 54l-23 22h-102l-23 -23q-23 -23 -56.5 -55.5t-73.5 -71.5t-73.5 -71.5t-56 -55t-22.5 -20.5z" />
<glyph unicode="&#x109;" horiz-adv-x="1114" d="M102 518q0 -115 37 -214t105.5 -172t165 -115t217.5 -42q135 0 236.5 45.5t170.5 98.5l-59 78q-72 -59 -142.5 -87t-154.5 -28q-74 0 -142.5 22.5t-122 72.5t-85 133t-31.5 204q0 125 35 212t87 139.5t115.5 76t120.5 23.5q94 0 164 -49.5t92 -120.5h142 q-20 74 -65.5 122t-104 77.5t-125 41t-127.5 11.5q-129 0 -227.5 -42t-166 -114t-101.5 -168t-34 -205zM199 1161l49 -61l23 13q24 13 57.5 34.5t73.5 45.5t74 45.5t56 34.5l23 13l23 -13q23 -13 56.5 -33.5t73.5 -45.5t73 -46l57 -36l22 -14l51 63l-22 23 q-23 23 -56.5 55.5t-73.5 71.5t-74 71.5t-56 54.5l-23 21h-102l-23 -22q-23 -23 -56.5 -55.5t-73.5 -71.5t-73.5 -72t-56 -55.5t-22.5 -20.5z" />
<glyph unicode="&#x10a;" horiz-adv-x="1554" d="M102 731q0 -143 46.5 -279.5t142.5 -242t245.5 -170t356.5 -64.5q131 0 234.5 25t180 60.5t128 76.5t77.5 72l-61 55q-209 -197 -496 -196q-160 0 -282.5 55t-204.5 147t-124 213t-42 252q0 139 44 255t124 200t189.5 131t238.5 47q88 0 161 -20.5t129 -53t92 -74.5 t50 -85h152q-31 70 -79 129t-120 102t-168 67.5t-219 24.5q-178 0 -324.5 -51t-251 -146.5t-162 -229.5t-57.5 -300zM666 1757q0 -45 32.5 -77.5t77.5 -32.5t78 32.5t33 77.5t-33 78t-78 33t-77.5 -33t-32.5 -78z" />
<glyph unicode="&#x10b;" horiz-adv-x="1114" d="M102 518q0 -115 37 -214t105.5 -172t165 -115t217.5 -42q135 0 236.5 45.5t170.5 98.5l-59 78q-72 -59 -142.5 -87t-154.5 -28q-74 0 -142.5 22.5t-122 72.5t-85 133t-31.5 204q0 125 35 212t87 139.5t115.5 76t120.5 23.5q94 0 164 -49.5t92 -120.5h142 q-20 74 -65.5 122t-104 77.5t-125 41t-127.5 11.5q-129 0 -227.5 -42t-166 -114t-101.5 -168t-34 -205zM446 1348q0 -45 33 -78t78 -33t78 33t33 78t-33 77.5t-78 32.5t-78 -32.5t-33 -77.5z" />
<glyph unicode="&#x10c;" horiz-adv-x="1554" d="M102 731q0 -143 46.5 -279.5t142.5 -242t245.5 -170t356.5 -64.5q131 0 234.5 25t180 60.5t128 76.5t77.5 72l-61 55q-209 -197 -496 -196q-160 0 -282.5 55t-204.5 147t-124 213t-42 252q0 139 44 255t124 200t189.5 131t238.5 47q88 0 161 -20.5t129 -53t92 -74.5 t50 -85h152q-31 70 -79 129t-120 102t-168 67.5t-219 24.5q-178 0 -324.5 -51t-251 -146.5t-162 -229.5t-57.5 -300zM420 1806l49 62l24 -14q24 -13 57.5 -34.5t73.5 -45t73.5 -45t56.5 -34.5l22 -14q0 -2 22.5 12.5t56.5 35t74 45t73 46.5l57 35l22 15l52 -64l-23 -22 q-23 -23 -56.5 -55.5t-73.5 -71.5t-74 -72t-56 -54l-23 -22h-102l-23 23q-23 23 -56.5 55.5t-73.5 71.5t-73.5 71.5t-56.5 54.5z" />
<glyph unicode="&#x10d;" horiz-adv-x="1114" d="M102 518q0 -115 37 -214t105.5 -172t165 -115t217.5 -42q135 0 236.5 45.5t170.5 98.5l-59 78q-72 -59 -142.5 -87t-154.5 -28q-74 0 -142.5 22.5t-122 72.5t-85 133t-31.5 204q0 125 35 212t87 139.5t115.5 76t120.5 23.5q94 0 164 -49.5t92 -120.5h142 q-20 74 -65.5 122t-104 77.5t-125 41t-127.5 11.5q-129 0 -227.5 -42t-166 -114t-101.5 -168t-34 -205zM199 1397l49 61l23 -13q24 -13 57.5 -34.5t73.5 -45.5t74 -45.5t56 -34.5l23 -13q0 -2 22.5 12t56.5 34.5t74 45.5t73 46l57 36l22 14l51 -63l-22 -23 q-23 -23 -56.5 -55.5t-73.5 -71.5t-74 -71.5t-56 -54.5l-23 -21h-102l-23 22q-23 23 -56.5 55.5t-73.5 71.5t-73.5 72t-56.5 54z" />
<glyph unicode="&#x10e;" horiz-adv-x="1566" d="M266 0v1434h471q170 0 311.5 -54.5t243 -149.5t157.5 -226.5t56 -282.5q0 -158 -58 -290t-159.5 -228.5t-237 -149.5t-288.5 -53h-496zM426 1806l49 62l24 -14q24 -13 57.5 -34.5t73.5 -45t73.5 -45t56.5 -34.5l22 -14q0 -2 22.5 12.5t56.5 35t74 45t74 46.5l56 35l22 15 l52 -64l-23 -22q-23 -23 -56.5 -55.5t-73.5 -71.5t-73.5 -72t-56.5 -54l-22 -22h-103l-22 23q-23 23 -57 55.5t-73.5 71.5t-73.5 71.5t-56 54.5zM453 90h225q168 0 285.5 56.5t193.5 146.5t111 201.5t35 222.5q0 123 -41 236.5t-120 200.5t-196 138t-268 51h-225v-1253z" />
<glyph unicode="&#x10f;" horiz-adv-x="1523" d="M102 514q0 -123 35 -222t97.5 -170t148.5 -109t188 -38q242 0 320 191h8v-166h174v1434h-174v-578h-8q-20 53 -54 89t-77 58.5t-91 33t-98 10.5q-102 0 -188 -38t-148.5 -108t-97.5 -168t-35 -219zM297 510q0 117 25.5 199t69.5 134t101.5 75.5t120.5 23.5 q57 0 108.5 -23.5t90.5 -69.5t62.5 -111.5t23.5 -149.5v-178q0 -68 -22.5 -128.5t-60.5 -104.5t-90 -69.5t-112 -25.5q-66 0 -123 23.5t-100 74.5t-68.5 133t-25.5 197zM1165 903h74l121 529h-195v-529z" />
<glyph unicode="&#x110;" horiz-adv-x="1609" d="M20 678v82h226v674h471q170 0 312 -55.5t243.5 -152t158 -229.5t56.5 -286q0 -156 -59.5 -286t-161 -224.5t-236.5 -147.5t-289 -53h-495v678h-226zM432 90h225q168 0 286 57.5t193.5 148.5t110.5 203.5t35 223.5q0 125 -41 237.5t-120 197.5t-195.5 135t-268.5 50h-225 v-583h230v-82h-230v-588z" />
<glyph unicode="&#x111;" horiz-adv-x="1236" d="M102 514q0 -123 35 -222t97.5 -170t148.5 -109t188 -38q242 0 320 191h8v-166h174v1176h162v84h-162v174h-174v-174h-305v-84h305v-320h-8q-20 53 -54 89t-77 58.5t-91 33t-98 10.5q-102 0 -188 -38t-148.5 -108t-97.5 -168t-35 -219zM297 510q0 117 25.5 199t69.5 134 t101.5 75.5t120.5 23.5q57 0 108.5 -23.5t90.5 -69.5t62.5 -111.5t23.5 -149.5v-178q0 -68 -22.5 -128.5t-60.5 -104.5t-90 -69.5t-112 -25.5q-66 0 -123 23.5t-100 74.5t-68.5 133t-25.5 197z" />
<glyph unicode="&#x112;" d="M246 0h925v113h-739v600h635v94h-635v514h739v113h-925v-1434zM295 1604h641v82h-641v-82z" />
<glyph unicode="&#x113;" horiz-adv-x="1175" d="M102 518q0 -102 32 -199.5t96.5 -174t164 -123t234.5 -46.5q131 0 241.5 46.5t192.5 132.5l-66 65q-43 -37 -80.5 -67.5t-76.5 -51t-81 -32t-93 -11.5q-57 0 -122 17.5t-120 62.5t-92 125t-37 205h778v43q0 137 -39 237.5t-105.5 166t-154.5 98t-186 32.5 q-104 0 -192.5 -35.5t-154 -104t-102.5 -166t-37 -220.5zM266 1194h641v82h-641v-82zM295 549q0 82 17.5 158.5t53 136t91 95.5t131.5 36q145 0 226 -113.5t81 -312.5h-600z" />
<glyph unicode="&#x114;" d="M246 0h925v113h-739v600h635v94h-635v514h739v113h-925v-1434zM315 1868q0 -57 22.5 -108.5t63.5 -89.5t95.5 -59.5t119.5 -21.5q63 0 119 21.5t96.5 59.5t63.5 89t23 109h-87q-4 -92 -66.5 -148.5t-148.5 -56.5q-84 0 -146 56.5t-69 148.5h-86z" />
<glyph unicode="&#x115;" horiz-adv-x="1175" d="M102 518q0 -102 32 -199.5t96.5 -174t164 -123t234.5 -46.5q131 0 241.5 46.5t192.5 132.5l-66 65q-43 -37 -80.5 -67.5t-76.5 -51t-81 -32t-93 -11.5q-57 0 -122 17.5t-120 62.5t-92 125t-37 205h778v43q0 137 -39 237.5t-105.5 166t-154.5 98t-186 32.5 q-104 0 -192.5 -35.5t-154 -104t-102.5 -166t-37 -220.5zM287 1458q0 -57 22.5 -108.5t63.5 -89t95 -59t120 -21.5q63 0 118.5 21.5t96.5 59t63.5 89t22.5 108.5h-86q-4 -92 -66.5 -148.5t-148.5 -56.5q-84 0 -146.5 56.5t-68.5 148.5h-86zM295 549q0 82 17.5 158.5t53 136 t91 95.5t131.5 36q145 0 226 -113.5t81 -312.5h-600z" />
<glyph unicode="&#x116;" d="M246 0h925v113h-739v600h635v94h-635v514h739v113h-925v-1434zM506 1757q0 -45 32.5 -77.5t77.5 -32.5t78 32.5t33 77.5t-32.5 78t-78.5 33q-45 0 -77.5 -33t-32.5 -78z" />
<glyph unicode="&#x117;" horiz-adv-x="1175" d="M102 518q0 -102 32 -199.5t96.5 -174t164 -123t234.5 -46.5q131 0 241.5 46.5t192.5 132.5l-66 65q-43 -37 -80.5 -67.5t-76.5 -51t-81 -32t-93 -11.5q-57 0 -122 17.5t-120 62.5t-92 125t-37 205h778v43q0 137 -39 237.5t-105.5 166t-154.5 98t-186 32.5 q-104 0 -192.5 -35.5t-154 -104t-102.5 -166t-37 -220.5zM295 549q0 82 17.5 158.5t53 136t91 95.5t131.5 36q145 0 226 -113.5t81 -312.5h-600zM477 1348q0 -45 33 -78t78 -33t77.5 33t32.5 78t-32.5 77.5t-77.5 32.5t-78 -32.5t-33 -77.5z" />
<glyph unicode="&#x118;" d="M246 0h827l-94 -68q-55 -41 -101.5 -90t-46.5 -108q0 -70 48.5 -96.5t103.5 -26.5q47 0 93 16.5t79 40.5l-22 56q-20 -10 -51 -22.5t-60 -12.5q-43 0 -54.5 26.5t-11.5 38.5q0 35 18.5 68t49.5 64.5t70 60t77 53.5v113h-739v600h635v94h-635v514h739v113h-925v-1434z" />
<glyph unicode="&#x119;" horiz-adv-x="1175" d="M102 518q0 -102 31 -198.5t94.5 -172t159.5 -123t227 -49.5l-59 -43q-55 -41 -101 -90t-46 -108q0 -70 48 -96.5t103 -26.5q47 0 93 16.5t79 40.5l-22 56q-20 -10 -51 -22.5t-60 -12.5q-43 0 -54.5 26.5t-11.5 38.5q0 31 15.5 61.5t41 59.5t59.5 55.5t69 51.5 q209 29 346 172l-66 65q-43 -37 -80.5 -67.5t-76.5 -51t-81 -32t-93 -11.5q-57 0 -122 17.5t-120 62.5t-92 125t-37 205h778v43q0 137 -39 237.5t-105.5 166t-154.5 98t-186 32.5q-104 0 -192.5 -35.5t-154 -104t-102.5 -166t-37 -220.5zM295 549q0 82 17.5 158.5t53 136 t91 95.5t131.5 36q145 0 226 -113.5t81 -312.5h-600z" />
<glyph unicode="&#x11a;" d="M246 0h925v113h-739v600h635v94h-635v514h739v113h-925v-1434zM258 1806l49 62l24 -14q24 -13 57.5 -34.5t73.5 -45t73.5 -45t56.5 -34.5l22 -14q0 -2 22.5 12.5t56.5 35t74 45t74 46.5l56 35l23 15l51 -64l-23 -22q-23 -23 -56.5 -55.5t-73.5 -71.5t-73.5 -72t-56.5 -54 l-22 -22h-103l-22 23q-23 23 -56.5 55.5t-73.5 71.5t-74 71.5t-56 54.5z" />
<glyph unicode="&#x11b;" horiz-adv-x="1175" d="M102 518q0 -102 32 -199.5t96.5 -174t164 -123t234.5 -46.5q131 0 241.5 46.5t192.5 132.5l-66 65q-43 -37 -80.5 -67.5t-76.5 -51t-81 -32t-93 -11.5q-57 0 -122 17.5t-120 62.5t-92 125t-37 205h778v43q0 137 -39 237.5t-105.5 166t-154.5 98t-186 32.5 q-104 0 -192.5 -35.5t-154 -104t-102.5 -166t-37 -220.5zM229 1397l50 61l23 -13q24 -13 57.5 -34.5t73.5 -45.5t74 -45.5t56 -34.5l23 -13q0 -2 22.5 12t56 34.5t73.5 45.5t74 46l56 36l23 14l51 -63l-22 -23q-23 -23 -57 -55.5t-73.5 -71.5t-73.5 -71.5t-57 -54.5l-22 -21 h-102l-23 22q-23 23 -56.5 55.5t-73.5 71.5t-74 72t-56 54zM295 549q0 82 17.5 158.5t53 136t91 95.5t131.5 36q145 0 226 -113.5t81 -312.5h-600z" />
<glyph unicode="&#x11c;" horiz-adv-x="1673" d="M123 737q0 -145 46 -281.5t141.5 -244t242.5 -172t352 -64.5q154 0 272.5 34t196.5 75v-84h176v639h-405v-84h229v-371q-92 -59 -188 -87.5t-219 -28.5q-162 0 -283 49t-201 136t-119.5 207t-39.5 263q0 141 37.5 260t113.5 205t185.5 133t254.5 47q96 0 180.5 -20.5 t150 -53t107.5 -74.5t54 -85h147q-18 45 -62 101t-120 105.5t-187.5 83t-262.5 33.5q-174 0 -320.5 -49t-253 -141t-166 -226.5t-59.5 -304.5zM479 1571l49 -62l24 14q24 13 57.5 34.5t73.5 45t74 45t56 34.5l23 14l22 -14q23 -13 56.5 -33.5t73.5 -45t74 -45.5l56 -36 l23 -15l51 64l-23 22q-23 23 -56.5 55.5t-73.5 71.5t-73.5 72t-56.5 54l-22 22h-103l-22 -23q-23 -23 -56.5 -55.5t-73.5 -71.5t-74 -71.5t-56.5 -55t-22.5 -20.5z" />
<glyph unicode="&#x11d;" d="M102 514q0 -123 34 -222t95.5 -170t146.5 -109t189 -38q115 0 200 45.5t120 143.5h8v-250q0 -94 -22.5 -159.5t-62.5 -106.5t-94 -59.5t-116 -18.5q-109 0 -175.5 55.5t-121.5 147.5l-113 -103q14 -18 45 -48t78 -59.5t113 -51t149 -21.5q156 0 252.5 44t149.5 118 t72.5 169t19.5 197v1006h-174v-160h-8q-25 86 -106 134.5t-212 48.5q-104 0 -190 -38t-147.5 -108t-95.5 -168t-34 -219zM258 1161l49 -61l24 13q24 13 57.5 34.5t73.5 45.5t73.5 45.5t56.5 34.5l22 13l23 -13q23 -13 56.5 -33.5t73.5 -45.5t74 -46l56 -36l23 -14l51 63 l-23 23q-23 23 -56.5 55.5t-73.5 71.5t-73.5 71.5t-56.5 54.5l-22 21h-103l-22 -22q-23 -23 -56.5 -55.5t-73.5 -71.5t-74 -72t-56.5 -55.5t-22.5 -20.5zM291 518q0 143 39 228t91 130.5t106.5 58.5t84.5 13q68 0 121 -29.5t89 -80t54.5 -116t18.5 -134.5v-152 q0 -86 -23.5 -151.5t-62.5 -110.5t-90 -68.5t-107 -23.5q-49 0 -105 17.5t-104.5 64.5t-80 133t-31.5 221z" />
<glyph unicode="&#x11e;" horiz-adv-x="1673" d="M123 737q0 -145 46 -281.5t141.5 -244t242.5 -172t352 -64.5q154 0 272.5 34t196.5 75v-84h176v639h-405v-84h229v-371q-92 -59 -188 -87.5t-219 -28.5q-162 0 -283 49t-201 136t-119.5 207t-39.5 263q0 141 37.5 260t113.5 205t185.5 133t254.5 47q96 0 180.5 -20.5 t150 -53t107.5 -74.5t54 -85h147q-18 45 -62 101t-120 105.5t-187.5 83t-262.5 33.5q-174 0 -320.5 -49t-253 -141t-166 -226.5t-59.5 -304.5zM535 1868q0 -57 22.5 -108.5t63.5 -89.5t95 -59.5t120 -21.5q63 0 118.5 21.5t96.5 59.5t63.5 89t22.5 109h-86 q-4 -92 -66.5 -148.5t-148.5 -56.5q-84 0 -146.5 56.5t-68.5 148.5h-86z" />
<glyph unicode="&#x11f;" d="M102 514q0 -123 34 -222t95.5 -170t146.5 -109t189 -38q115 0 200 45.5t120 143.5h8v-250q0 -94 -22.5 -159.5t-62.5 -106.5t-94 -59.5t-116 -18.5q-109 0 -175.5 55.5t-121.5 147.5l-113 -103q14 -18 45 -48t78 -59.5t113 -51t149 -21.5q156 0 252.5 44t149.5 118 t72.5 169t19.5 197v1006h-174v-160h-8q-25 86 -106 134.5t-212 48.5q-104 0 -190 -38t-147.5 -108t-95.5 -168t-34 -219zM291 518q0 143 39 228t91 130.5t106.5 58.5t84.5 13q68 0 121 -29.5t89 -80t54.5 -116t18.5 -134.5v-152q0 -86 -23.5 -151.5t-62.5 -110.5t-90 -68.5 t-107 -23.5q-49 0 -105 17.5t-104.5 64.5t-80 133t-31.5 221zM315 1458q0 -57 22.5 -108.5t63.5 -89t95.5 -59t119.5 -21.5q63 0 119 21.5t96.5 59t63.5 89t23 108.5h-87q-4 -92 -66.5 -148.5t-148.5 -56.5q-84 0 -146 56.5t-69 148.5h-86z" />
<glyph unicode="&#x120;" horiz-adv-x="1673" d="M123 737q0 -145 46 -281.5t141.5 -244t242.5 -172t352 -64.5q154 0 272.5 34t196.5 75v-84h176v639h-405v-84h229v-371q-92 -59 -188 -87.5t-219 -28.5q-162 0 -283 49t-201 136t-119.5 207t-39.5 263q0 141 37.5 260t113.5 205t185.5 133t254.5 47q96 0 180.5 -20.5 t150 -53t107.5 -74.5t54 -85h147q-18 45 -62 101t-120 105.5t-187.5 83t-262.5 33.5q-174 0 -320.5 -49t-253 -141t-166 -226.5t-59.5 -304.5zM725 1757q0 -45 33 -77.5t78 -32.5t77.5 32.5t32.5 77.5t-32.5 78t-77.5 33t-78 -33t-33 -78z" />
<glyph unicode="&#x121;" d="M102 514q0 -123 34 -222t95.5 -170t146.5 -109t189 -38q115 0 200 45.5t120 143.5h8v-250q0 -94 -22.5 -159.5t-62.5 -106.5t-94 -59.5t-116 -18.5q-109 0 -175.5 55.5t-121.5 147.5l-113 -103q14 -18 45 -48t78 -59.5t113 -51t149 -21.5q156 0 252.5 44t149.5 118 t72.5 169t19.5 197v1006h-174v-160h-8q-25 86 -106 134.5t-212 48.5q-104 0 -190 -38t-147.5 -108t-95.5 -168t-34 -219zM291 518q0 143 39 228t91 130.5t106.5 58.5t84.5 13q68 0 121 -29.5t89 -80t54.5 -116t18.5 -134.5v-152q0 -86 -23.5 -151.5t-62.5 -110.5t-90 -68.5 t-107 -23.5q-49 0 -105 17.5t-104.5 64.5t-80 133t-31.5 221zM506 1348q0 -45 32.5 -78t77.5 -33t78 33t33 78t-32.5 77.5t-78.5 32.5q-45 0 -77.5 -32.5t-32.5 -77.5z" />
<glyph unicode="&#x122;" horiz-adv-x="1673" d="M123 741q0 -145 46 -282t141.5 -245t239.5 -173.5t343 -65.5q168 0 283.5 33t197.5 76v-84h176l-2 639h-403v-84h229v-371q-92 -59 -189.5 -87.5t-209.5 -28.5q-160 0 -282 55t-202.5 146t-121.5 210t-41 246q0 141 43 260t122.5 204t193.5 133t255 48q70 0 136.5 -20.5 t121.5 -53t94 -75.5t52 -86h192q-20 49 -61 105t-115 104.5t-184.5 81t-270.5 32.5q-166 0 -308 -51t-248.5 -145.5t-167 -226.5t-60.5 -294zM811 -100v-351h70l123 351h-193z" />
<glyph unicode="&#x123;" d="M102 514q0 -123 34 -222t95.5 -170t146.5 -109t189 -38q115 0 200 45.5t120 143.5h8v-250q0 -94 -22.5 -159.5t-62.5 -106.5t-94 -59.5t-116 -18.5q-109 0 -175.5 55.5t-121.5 147.5l-113 -103q14 -18 45 -48t78 -59.5t113 -51t149 -21.5q156 0 252.5 44t149.5 118 t72.5 169t19.5 197v1006h-174v-160h-8q-25 86 -106 134.5t-212 48.5q-104 0 -190 -38t-147.5 -108t-95.5 -168t-34 -219zM297 518q0 143 38 227t89 128.5t104.5 56.5t83.5 12q68 0 121 -28.5t89 -78t54.5 -114t18.5 -133.5v-152q0 -86 -23.5 -151.5t-62.5 -110.5t-90 -68.5 t-107 -23.5q-49 0 -104 17.5t-102.5 64.5t-78 133t-30.5 221zM475 1114h193v344h-70z" />
<glyph unicode="&#x124;" horiz-adv-x="1722" d="M246 0h186v713h858v-713h187v1434h-187v-627h-858v627h-186v-1434zM504 1571l49 -62l24 14q24 13 57.5 34.5t73.5 45t73.5 45t56.5 34.5l22 14l23 -14q23 -13 56.5 -33.5t73.5 -45t73 -45.5l57 -36l22 -15l52 64l-23 22q-23 23 -56.5 55.5t-73.5 71.5t-74 72t-56 54 l-23 22h-102l-23 -23q-23 -23 -56.5 -55.5t-73.5 -71.5t-73.5 -71.5t-56 -55t-22.5 -20.5z" />
<glyph unicode="&#x125;" horiz-adv-x="1165" d="M164 0h174v592q0 41 6 100.5t34 114.5t83 95t153 40q70 0 112 -25.5t64.5 -68.5t29.5 -100.5t7 -118.5v-629h174v676q0 115 -32.5 187.5t-81.5 113.5t-107.5 55.5t-111.5 14.5q-72 0 -151 -28t-148 -106l-23 -28h-8v549h-174v-1434zM170 1559l49 -62l24 13q24 13 57.5 35 t73.5 45.5t73.5 45t56.5 34.5l22 13l23 -13q23 -13 56.5 -33.5t73.5 -45t74 -46.5l56 -36l22 -14l52 64l-23 22q-23 23 -56.5 55.5t-73.5 71.5t-73.5 71.5t-56.5 54.5l-22 21h-103l-22 -22q-23 -23 -57 -55.5t-73.5 -71.5t-73.5 -71.5t-56.5 -55t-22.5 -20.5z" />
<glyph unicode="&#x126;" horiz-adv-x="1722" d="M74 1024h172v-1024h186v717h858v-717h187v1024h176v82h-176v328h-187v-328h-858v328h-186v-328h-172v-82zM432 807v217h858v-217h-858z" />
<glyph unicode="&#x127;" horiz-adv-x="1165" d="M18 1194h146v-1194h174v592q0 41 6 100.5t34 114.5t83 95t153 40q70 0 112 -25.5t64.5 -68.5t29.5 -100.5t7 -118.5v-629h174v676q0 115 -32.5 187.5t-81.5 113.5t-107.5 55.5t-111.5 14.5q-72 0 -151 -28t-148 -106l-23 -28h-8v309h321v82h-321v158h-174v-158h-146v-82z " />
<glyph unicode="&#x128;" horiz-adv-x="841" d="M39 1647l55 -31q23 39 58.5 64.5t70.5 25.5q27 0 52.5 -8t48.5 -19q74 -29 135 -51t114 -22q72 0 132.5 48t95.5 156l-62 29q-23 -53 -57.5 -72.5t-69.5 -19.5q-25 0 -48 6t-42 10q-88 29 -150.5 54.5t-109.5 25.5q-78 0 -136 -56t-87 -140zM328 0h186v1434h-186v-1434z " />
<glyph unicode="&#x129;" horiz-adv-x="630" d="M-66 1237l56 -31q23 39 58.5 64.5t70.5 25.5q43 0 90 -15t93 -34.5t89 -35t78 -15.5q156 0 227 205l-61 29q-23 -53 -57.5 -73t-69.5 -20q-43 0 -91 15.5t-94.5 33t-87 33t-67.5 15.5q-86 0 -145.5 -56.5t-88.5 -140.5zM229 0h174v1024h-174v-1024z" />
<glyph unicode="&#x12a;" horiz-adv-x="841" d="M100 1604h641v82h-641v-82zM328 0h186v1434h-186v-1434z" />
<glyph unicode="&#x12b;" horiz-adv-x="630" d="M-4 1194h641v82h-641v-82zM229 0h174v1024h-174v-1024z" />
<glyph unicode="&#x12c;" horiz-adv-x="841" d="M119 1868q0 -57 22.5 -108.5t63.5 -89.5t95 -59.5t120 -21.5q63 0 118.5 21.5t96.5 59.5t63.5 89t22.5 109h-86q-4 -92 -66.5 -148.5t-148.5 -56.5q-84 0 -146.5 56.5t-68.5 148.5h-86zM328 0h186v1434h-186v-1434z" />
<glyph unicode="&#x12d;" horiz-adv-x="630" d="M14 1859q0 -57 22.5 -108.5t63.5 -89t95.5 -59t119.5 -21.5q63 0 118.5 21.5t96.5 59t63.5 89t22.5 108.5h-86q-4 -92 -66.5 -148.5t-148.5 -56.5q-84 0 -146.5 56.5t-68.5 148.5h-86zM205 1348q0 -45 32.5 -78t77.5 -33t78 33t33 78t-33 77.5t-78 32.5t-77.5 -32.5 t-32.5 -77.5zM229 0h174v1024h-174v-1024z" />
<glyph unicode="&#x12e;" horiz-adv-x="841" d="M174 -266q0 -70 48 -96.5t104 -26.5q47 0 93 16.5t79 40.5l-23 56q-20 -10 -51 -22.5t-59 -12.5q-43 0 -54.5 26.5t-11.5 38.5q0 35 18.5 68t49 64.5t69.5 60t78 53.5v1434h-186v-1434h88l-94 -68q-55 -41 -101.5 -90t-46.5 -108z" />
<glyph unicode="&#x12f;" horiz-adv-x="630" d="M61 -262q0 -70 48.5 -96.5t103.5 -26.5q47 0 93 16.5t79 40.5l-23 56q-20 -10 -50.5 -22.5t-59.5 -12.5q-43 0 -54.5 26.5t-11.5 38.5q0 33 18.5 66t48.5 63.5t66.5 59t75.5 53.5h8v1024h-174v-1024h68l-88 -63q-55 -41 -101.5 -90.5t-46.5 -108.5zM205 1348 q0 -45 32.5 -78t77.5 -33t78 33t33 78t-33 77.5t-78 32.5t-77.5 -32.5t-32.5 -77.5z" />
<glyph unicode="&#x130;" horiz-adv-x="841" d="M309 1757q0 -45 33 -77.5t78 -32.5t77.5 32.5t32.5 77.5t-32.5 78t-77.5 33t-78 -33t-33 -78zM328 0h186v1434h-186v-1434z" />
<glyph unicode="&#x131;" horiz-adv-x="630" d="M205 1348q0 -45 32.5 -78t77.5 -33t78 33t33 78t-33 77.5t-78 32.5t-77.5 -32.5t-32.5 -77.5zM229 0h174v1024h-174v-1024z" />
<glyph unicode="&#x132;" horiz-adv-x="1910" d="M862 305q4 -158 102.5 -244t295.5 -86q141 0 223 42t122 106.5t50 140.5t10 142v1028h-186v-1035q0 -49 -3 -107.5t-23.5 -108.5t-62.5 -83.5t-120 -33.5q-68 0 -112 24.5t-69.5 61t-36.5 78.5t-11 75h-179zM328 0h186v1434h-186v-1434z" />
<glyph unicode="&#x133;" horiz-adv-x="1226" d="M508 -412q45 -59 105.5 -79.5t126.5 -20.5q45 0 97 16.5t97 62.5t75 127t30 210v1120h-177v-1212q0 -47 -4 -91.5t-17 -79t-39 -55t-67 -20.5q-51 0 -76.5 24.5t-47.5 77.5zM842 1348q0 -45 31.5 -78t79.5 -33q45 0 77.5 33t32.5 78t-32.5 77.5t-77.5 32.5 q-47 0 -79 -32.5t-32 -77.5zM205 1348q0 -45 32.5 -78t77.5 -33t78 33t33 78t-33 77.5t-78 32.5t-77.5 -32.5t-32.5 -77.5zM229 0h174v1024h-174v-1024z" />
<glyph unicode="&#x134;" horiz-adv-x="1069" d="M20 305q4 -158 102.5 -244t295.5 -86q141 0 223 42t122 106.5t50 140.5t10 142v1028h-186v-1035q0 -49 -3 -107.5t-23.5 -108.5t-62.5 -83.5t-120 -33.5q-68 0 -112 24.5t-69.5 61t-36.5 78.5t-11 75h-179zM354 1571l49 -62l24 14q24 13 57.5 34.5t73.5 45t74 45t56 34.5 l23 14l22 -14q23 -13 56.5 -33.5t73.5 -45t74 -45.5l56 -36l23 -15l51 64l-23 22q-23 23 -56.5 55.5t-73.5 71.5t-73.5 72t-56.5 54l-22 22h-103l-22 -23q-23 -23 -56.5 -55.5t-73.5 -71.5t-74 -71.5t-56.5 -55t-22.5 -20.5z" />
<glyph unicode="&#x135;" horiz-adv-x="595" d="M-123 -412q45 -59 105.5 -79.5t126.5 -20.5q45 0 97 16.5t97 62.5t75 127t30 210v1120h-177v-1212q0 -47 -4 -91.5t-17 -79t-39 -55t-67 -20.5q-51 0 -76.5 24.5t-47.5 77.5zM-59 1161l49 -61l29 17q30 17 72 43t87 53.5t76 46.5q29 -23 68 -23q27 0 43 8 q35 -23 74.5 -47t76.5 -47q41 -27 86 -53l51 63q-43 39 -82 78q-35 35 -73.5 73t-73.5 72q-20 51 -72 68q-2 2 -2 4l-2 2h-18h-8h-76l-23 -22q-23 -23 -56.5 -55.5t-73.5 -71.5t-73.5 -72t-56 -55.5t-22.5 -20.5z" />
<glyph unicode="&#x136;" horiz-adv-x="1482" d="M246 0h186v504l232 248l544 -752h213l-639 879l521 555h-103l-768 -807v807h-186v-1434zM725 -100v-351h70l123 351h-193z" />
<glyph unicode="&#x137;" horiz-adv-x="1097" d="M164 0h174v385l119 121l411 -506h230l-514 631l391 393h-133l-504 -508v918h-174v-1434zM498 -100v-351h69l123 351h-192z" />
<glyph unicode="&#x138;" horiz-adv-x="1097" d="M164 0h174v385l119 121l411 -506h230l-514 631l391 393h-133l-504 -508v508h-174v-1024z" />
<glyph unicode="&#x139;" d="M246 0v1434h186v-1321h739v-113h-925zM254 1608l170 260h227l-317 -260h-80z" />
<glyph unicode="&#x13a;" horiz-adv-x="583" d="M186 1593l170 260h228l-318 -260h-80zM205 0h174v1434h-174v-1434z" />
<glyph unicode="&#x13b;" d="M246 0v1434h186v-1321h739v-113h-925zM631 -100v-351h69l123 351h-192z" />
<glyph unicode="&#x13c;" horiz-adv-x="583" d="M199 -100v-351h69l123 351h-192zM205 0h174v1434h-174v-1434z" />
<glyph unicode="&#x13d;" d="M246 0v1434h186v-1321h739v-113h-925zM592 907h74l120 529h-194v-529z" />
<glyph unicode="&#x13e;" horiz-adv-x="854" d="M205 0h174v1434h-174v-1434zM502 905h73l121 529h-194v-529z" />
<glyph unicode="&#x13f;" d="M246 0v1434h186v-1321h739v-113h-925zM506 1167q0 -45 32.5 -77.5t77.5 -32.5t78 32.5t33 77.5t-32.5 78t-78.5 33q-45 0 -77.5 -33t-32.5 -78z" />
<glyph unicode="&#x140;" horiz-adv-x="1050" d="M205 0h174v1434h-174v-1434zM436 758q0 -45 33 -78t78 -33t77.5 33t32.5 78t-32.5 77.5t-77.5 32.5t-78 -32.5t-33 -77.5z" />
<glyph unicode="&#x141;" d="M53 516l193 131v787h186v-660l154 107l43 -62l-197 -133v-573h739v-113h-925v559l-152 -102z" />
<glyph unicode="&#x142;" horiz-adv-x="657" d="M41 516l41 -59l158 106v-563h174v682l202 137l-43 62l-161 -111v664h-172v-783z" />
<glyph unicode="&#x143;" horiz-adv-x="1740" d="M246 0h94v1096h8l1137 -1121h10v1459h-94v-1096h-8l-1137 1120h-10v-1458zM672 1608l170 260h227l-317 -260h-80z" />
<glyph unicode="&#x144;" horiz-adv-x="1189" d="M164 0h174v633q0 80 22.5 137t61.5 96t89 57.5t103 18.5q86 0 133.5 -34t69 -79t25.5 -90t4 -65v-674h174v664q0 37 -6 101t-40 126.5t-107.5 109t-209.5 46.5q-59 2 -132.5 -24t-145.5 -97l-33 -33h-8v131h-174v-1024zM395 1198l170 260h228l-318 -260h-80z" />
<glyph unicode="&#x145;" horiz-adv-x="1740" d="M246 0h94v1096h8l1137 -1121h10v1459h-94v-1096h-8l-1137 1120h-10v-1458zM811 -100v-351h70l123 351h-193z" />
<glyph unicode="&#x146;" horiz-adv-x="1189" d="M164 0h174v633q0 80 22.5 137t61.5 96t89 57.5t103 18.5q86 0 133.5 -34t69 -79t25.5 -90t4 -65v-674h174v664q0 37 -6 101t-40 126.5t-107.5 109t-209.5 46.5h-8q-59 0 -129.5 -26t-140.5 -95l-33 -33h-8v131h-174v-1024zM514 -100v-351h70l123 351h-193z" />
<glyph unicode="&#x147;" horiz-adv-x="1740" d="M246 0h94v1096h8l1137 -1121h10v1459h-94v-1096h-8l-1137 1120h-10v-1458zM512 1806l49 62l24 -14q24 -13 57.5 -34.5t73.5 -45t73.5 -45t56.5 -34.5l22 -14q0 -2 22.5 12.5t56.5 35t74 45t74 46.5l56 35l23 15l51 -64l-23 -22q-23 -23 -56.5 -55.5t-73.5 -71.5 t-73.5 -72t-56.5 -54l-22 -22h-103l-22 23q-23 23 -56.5 55.5t-73.5 71.5t-74 71.5t-56 54.5z" />
<glyph unicode="&#x148;" horiz-adv-x="1189" d="M164 0h174v633q0 80 22.5 137t61.5 96t89 57.5t103 18.5q86 0 133.5 -34t69 -79t25.5 -90t4 -65v-674h174v664q0 37 -6 101t-40 126.5t-107.5 109t-209.5 46.5q-59 2 -132.5 -24t-145.5 -97l-33 -33h-8v131h-174v-1024zM238 1397l49 61l23 -13q24 -13 57.5 -34.5 t73.5 -45.5t74 -45.5t56 -34.5l23 -13q0 -2 22.5 12t56.5 34.5t73.5 45.5t73.5 46l57 36l22 14l51 -63l-22 -23q-23 -23 -56.5 -55.5t-73.5 -71.5t-74 -71.5t-56 -54.5l-23 -21h-102l-23 22q-23 23 -56.5 55.5t-73.5 71.5t-73.5 72t-56.5 54z" />
<glyph unicode="&#x149;" horiz-adv-x="1189" d="M164 0h174v633q0 80 22.5 137t61.5 96t89 57.5t103 18.5q86 0 133.5 -34t69 -79t25.5 -90t4 -65v-674h174v664q0 37 -6 101t-40 126.5t-107.5 109t-209.5 46.5q-59 2 -132.5 -24t-145.5 -97l-33 -33h-8v131h-174v-1024zM473 1458h193v-344h-70z" />
<glyph unicode="&#x14c;" horiz-adv-x="1771" d="M102 717q0 -115 44 -245t138.5 -240.5t240 -183.5t347.5 -73q137 0 249 34t201 91.5t154.5 132t107.5 157.5t63.5 167t21.5 160q0 115 -47 245t-145.5 240.5t-249 183t-355.5 72.5q-203 0 -348 -71.5t-239.5 -181t-138.5 -240.5t-44 -248zM303 717q0 143 44 263t121 206 t181.5 134t227.5 48q121 0 228 -48t188 -134t128 -206t47 -263t-47 -263t-128 -206t-188.5 -134t-227.5 -48q-123 0 -227.5 48t-181.5 134t-121 206t-44 263zM565 1604h641v82h-641v-82z" />
<glyph unicode="&#x14d;" horiz-adv-x="1265" d="M102 510q0 106 38 203.5t106.5 171t168 118t222.5 44.5q121 0 218 -44.5t166 -118t105.5 -171t36.5 -203.5t-36.5 -203.5t-105.5 -171.5t-166 -117t-218 -43q-123 0 -222.5 44t-168 118t-106.5 171.5t-38 201.5zM297 510q0 -141 31.5 -230.5t82 -138.5t110 -66.5 t114.5 -17.5t114.5 17.5t108.5 66.5t80 138.5t31 230.5q0 143 -31 232t-80 138.5t-108.5 67t-114.5 17.5t-114.5 -17.5t-110 -67t-82 -138.5t-31.5 -232zM311 1194h641v82h-641v-82z" />
<glyph unicode="&#x14e;" horiz-adv-x="1771" d="M102 717q0 -115 44 -245t138.5 -240.5t240 -183.5t347.5 -73q137 0 249 34t201 91.5t154.5 132t107.5 157.5t63.5 167t21.5 160q0 115 -47 245t-145.5 240.5t-249 183t-355.5 72.5q-203 0 -348 -71.5t-239.5 -181t-138.5 -240.5t-44 -248zM303 717q0 143 44 263t121 206 t181.5 134t227.5 48q121 0 228 -48t188 -134t128 -206t47 -263t-47 -263t-128 -206t-188.5 -134t-227.5 -48q-123 0 -227.5 48t-181.5 134t-121 206t-44 263zM584 1868q0 -57 22.5 -108.5t63.5 -89.5t95 -59.5t120 -21.5q63 0 118.5 21.5t96.5 59.5t63.5 89t22.5 109h-86 q-4 -92 -66.5 -148.5t-148.5 -56.5q-84 0 -146.5 56.5t-68.5 148.5h-86z" />
<glyph unicode="&#x14f;" horiz-adv-x="1265" d="M102 510q0 106 38 203.5t106.5 171t168 118t222.5 44.5q121 0 218 -44.5t166 -118t105.5 -171t36.5 -203.5t-36.5 -203.5t-105.5 -171.5t-166 -117t-218 -43q-123 0 -222.5 44t-168 118t-106.5 171.5t-38 201.5zM297 510q0 -141 31.5 -230.5t82 -138.5t110 -66.5 t114.5 -17.5t114.5 17.5t108.5 66.5t80 138.5t31 230.5q0 143 -31 232t-80 138.5t-108.5 67t-114.5 17.5t-114.5 -17.5t-110 -67t-82 -138.5t-31.5 -232zM332 1458q0 -57 22.5 -108.5t63.5 -89t95 -59t120 -21.5q63 0 118.5 21.5t96.5 59t63.5 89t22.5 108.5h-86 q-4 -92 -66.5 -148.5t-148.5 -56.5q-84 0 -146.5 56.5t-68.5 148.5h-86z" />
<glyph unicode="&#x150;" horiz-adv-x="1771" d="M102 717q0 -115 44 -245t138.5 -240.5t240 -183.5t347.5 -73q137 0 249 34t201 91.5t154.5 132t107.5 157.5t63.5 167t21.5 160q0 115 -47 245t-145.5 240.5t-249 183t-355.5 72.5q-203 0 -348 -71.5t-239.5 -181t-138.5 -240.5t-44 -248zM303 717q0 143 44 263t121 206 t181.5 134t227.5 48q121 0 228 -48t188 -134t128 -206t47 -263t-47 -263t-128 -206t-188.5 -134t-227.5 -48q-123 0 -227.5 48t-181.5 134t-121 206t-44 263zM586 1608l104 260h228l-252 -260h-80zM852 1608l104 260h228l-252 -260h-80z" />
<glyph unicode="&#x151;" horiz-adv-x="1265" d="M102 510q0 106 38 203.5t106.5 171t168 118t222.5 44.5q121 0 218 -44.5t166 -118t105.5 -171t36.5 -203.5t-36.5 -203.5t-105.5 -171.5t-166 -117t-218 -43q-123 0 -222.5 44t-168 118t-106.5 171.5t-38 201.5zM297 510q0 -141 31.5 -230.5t82 -138.5t110 -66.5 t114.5 -17.5t114.5 17.5t108.5 66.5t80 138.5t31 230.5q0 143 -31 232t-80 138.5t-108.5 67t-114.5 17.5t-114.5 -17.5t-110 -67t-82 -138.5t-31.5 -232zM334 1198l104 260h228l-252 -260h-80zM600 1198l105 260h227l-252 -260h-80z" />
<glyph unicode="&#x152;" horiz-adv-x="2207" d="M121 717q0 -117 46 -247t141 -239.5t243.5 -182.5t353.5 -73q51 0 103.5 7.5t105.5 17.5h1032v113h-757v604h614v90h-614v512h720v115h-987q-57 12 -108 17t-109 5q-102 0 -211.5 -25.5t-210 -84t-183.5 -152.5t-134 -233q-23 -59 -34 -120t-11 -124zM326 717q0 51 3 96 t13 92q18 92 67.5 175t123 146.5t169 101.5t207.5 38q111 0 181.5 -28.5t113.5 -53.5v-1139q-43 -27 -113.5 -53t-181.5 -26q-113 0 -207 37.5t-166.5 101t-123 147.5t-70.5 176q-10 47 -13 93.5t-3 95.5z" />
<glyph unicode="&#x153;" horiz-adv-x="1994" d="M82 514q0 -109 35 -206t102.5 -171t163.5 -118t219 -44q141 0 252 57.5t182 160.5q72 -109 188.5 -163.5t252.5 -54.5q121 0 238.5 49.5t197.5 141.5l-58 61q-80 -82 -156.5 -125t-180.5 -43q-100 0 -173 37t-119 95.5t-67.5 130t-21.5 143.5v27h766v38q0 135 -39 233.5 t-104.5 162t-149.5 94.5t-176 31q-51 0 -107.5 -11.5t-110 -37t-101.5 -64.5t-83 -94q-33 35 -73.5 71.5t-93 66.5t-118 49.5t-145.5 19.5q-123 0 -219 -44t-163.5 -118t-102.5 -171.5t-35 -203.5zM276 514q0 143 30 233.5t77 141.5t105.5 70.5t115.5 19.5q55 0 114.5 -19.5 t109 -70.5t81 -141.5t31.5 -233.5t-31.5 -233.5t-81 -142.5t-109 -71.5t-114.5 -19.5q-57 0 -115.5 19.5t-105.5 71.5t-77 142.5t-30 233.5zM1137 563v25q0 80 21.5 151.5t60 125t92 84t116.5 30.5q61 0 114.5 -28.5t91.5 -83t60.5 -131.5t22.5 -173h-579z" />
<glyph unicode="&#x154;" horiz-adv-x="1470" d="M246 0h186v633h90q57 0 95 -10.5t69 -35t57.5 -63.5t63.5 -96l162 -240q31 -47 60.5 -86t64 -66.5t79 -44t105.5 -16.5q45 0 73.5 4.5t57.5 20.5v76q-10 -2 -20.5 -3t-20.5 -1q-43 0 -75.5 12t-61.5 35.5t-55.5 57.5t-55.5 77q-86 125 -133 199.5t-74.5 115.5t-45 59.5 t-42.5 30.5l-20 11v8q98 6 168.5 43t116 92t66 119.5t20.5 126.5q0 55 -21.5 120.5t-74 122t-142.5 94.5t-227 38h-465v-1434zM432 725v618h207q78 0 140.5 -22.5t107.5 -62t68.5 -95t23.5 -121.5q0 -55 -21.5 -111.5t-64.5 -102.5t-105.5 -74.5t-144.5 -28.5h-211z M537 1608l170 260h227l-318 -260h-79z" />
<glyph unicode="&#x155;" horiz-adv-x="782" d="M164 0h174v618q0 84 19.5 142.5t50 95.5t67.5 53.5t72 16.5q47 0 87 -31t58 -57l70 127q-18 25 -44 41t-51.5 25t-47 12.5t-31.5 3.5q-86 0 -143.5 -47.5t-94.5 -139.5h-12v164h-174v-1024zM193 1198l169 260h228l-318 -260h-79z" />
<glyph unicode="&#x156;" horiz-adv-x="1449" d="M246 0h186v633h90q59 0 109.5 -26.5t96.5 -75t92 -117t102 -154.5l24 -39q33 -53 64.5 -98t68.5 -78t84 -51.5t115 -18.5q45 0 73.5 4.5t57.5 20.5v76q-10 -2 -20.5 -3t-20.5 -1q-43 0 -75.5 12t-61.5 35.5t-55.5 57.5t-55.5 77q-86 125 -136 200.5t-80 118.5t-46 60.5 t-33 25.5l-20 11v8q98 6 168.5 43t116 92t66 119.5t20.5 126.5q0 55 -21.5 120.5t-74 122t-142.5 94.5t-227 38h-465v-1434zM432 725v618h207q78 0 140.5 -22.5t107.5 -62t68.5 -95t23.5 -121.5q0 -55 -21.5 -111.5t-64.5 -102.5t-105.5 -74.5t-144.5 -28.5h-211zM670 -100 v-351h69l123 351h-192z" />
<glyph unicode="&#x157;" horiz-adv-x="782" d="M164 0h174v618q0 84 19.5 142.5t50 95.5t67.5 53.5t72 16.5q47 0 87 -31t58 -57l70 127q-18 25 -44 41t-51.5 25t-47 12.5t-31.5 3.5q-86 0 -143.5 -47.5t-94.5 -139.5h-12v164h-174v-1024zM164 -100v-351h69l123 351h-192z" />
<glyph unicode="&#x158;" horiz-adv-x="1470" d="M246 0h186v633h90q57 0 95 -10.5t69 -35t57.5 -63.5t63.5 -96l162 -240q31 -47 60.5 -86t64 -66.5t79 -44t105.5 -16.5q45 0 73.5 4.5t57.5 20.5v76q-10 -2 -20.5 -3t-20.5 -1q-43 0 -75.5 12t-61.5 35.5t-55.5 57.5t-55.5 77q-86 125 -133 199.5t-74.5 115.5t-45 59.5 t-42.5 30.5l-20 11v8q98 6 168.5 43t116 92t66 119.5t20.5 126.5q0 55 -21.5 120.5t-74 122t-142.5 94.5t-227 38h-465v-1434zM377 1806l49 62l24 -14q24 -13 57.5 -34.5t73.5 -45t73.5 -45t56.5 -34.5l22 -14q0 -2 22.5 12.5t56.5 35t74 45t73 46.5l57 35l22 15l52 -64 l-23 -22q-23 -23 -56.5 -55.5t-73.5 -71.5t-74 -72t-56 -54l-23 -22h-102l-23 23q-23 23 -56.5 55.5t-73.5 71.5t-73.5 71.5t-56.5 54.5zM432 725v618h207q78 0 140.5 -22.5t107.5 -62t68.5 -95t23.5 -121.5q0 -55 -21.5 -111.5t-64.5 -102.5t-105.5 -74.5t-144.5 -28.5 h-211z" />
<glyph unicode="&#x159;" horiz-adv-x="782" d="M33 1397l49 61l23 -13q24 -13 58 -34.5t73.5 -45.5t73.5 -45.5t57 -34.5l22 -13q0 -2 22.5 12t56.5 34.5t74 45.5t73 46l57 36l22 14l51 -63l-22 -23q-23 -23 -56.5 -55.5t-73.5 -71.5t-74 -71.5t-56 -54.5l-23 -21h-102l-23 22q-23 23 -56.5 55.5t-73.5 71.5t-73.5 72 t-56.5 54zM164 0h174v618q0 84 19.5 142.5t50 95.5t67.5 53.5t72 16.5q47 0 87 -31t58 -57l70 127q-18 25 -44 41t-51.5 25t-47 12.5t-31.5 3.5q-86 0 -143.5 -47.5t-94.5 -139.5h-12v164h-174v-1024z" />
<glyph unicode="&#x15a;" horiz-adv-x="1280" d="M76 362q4 -88 46 -159.5t114.5 -121.5t171 -78t215.5 -28q119 0 214 29t162.5 82t104.5 129t37 168q0 127 -63.5 208t-159 135t-207 91t-206.5 78t-158.5 94t-63.5 141q0 49 21.5 92.5t63.5 75t103 51t141 19.5q133 0 226.5 -56.5t109.5 -176.5h139q-12 76 -55 136 t-108.5 102t-148.5 63.5t-173 21.5q-94 0 -179 -24.5t-149.5 -71.5t-102.5 -119t-38 -164q0 -121 61.5 -194.5t154.5 -122.5t201.5 -84t202 -79t155 -107.5t61.5 -169.5q0 -133 -97.5 -194.5t-259.5 -61.5q-129 0 -206.5 33.5t-118.5 80.5t-55.5 97.5t-16.5 84.5h-139z M440 1608l170 260h228l-318 -260h-80z" />
<glyph unicode="&#x15b;" horiz-adv-x="983" d="M68 279q0 -57 26.5 -111.5t80.5 -97.5t133 -69t184 -26q188 0 283 83t95 218q0 98 -46 158t-115.5 95.5t-150.5 58t-150.5 47t-115.5 59.5t-46 99q0 27 10 56.5t34.5 55t65.5 43t103 17.5q61 0 106 -17.5t76 -43t45 -56.5t14 -57h117q0 55 -28.5 102t-79 81t-117 53.5 t-141.5 19.5q-72 0 -134.5 -18.5t-108.5 -55.5t-72.5 -91.5t-26.5 -125.5q0 -98 45 -155.5t112.5 -92.5t146.5 -56.5t146.5 -47t112.5 -64.5t45 -107q0 -29 -9.5 -59.5t-34 -56t-67.5 -43t-108 -17.5q-82 0 -138.5 26t-92.5 61.5t-51 72.5t-15 62h-133zM293 1198l170 260 h227l-317 -260h-80z" />
<glyph unicode="&#x15c;" horiz-adv-x="1280" d="M76 362q4 -88 46 -159.5t114.5 -121.5t171 -78t215.5 -28q119 0 214 29t162.5 82t104.5 129t37 168q0 127 -63.5 208t-159 135t-207 91t-206.5 78t-158.5 94t-63.5 141q0 49 21.5 92.5t63.5 75t103 51t141 19.5q133 0 226.5 -56.5t109.5 -176.5h139q-12 76 -55 136 t-108.5 102t-148.5 63.5t-173 21.5q-94 0 -179 -24.5t-149.5 -71.5t-102.5 -119t-38 -164q0 -121 61.5 -194.5t154.5 -122.5t201.5 -84t202 -79t155 -107.5t61.5 -169.5q0 -133 -97.5 -194.5t-259.5 -61.5q-129 0 -206.5 33.5t-118.5 80.5t-55.5 97.5t-16.5 84.5h-139z M283 1571l49 -62l23 14q24 13 57.5 34.5t73.5 45t74 45t56 34.5l23 14l23 -14q23 -13 56.5 -33.5t73 -45t73.5 -45.5l57 -36l22 -15l51 64l-22 22q-23 23 -56.5 55.5t-73.5 71.5t-74 72t-56 54l-23 22h-102l-23 -23q-23 -23 -56.5 -55.5t-73.5 -71.5t-73.5 -71.5t-56 -55 t-22.5 -20.5z" />
<glyph unicode="&#x15d;" horiz-adv-x="983" d="M68 279q0 -57 26.5 -111.5t80.5 -97.5t133 -69t184 -26q188 0 283 83t95 218q0 98 -46 158t-115.5 95.5t-150.5 58t-150.5 47t-115.5 59.5t-46 99q0 27 10 56.5t34.5 55t65.5 43t103 17.5q61 0 106 -17.5t76 -43t45 -56.5t14 -57h117q0 55 -28.5 102t-79 81t-117 53.5 t-141.5 19.5q-72 0 -134.5 -18.5t-108.5 -55.5t-72.5 -91.5t-26.5 -125.5q0 -98 45 -155.5t112.5 -92.5t146.5 -56.5t146.5 -47t112.5 -64.5t45 -107q0 -29 -9.5 -59.5t-34 -56t-67.5 -43t-108 -17.5q-82 0 -138.5 26t-92.5 61.5t-51 72.5t-15 62h-133zM133 1161l49 -61 l24 13q24 13 57.5 34.5t73.5 45.5t73.5 45.5t56.5 34.5l22 13l23 -13q23 -13 56.5 -33.5t73.5 -45.5t74 -46l56 -36l23 -14l51 63l-23 23q-23 23 -56.5 55.5t-73.5 71.5t-73.5 71.5t-56.5 54.5l-22 21h-103l-22 -22q-23 -23 -56.5 -55.5t-73.5 -71.5t-74 -72t-56.5 -55.5 t-22.5 -20.5z" />
<glyph unicode="&#x15e;" horiz-adv-x="1280" d="M123 362q2 -86 44 -157.5t112.5 -122.5t166 -79t205.5 -28q246 0 386.5 109t140.5 305q0 133 -63.5 218t-159 140.5t-207 91t-207 74.5t-159 89.5t-63.5 134.5q0 45 21.5 87t63.5 73.5t104.5 51t142.5 19.5q131 0 210 -56.5t95 -176.5h162q-12 80 -56 140t-108.5 101 t-144.5 61.5t-162 20.5q-100 0 -187 -24.5t-151.5 -72.5t-101.5 -120t-37 -166q0 -135 61.5 -217t154.5 -132t201.5 -83t202 -69.5t155 -91t61.5 -148.5q0 -74 -26 -124t-72 -83t-111.5 -47t-143.5 -14q-100 0 -167.5 33.5t-109.5 80.5t-60.5 97.5t-20.5 84.5h-172z M567 -100v-351h70l123 351h-193z" />
<glyph unicode="&#x15f;" horiz-adv-x="983" d="M102 279q0 -57 24 -111.5t72 -97.5t120.5 -69t170.5 -26q104 0 179 21.5t122.5 61.5t69 93.5t21.5 118.5q0 86 -44 144.5t-112 99.5t-144.5 71.5t-144 59.5t-111.5 62.5t-44 83.5q0 27 9 57.5t31.5 57t62.5 43t99 16.5q66 0 110 -17.5t69.5 -43t37 -56.5t11.5 -57h118 q0 55 -25.5 102t-72.5 81t-112.5 53.5t-145.5 19.5q-70 0 -130 -17.5t-104 -54.5t-70 -95.5t-26 -140.5q0 -74 43 -125t108.5 -90t140.5 -69.5t140.5 -62.5t108.5 -69.5t43 -91.5q0 -27 -10 -57.5t-36 -56t-72 -43t-117 -17.5q-72 0 -119 24.5t-76 59.5t-41 73t-12 65h-142z M406 -100v-351h69l123 351h-192z" />
<glyph unicode="&#x160;" horiz-adv-x="1280" d="M76 362q4 -88 46 -159.5t114.5 -121.5t171 -78t215.5 -28q119 0 214 29t162.5 82t104.5 129t37 168q0 127 -63.5 208t-159 135t-207 91t-206.5 78t-158.5 94t-63.5 141q0 49 21.5 92.5t63.5 75t103 51t141 19.5q133 0 226.5 -56.5t109.5 -176.5h139q-12 76 -55 136 t-108.5 102t-148.5 63.5t-173 21.5q-94 0 -179 -24.5t-149.5 -71.5t-102.5 -119t-38 -164q0 -121 61.5 -194.5t154.5 -122.5t201.5 -84t202 -79t155 -107.5t61.5 -169.5q0 -133 -97.5 -194.5t-259.5 -61.5q-129 0 -206.5 33.5t-118.5 80.5t-55.5 97.5t-16.5 84.5h-139z M283 1806l49 62l23 -14q24 -13 57.5 -34.5t73.5 -45t74 -45t56 -34.5l23 -14q0 -2 22.5 12.5t56.5 35t73.5 45t73.5 46.5l57 35l22 15l51 -64l-22 -22q-23 -23 -56.5 -55.5t-73.5 -71.5t-74 -72t-56 -54l-23 -22h-102l-23 23q-23 23 -56.5 55.5t-73.5 71.5t-73.5 71.5 t-56.5 54.5z" />
<glyph unicode="&#x161;" horiz-adv-x="983" d="M68 279q0 -57 26.5 -111.5t80.5 -97.5t133 -69t184 -26q188 0 283 83t95 218q0 98 -46 158t-115.5 95.5t-150.5 58t-150.5 47t-115.5 59.5t-46 99q0 27 10 56.5t34.5 55t65.5 43t103 17.5q61 0 106 -17.5t76 -43t45 -56.5t14 -57h117q0 55 -28.5 102t-79 81t-117 53.5 t-141.5 19.5q-72 0 -134.5 -18.5t-108.5 -55.5t-72.5 -91.5t-26.5 -125.5q0 -98 45 -155.5t112.5 -92.5t146.5 -56.5t146.5 -47t112.5 -64.5t45 -107q0 -29 -9.5 -59.5t-34 -56t-67.5 -43t-108 -17.5q-82 0 -138.5 26t-92.5 61.5t-51 72.5t-15 62h-133zM133 1397l49 61 l24 -13q24 -13 57.5 -34.5t73.5 -45.5t73.5 -45.5t56.5 -34.5l22 -13q0 -2 23 12t56.5 34.5t73.5 45.5t74 46l56 36l23 14l51 -63l-23 -23q-23 -23 -56.5 -55.5t-73.5 -71.5t-73.5 -71.5t-56.5 -54.5l-22 -21h-103l-22 22q-23 23 -56.5 55.5t-73.5 71.5t-74 72t-56 54z" />
<glyph unicode="&#x162;" horiz-adv-x="1366" d="M41 1321h549v-1321h186v1321h549v113h-1284v-113zM590 -100v-351h69l123 351h-192z" />
<glyph unicode="&#x163;" horiz-adv-x="768" d="M61 942v82h179v315h174v-315h248v-82h-248v-680q0 -25 2 -56.5t12 -59t31.5 -46t60.5 -18.5q49 0 82 37t53 80l97 -99q-100 -100 -228 -100q-53 0 -104 18.5t-91 56.5t-64.5 97t-24.5 139v631h-179zM406 -100v-351h69l123 351h-192z" />
<glyph unicode="&#x164;" horiz-adv-x="1366" d="M41 1321h549v-1321h186v1321h549v113h-1284v-113zM326 1806l49 62l23 -14q24 -13 57.5 -34.5t73.5 -45t74 -45t56 -34.5l23 -14q0 -2 22.5 12.5t56.5 35t73.5 45t73.5 46.5l57 35l22 15l51 -64l-22 -22q-23 -23 -56.5 -55.5t-73.5 -71.5t-74 -72t-56 -54l-23 -22h-102 l-23 23q-23 23 -56.5 55.5t-73.5 71.5t-73.5 71.5t-56.5 54.5z" />
<glyph unicode="&#x165;" horiz-adv-x="1167" d="M61 942v82h179v315h174v-315h248v-82h-248v-680q0 -25 2 -56.5t12 -59t31.5 -46t60.5 -18.5q49 0 82 37t53 80l97 -99q-100 -100 -228 -100q-53 0 -104 18.5t-91 56.5t-64.5 97t-24.5 139v631h-179zM870 942h74l121 528h-195v-528z" />
<glyph unicode="&#x166;" horiz-adv-x="1366" d="M41 1321h549v-274h-228v-82h228v-965h186v965h228v82h-228v274h549v113h-1284v-113z" />
<glyph unicode="&#x167;" horiz-adv-x="768" d="M61 942v82h179v315h174v-315h248v-82h-248v-139h250v-86h-250v-455q0 -25 2 -56.5t12 -59t31.5 -46t60.5 -18.5q49 0 82 37t53 80l97 -99q-100 -100 -228 -100q-53 0 -104 18.5t-91 56.5t-64.5 97t-24.5 139v406h-177v86h177v139h-179z" />
<glyph unicode="&#x168;" horiz-adv-x="1474" d="M164 553q0 -84 16.5 -185.5t77.5 -188.5t182 -145.5t330 -58.5q131 0 232.5 41t170 113t103.5 167t35 204v934h-90v-867q0 -45 -2 -91t-12.5 -92t-32 -91t-62.5 -90q-74 -80 -166 -108.5t-192 -28.5q-86 0 -152.5 26.5t-126.5 79.5q-47 41 -71.5 82t-37 81t-14.5 81 t-2 82v936h-186v-881zM356 1647l56 -31q23 39 58.5 64.5t70.5 25.5q27 0 52 -8t48 -19q74 -29 135.5 -51t114.5 -22q72 0 132 48t95 156l-61 29q-23 -53 -57.5 -72.5t-69.5 -19.5q-25 0 -48.5 6t-41.5 10q-88 29 -150.5 54.5t-109.5 25.5q-78 0 -136.5 -56t-87.5 -140z" />
<glyph unicode="&#x169;" horiz-adv-x="1189" d="M164 358q0 -37 7 -101t42 -126.5t109.5 -109t209.5 -46.5q59 -2 130 24t143 97l33 33h8v-129h174v1024h-174v-635q0 -80 -22.5 -137t-59.5 -95t-86 -56.5t-103 -18.5q-86 0 -134 34t-71.5 79t-27.5 89t-4 64v676h-174v-666zM213 1237l55 -31q23 39 58.5 64.5t70.5 25.5 q27 0 52.5 -8t48.5 -18q74 -29 135 -51.5t115 -22.5q72 0 132 48t95 157l-62 29q-23 -53 -57.5 -73t-69.5 -20q-25 0 -48 6.5t-42 10.5q-88 29 -150.5 54.5t-109.5 25.5q-78 0 -136 -56.5t-87 -140.5z" />
<glyph unicode="&#x16a;" horiz-adv-x="1474" d="M164 553q0 -84 16.5 -185.5t77.5 -188.5t182 -145.5t330 -58.5q131 0 232.5 41t170 113t103.5 167t35 204v934h-90v-867q0 -45 -2 -91t-12.5 -92t-32 -91t-62.5 -90q-74 -80 -166 -108.5t-192 -28.5q-86 0 -152.5 26.5t-126.5 79.5q-47 41 -71.5 82t-37 81t-14.5 81 t-2 82v936h-186v-881zM416 1604h641v82h-641v-82z" />
<glyph unicode="&#x16b;" horiz-adv-x="1189" d="M164 358q0 -37 7 -101t42 -126.5t109.5 -109t209.5 -46.5q59 -2 130 24t143 97l33 33h8v-129h174v1024h-174v-635q0 -80 -22.5 -137t-59.5 -95t-86 -56.5t-103 -18.5q-86 0 -134 34t-71.5 79t-27.5 89t-4 64v676h-174v-666zM274 1194h641v82h-641v-82z" />
<glyph unicode="&#x16c;" horiz-adv-x="1474" d="M164 553q0 -84 16.5 -185.5t77.5 -188.5t182 -145.5t330 -58.5q131 0 232.5 41t170 113t103.5 167t35 204v934h-90v-867q0 -45 -2 -91t-12.5 -92t-32 -91t-62.5 -90q-74 -80 -166 -108.5t-192 -28.5q-86 0 -152.5 26.5t-126.5 79.5q-47 41 -71.5 82t-37 81t-14.5 81 t-2 82v936h-186v-881zM436 1868q0 -57 22.5 -108.5t63.5 -89.5t95.5 -59.5t119.5 -21.5q63 0 118.5 21.5t96.5 59.5t63.5 89t22.5 109h-86q-4 -92 -66.5 -148.5t-148.5 -56.5q-84 0 -146.5 56.5t-68.5 148.5h-86z" />
<glyph unicode="&#x16d;" horiz-adv-x="1189" d="M164 358q0 -37 7 -101t42 -126.5t109.5 -109t209.5 -46.5q59 -2 130 24t143 97l33 33h8v-129h174v1024h-174v-635q0 -80 -22.5 -137t-59.5 -95t-86 -56.5t-103 -18.5q-86 0 -134 34t-71.5 79t-27.5 89t-4 64v676h-174v-666zM293 1458q0 -57 22.5 -108.5t63.5 -89t95 -59 t120 -21.5q63 0 118.5 21.5t96.5 59t63.5 89t22.5 108.5h-86q-4 -92 -66.5 -148.5t-148.5 -56.5q-84 0 -146.5 56.5t-68.5 148.5h-86z" />
<glyph unicode="&#x16e;" horiz-adv-x="1474" d="M164 553q0 -84 16.5 -185.5t77.5 -188.5t182 -145.5t330 -58.5q131 0 232.5 41t170 113t103.5 167t35 204v934h-90v-867q0 -45 -2 -91t-12.5 -92t-32 -91t-62.5 -90q-74 -80 -166 -108.5t-192 -28.5q-86 0 -152.5 26.5t-126.5 79.5q-47 41 -71.5 82t-37 81t-14.5 81 t-2 82v936h-186v-881zM549 1698q0 -39 14.5 -73t40 -59.5t60 -41t73.5 -15.5t74 15.5t60.5 41t40 59.5t14.5 73q0 31 -11.5 64.5t-35 60t-59.5 44t-83 17.5t-81.5 -17.5t-58.5 -44t-36 -60t-12 -64.5zM616 1698q0 51 35 85t86 34q49 0 85 -34t36 -85t-36 -86t-85 -35 q-51 0 -86 35t-35 86z" />
<glyph unicode="&#x16f;" horiz-adv-x="1189" d="M164 358q0 -37 7 -101t42 -126.5t109.5 -109t209.5 -46.5q59 -2 130 24t143 97l33 33h8v-129h174v1024h-174v-635q0 -80 -22.5 -137t-59.5 -95t-86 -56.5t-103 -18.5q-86 0 -134 34t-71.5 79t-27.5 89t-4 64v676h-174v-666zM406 1288q0 -39 14 -72.5t39.5 -59.5t60.5 -41 t74 -15t73.5 15t60.5 41t40 59.5t14 72.5q0 31 -11 64.5t-34.5 60.5t-59.5 44.5t-83 17.5t-82 -17.5t-58.5 -44.5t-35.5 -60.5t-12 -64.5zM473 1288q0 51 35 85t86 34q49 0 85 -34t36 -85t-36 -86t-85 -35q-51 0 -86 35t-35 86z" />
<glyph unicode="&#x170;" horiz-adv-x="1474" d="M164 553q0 -84 16.5 -185.5t77.5 -188.5t182 -145.5t330 -58.5q131 0 232.5 41t170 113t103.5 167t35 204v934h-90v-867q0 -45 -2 -91t-12.5 -92t-32 -91t-62.5 -90q-74 -80 -166 -108.5t-192 -28.5q-86 0 -152.5 26.5t-126.5 79.5q-47 41 -71.5 82t-37 81t-14.5 81 t-2 82v936h-186v-881zM438 1608l105 260h227l-252 -260h-80zM705 1608l104 260h227l-252 -260h-79z" />
<glyph unicode="&#x171;" horiz-adv-x="1189" d="M164 358q0 -37 7 -101t42 -126.5t109.5 -109t209.5 -46.5q59 -2 130 24t143 97l33 33h8v-129h174v1024h-174v-635q0 -80 -22.5 -137t-59.5 -95t-86 -56.5t-103 -18.5q-86 0 -134 34t-71.5 79t-27.5 89t-4 64v676h-174v-666zM295 1198l104 260h228l-252 -260h-80z M561 1198l105 260h227l-252 -260h-80z" />
<glyph unicode="&#x172;" horiz-adv-x="1474" d="M164 553q0 -82 15.5 -178t70.5 -182.5t164.5 -146.5t298.5 -69l-62 -45q-55 -41 -101 -90t-46 -108q0 -70 48 -96.5t103 -26.5q47 0 93.5 16.5t78.5 40.5l-22 56q-20 -10 -51 -22.5t-60 -12.5q-43 0 -54 26.5t-11 38.5q0 61 54 118.5t124 104.5q123 6 216 49.5t157.5 114 t97.5 162.5t33 197v934h-90v-867q0 -45 -2 -91t-12.5 -92t-32 -91t-62.5 -90q-74 -80 -166 -108.5t-192 -28.5q-86 0 -152.5 26.5t-126.5 79.5q-47 41 -71.5 82t-37 81t-14.5 81t-2 82v936h-186v-881z" />
<glyph unicode="&#x173;" horiz-adv-x="1189" d="M164 358q0 -37 7 -101t42 -126.5t109.5 -109t209.5 -46.5q59 -2 130 24t143 97l33 33h8v-129h76l-95 -68q-55 -41 -101 -90t-46 -108q0 -70 48 -96.5t103 -26.5q47 0 93.5 16.5t79.5 40.5l-23 56q-20 -10 -51 -22.5t-60 -12.5q-43 0 -54 26.5t-11 38.5q0 35 18.5 68 t49 64.5t69.5 60t78 53.5v1024h-174v-635q0 -80 -22.5 -137t-59.5 -95t-86 -56.5t-103 -18.5q-86 0 -134 34t-71.5 79t-27.5 89t-4 64v676h-174v-666z" />
<glyph unicode="&#x174;" horiz-adv-x="2162" d="M61 1434l508 -1434h123l391 1120h11l379 -1120h120l508 1434h-94l-424 -1196h-8l-399 1196h-89l-407 -1190h-8l-422 1190h-189zM723 1571l49 -62l24 14q24 13 57.5 34.5t73.5 45t73.5 45t56.5 34.5l22 14l23 -14q23 -13 56.5 -33.5t73.5 -45t74 -45.5l56 -36l22 -15 l52 64l-23 22q-23 23 -56.5 55.5t-73.5 71.5t-73.5 72t-56.5 54l-23 22h-102l-22 -23q-23 -23 -57 -55.5t-73.5 -71.5t-73.5 -71.5t-56.5 -55t-22.5 -20.5z" />
<glyph unicode="&#x175;" horiz-adv-x="1527" d="M41 1024l354 -1024h111l237 686h9l266 -686h96l373 1024h-107l-278 -766h-8l-291 766h-41l-268 -772h-9l-266 772h-178zM406 1161l49 -61l23 13q24 13 57.5 34.5t73.5 45.5t74 45.5t56 34.5l23 13l22 -13q23 -13 56.5 -33.5t73.5 -45.5t74 -46l56 -36l23 -14l51 63 l-22 23q-23 23 -56.5 55.5t-73.5 71.5t-74 71.5t-56 54.5l-23 21h-102l-23 -22q-23 -23 -56.5 -55.5t-73.5 -71.5t-73.5 -72t-56 -55.5t-22.5 -20.5z" />
<glyph unicode="&#x176;" horiz-adv-x="1308" d="M61 1434l496 -891v-543h186v561l504 873h-110l-439 -756h-8l-418 756h-211zM297 1571l49 -62l24 14q24 13 57.5 34.5t73.5 45t73.5 45t56.5 34.5l22 14l23 -14q23 -13 56.5 -33.5t73.5 -45t74 -45.5l56 -36l22 -15l52 64l-23 22q-23 23 -56.5 55.5t-73.5 71.5t-73.5 72 t-56.5 54l-22 22h-103l-22 -23q-23 -23 -57 -55.5t-73.5 -71.5t-73.5 -71.5t-56.5 -55t-22.5 -20.5z" />
<glyph unicode="&#x177;" horiz-adv-x="1032" d="M20 1024l459 -1012l-108 -266q-18 -47 -48 -75.5t-69 -28.5q-37 0 -70.5 21.5t-52.5 62.5l-90 -170q39 -35 86 -51.5t88 -16.5q57 0 100 28.5t76 75t57.5 102.5t47.5 111l495 1219h-100l-322 -784h-8l-354 784h-187zM158 1161l49 -61l23 13q24 13 58 34.5t73.5 45.5 t73.5 45.5t57 34.5l22 13l23 -13q23 -13 56.5 -33.5t73.5 -45.5t73 -46l57 -36l22 -14l51 63l-22 23q-23 23 -56.5 55.5t-73.5 71.5t-74 71.5t-56 54.5l-23 21h-102l-23 -22q-23 -23 -56.5 -55.5t-73.5 -71.5t-73.5 -72t-56 -55.5t-22.5 -20.5z" />
<glyph unicode="&#x178;" horiz-adv-x="1308" d="M61 1434l496 -891v-543h186v561l504 873h-110l-439 -756h-8l-418 756h-211zM401 1757q0 -45 33 -77.5t78 -32.5t78 32.5t33 77.5t-33 78t-78 33t-78 -33t-33 -78zM684 1757q0 -45 33 -77.5t78 -32.5t77.5 32.5t32.5 77.5t-32.5 78t-77.5 33t-78 -33t-33 -78z" />
<glyph unicode="&#x179;" horiz-adv-x="1363" d="M61 0h1242v113h-945l910 1321h-1155v-113h866zM483 1608l170 260h228l-318 -260h-80z" />
<glyph unicode="&#x17a;" horiz-adv-x="1003" d="M41 0h895v82h-643l649 942h-868v-82h616zM303 1198l170 260h227l-317 -260h-80z" />
<glyph unicode="&#x17b;" horiz-adv-x="1363" d="M61 0h1242v113h-945l910 1321h-1155v-113h866zM571 1757q0 -45 33 -77.5t78 -32.5t78 32.5t33 77.5t-33 78t-78 33t-78 -33t-33 -78z" />
<glyph unicode="&#x17c;" horiz-adv-x="1003" d="M41 0h895v82h-643l649 942h-868v-82h616zM391 1348q0 -45 33 -78t78 -33t77.5 33t32.5 78t-32.5 77.5t-77.5 32.5t-78 -32.5t-33 -77.5z" />
<glyph unicode="&#x17d;" horiz-adv-x="1363" d="M61 0h1242v113h-945l910 1321h-1155v-113h866zM324 1806l49 62l23 -14q24 -13 57.5 -34.5t73.5 -45t74 -45t56 -34.5l23 -14q0 -2 22.5 12.5t56.5 35t73.5 45t73.5 46.5l57 35l22 15l51 -64l-22 -22q-23 -23 -56.5 -55.5t-73.5 -71.5t-74 -72t-56 -54l-23 -22h-102 l-23 23q-23 23 -56.5 55.5t-73.5 71.5t-73.5 71.5t-56.5 54.5z" />
<glyph unicode="&#x17e;" horiz-adv-x="1003" d="M41 0h895v82h-643l649 942h-868v-82h616zM143 1397l50 61l23 -13q24 -13 57.5 -34.5t73.5 -45.5t74 -45.5t56 -34.5l23 -13q0 -2 22.5 12t56 34.5t73.5 45.5t74 46l56 36l23 14l51 -63l-22 -23q-23 -23 -57 -55.5t-73.5 -71.5t-73.5 -71.5t-57 -54.5l-22 -21h-102l-23 22 q-23 23 -56.5 55.5t-73.5 71.5t-74 72t-56 54z" />
<glyph unicode="&#x17f;" horiz-adv-x="983" d="M68 279q0 -57 26.5 -111.5t80.5 -97.5t133 -69t184 -26q188 0 283 83t95 218q0 98 -46 158t-115.5 95.5t-150.5 58t-150.5 47t-115.5 59.5t-46 99q0 27 10 56.5t34.5 55t65.5 43t103 17.5q61 0 106 -17.5t76 -43t45 -56.5t14 -57h117q0 55 -28.5 102t-79 81t-117 53.5 t-141.5 19.5q-72 0 -134.5 -18.5t-108.5 -55.5t-72.5 -91.5t-26.5 -125.5q0 -98 45 -155.5t112.5 -92.5t146.5 -56.5t146.5 -47t112.5 -64.5t45 -107q0 -29 -9.5 -59.5t-34 -56t-67.5 -43t-108 -17.5q-82 0 -138.5 26t-92.5 61.5t-51 72.5t-15 62h-133z" />
<glyph unicode="&#x182;" horiz-adv-x="1689" d="M41 1321h537v-1321h186v735q33 6 74 12.5t83 11.5t82.5 8t73.5 3q43 0 103.5 -8t115 -30.5t93 -66.5t38.5 -114v-209q0 -78 -18 -130t-49 -86t-69 -48.5t-77 -14.5q-47 0 -82.5 14.5t-62.5 36t-44 46t-26 47.5l-129 -103q76 -76 156 -102.5t178 -26.5q139 0 219 46.5 t121 113t52.5 140t11.5 131.5v155q0 41 -16.5 93.5t-63.5 97.5t-135 75.5t-230 30.5q-41 0 -93 -3t-107.5 -7t-107.5 -10.5t-91 -12.5v496h547v113h-1270v-113z" />
<glyph unicode="&#x189;" horiz-adv-x="1609" d="M20 678v82h226v674h471q170 0 312 -55.5t243.5 -152t158 -229.5t56.5 -286q0 -156 -59.5 -286t-161 -224.5t-236.5 -147.5t-289 -53h-495v678h-226zM432 90h225q168 0 286 57.5t193.5 148.5t110.5 203.5t35 223.5q0 125 -41 237.5t-120 197.5t-195.5 135t-268.5 50h-225 v-583h230v-82h-230v-588z" />
<glyph unicode="&#x192;" horiz-adv-x="983" d="M-172 -412q35 -59 83 -77.5t109 -18.5q98 0 168 52.5t113 122t63.5 135t20.5 94.5l217 1019h211l14 72h-209l44 209q4 23 13 55.5t24.5 62t39 50t56.5 20.5q20 0 35.5 -12t25.5 -30.5t16.5 -41t10.5 -43.5l110 101q-35 47 -75.5 71.5t-102.5 24.5q-49 0 -100 -18.5 t-96.5 -55.5t-80 -94t-53.5 -135l-36 -164h-152l-14 -72h151l-237 -1110q-10 -43 -23.5 -87t-33 -77.5t-46 -55t-63.5 -21.5q-41 0 -59.5 28.5t-28.5 73.5z" />
<glyph unicode="&#x1a0;" horiz-adv-x="1771" d="M934 1458h192l-125 -529h-67v529zM102 717q0 -115 44 -245t138.5 -240.5t240 -183.5t347.5 -73q137 0 249 34t201 91.5t154.5 132t107.5 157.5t63.5 167t21.5 160q0 115 -47 245t-145.5 240.5t-249 183t-355.5 72.5q-203 0 -348 -71.5t-239.5 -181t-138.5 -240.5 t-44 -248zM303 717q0 143 44 263t121 206t181.5 134t227.5 48q121 0 228 -48t188 -134t128 -206t47 -263t-47 -263t-128 -206t-188.5 -134t-227.5 -48q-123 0 -227.5 48t-181.5 134t-121 206t-44 263z" />
<glyph unicode="&#x1a1;" horiz-adv-x="1265" d="M698 1047h192l-125 -529h-67v529zM102 510q0 106 38 203.5t106.5 171t168 118t222.5 44.5q121 0 218 -44.5t166 -118t105.5 -171t36.5 -203.5t-36.5 -203.5t-105.5 -171.5t-166 -117t-218 -43q-123 0 -222.5 44t-168 118t-106.5 171.5t-38 201.5zM297 510 q0 -141 31.5 -230.5t82 -138.5t110 -66.5t114.5 -17.5t114.5 17.5t108.5 66.5t80 138.5t31 230.5q0 143 -31 232t-80 138.5t-108.5 67t-114.5 17.5t-114.5 -17.5t-110 -67t-82 -138.5t-31.5 -232z" />
<glyph unicode="&#x1af;" horiz-adv-x="1474" d="M1372 1458h192l-125 -529h-67v529zM164 553q0 -84 16.5 -185.5t77.5 -188.5t182 -145.5t330 -58.5q131 0 232.5 41t170 113t103.5 167t35 204v934h-90v-867q0 -45 -2 -91t-12.5 -92t-32 -91t-62.5 -90q-74 -80 -166 -108.5t-192 -28.5q-86 0 -152.5 26.5t-126.5 79.5 q-47 41 -71.5 82t-37 81t-14.5 81t-2 82v936h-186v-881z" />
<glyph unicode="&#x1b0;" horiz-adv-x="1189" d="M1081 1047h192l-125 -529h-67v529zM164 358q0 -37 7 -101t42 -126.5t109.5 -109t209.5 -46.5h9q56 0 122 24q71 26 142 97l33 33h8v-129h174v1024h-174v-635q0 -80 -22.5 -137t-59.5 -95t-86 -56.5t-103 -18.5q-86 0 -134 34t-71.5 79t-27.5 89t-4 64v676h-174v-666z" />
<glyph unicode="&#x1c0;" horiz-adv-x="559" d="M205 -510h149v2322h-149v-2322z" />
<glyph unicode="&#x1c1;" horiz-adv-x="1118" d="M764 -510h149v2322h-149v-2322zM205 -510h149v2322h-149v-2322z" />
<glyph unicode="&#x1c4;" horiz-adv-x="2930" d="M1628 0h1242v113h-945l910 1321h-1155v-113h866zM1891 1806l49 62l23 -14q24 -13 57.5 -34.5t73.5 -45t74 -45t56 -34.5l23 -14q0 -2 22.5 12.5t56.5 35t73.5 45t73.5 46.5l57 35l22 15l51 -64l-22 -22q-23 -23 -56.5 -55.5t-73.5 -71.5t-74 -72t-56 -54l-23 -22h-102 l-23 23q-23 23 -56.5 55.5t-73.5 71.5t-73.5 71.5t-56.5 54.5zM266 0v1434h471q170 0 311.5 -54.5t243 -149.5t157.5 -226.5t56 -282.5q0 -158 -58 -290t-159.5 -228.5t-237 -149.5t-288.5 -53h-496zM453 90h225q168 0 285.5 56.5t193.5 146.5t111 201.5t35 222.5 q0 123 -41 236.5t-120 200.5t-196 138t-268 51h-225v-1253z" />
<glyph unicode="&#x1c5;" horiz-adv-x="2570" d="M1608 0h895v82h-643l649 942h-868v-82h616zM1710 1397l50 61l23 -13q24 -13 57.5 -34.5t73.5 -45.5t74 -45.5t56 -34.5l23 -13q0 -2 22.5 12t56 34.5t73.5 45.5t74 46l56 36l23 14l51 -63l-22 -23q-23 -23 -57 -55.5t-73.5 -71.5t-73.5 -71.5t-57 -54.5l-22 -21h-102 l-23 22q-23 23 -56.5 55.5t-73.5 71.5t-74 72t-56 54zM266 0v1434h471q170 0 311.5 -54.5t243 -149.5t157.5 -226.5t56 -282.5q0 -158 -58 -290t-159.5 -228.5t-237 -149.5t-288.5 -53h-496zM453 90h225q168 0 285.5 56.5t193.5 146.5t111 201.5t35 222.5q0 123 -41 236.5 t-120 200.5t-196 138t-268 51h-225v-1253z" />
<glyph unicode="&#x1c6;" horiz-adv-x="2240" d="M1278 0h895v82h-643l649 942h-868v-82h616zM1380 1397l50 61l23 -13q24 -13 57.5 -34.5t73.5 -45.5t74 -45.5t56 -34.5l23 -13q0 -2 22.5 12t56 34.5t73.5 45.5t74 46l56 36l23 14l51 -63l-22 -23q-23 -23 -57 -55.5t-73.5 -71.5t-73.5 -71.5t-57 -54.5l-22 -21h-102 l-23 22q-23 23 -56.5 55.5t-73.5 71.5t-74 72t-56 54zM102 514q0 -123 35 -222t97.5 -170t148.5 -109t188 -38q242 0 320 191h8v-166h174v1434h-174v-578h-8q-20 53 -54 89t-77 58.5t-91 33t-98 10.5q-102 0 -188 -38t-148.5 -108t-97.5 -168t-35 -219zM297 510 q0 117 25.5 199t69.5 134t101.5 75.5t120.5 23.5q57 0 108.5 -23.5t90.5 -69.5t62.5 -111.5t23.5 -149.5v-178q0 -68 -22.5 -128.5t-60.5 -104.5t-90 -69.5t-112 -25.5q-66 0 -123 23.5t-100 74.5t-68.5 133t-25.5 197z" />
<glyph unicode="&#x1c7;" horiz-adv-x="2301" d="M1253 305q4 -158 102.5 -244t295.5 -86q141 0 223 42t122 106.5t50 140.5t10 142v1028h-186v-1035q0 -49 -3 -107.5t-23.5 -108.5t-62.5 -83.5t-120 -33.5q-68 0 -112 24.5t-69.5 61t-36.5 78.5t-11 75h-179zM246 0v1434h186v-1321h739v-113h-925z" />
<glyph unicode="&#x1c8;" horiz-adv-x="1828" d="M1110 -412q45 -59 105.5 -79.5t126.5 -20.5q45 0 97 16.5t97 62.5t75 127t30 210v1120h-177v-1212q0 -47 -4 -91.5t-17 -79t-39 -55t-67 -20.5q-51 0 -76.5 24.5t-47.5 77.5zM1444 1348q0 -45 31.5 -78t79.5 -33q45 0 77.5 33t32.5 78t-32.5 77.5t-77.5 32.5 q-47 0 -79 -32.5t-32 -77.5zM246 0v1434h186v-1321h739v-113h-925z" />
<glyph unicode="&#x1c9;" horiz-adv-x="1179" d="M461 -412q45 -59 105.5 -79.5t126.5 -20.5q45 0 97 16.5t97 62.5t75 127t30 210v1120h-177v-1212q0 -47 -4 -91.5t-17 -79t-39 -55t-67 -20.5q-51 0 -76.5 24.5t-47.5 77.5zM795 1348q0 -45 31.5 -78t79.5 -33q45 0 77.5 33t32.5 78t-32.5 77.5t-77.5 32.5 q-47 0 -79 -32.5t-32 -77.5zM205 0h174v1434h-174v-1434z" />
<glyph unicode="&#x1ca;" horiz-adv-x="2809" d="M1761 305q4 -158 102.5 -244t295.5 -86q141 0 223 42t122 106.5t50 140.5t10 142v1028h-186v-1035q0 -49 -3 -107.5t-23.5 -108.5t-62.5 -83.5t-120 -33.5q-68 0 -112 24.5t-69.5 61t-36.5 78.5t-11 75h-179zM246 0h94v1096h8l1137 -1121h10v1459h-94v-1096h-8 l-1137 1120h-10v-1458z" />
<glyph unicode="&#x1cb;" horiz-adv-x="2336" d="M1618 -412q45 -59 105.5 -79.5t126.5 -20.5q45 0 97 16.5t97 62.5t75 127t30 210v1120h-177v-1212q0 -47 -4 -91.5t-17 -79t-39 -55t-67 -20.5q-51 0 -76.5 24.5t-47.5 77.5zM1952 1348q0 -45 31.5 -78t79.5 -33q45 0 77.5 33t32.5 78t-32.5 77.5t-77.5 32.5 q-47 0 -79 -32.5t-32 -77.5zM246 0h94v1096h8l1137 -1121h10v1459h-94v-1096h-8l-1137 1120h-10v-1458z" />
<glyph unicode="&#x1cc;" horiz-adv-x="1785" d="M1067 -412q45 -59 105.5 -79.5t126.5 -20.5q45 0 97 16.5t97 62.5t75 127t30 210v1120h-177v-1212q0 -47 -4 -91.5t-17 -79t-39 -55t-67 -20.5q-51 0 -76.5 24.5t-47.5 77.5zM1401 1348q0 -45 31.5 -78t79.5 -33q45 0 77.5 33t32.5 78t-32.5 77.5t-77.5 32.5 q-47 0 -79 -32.5t-32 -77.5zM164 0h174v633q0 80 22.5 137t61.5 96t89 57.5t103 18.5q86 0 133.5 -34t69 -79t25.5 -90t4 -65v-674h174v664q0 37 -6 101t-40 126.5t-107.5 109t-209.5 46.5h-8q-56 0 -125 -24q-74 -26 -145 -97l-33 -33h-8v131h-174v-1024z" />
<glyph unicode="&#x1cd;" horiz-adv-x="1499" d="M362 1878l49 61l24 -13q24 -13 57.5 -34.5t73.5 -45.5t73.5 -45.5t56.5 -34.5l22 -13q0 -2 22.5 12t56.5 34.5t74 45.5t74 46l56 36l23 14l51 -63l-23 -23q-23 -23 -56.5 -55.5t-73.5 -71.5t-73.5 -71.5t-56.5 -54.5l-22 -21h-103l-22 22q-23 23 -56.5 55.5t-73.5 71.5 t-74 72t-56 54zM61 0h95l180 422h706l197 -422h199l-668 1434h-102zM375 514l295 690h8l321 -690h-624z" />
<glyph unicode="&#x1ce;" horiz-adv-x="1105" d="M184 1467l49 61l24 -13q24 -13 57.5 -34.5t73.5 -45.5t73.5 -45.5t56.5 -34.5l22 -13q0 -2 22.5 12t56.5 34.5t74 45.5t74 46l56 36l23 14l51 -63l-23 -23q-23 -23 -56.5 -55.5t-73.5 -71.5t-73.5 -71.5t-56.5 -54.5l-22 -21h-103l-22 22q-23 23 -56.5 55.5t-73.5 71.5 t-74 72t-56 54zM82 322q0 66 24.5 131t73.5 117.5t121 85t164 32.5t175 -36t136 -101v88q0 168 -50 250t-183 82q-57 0 -100.5 -14.5t-77 -40t-62.5 -63.5t-57 -85l-107 106q29 31 60.5 62t78 55.5t110 40t153.5 15.5q150 0 231.5 -42t119.5 -110t44 -156t6 -180v-559h-166 v100q-59 -57 -151.5 -91t-184.5 -34q-88 0 -155.5 31t-112.5 80t-67.5 111t-22.5 125zM258 319q0 -66 23.5 -113.5t60.5 -81.5t82 -50.5t86 -16.5q39 0 79 14.5t75.5 40t64.5 60.5t47 76v158q-10 25 -29.5 57.5t-50 63t-73.5 52t-103 21.5q-59 0 -108.5 -23.5t-83 -61.5 t-52 -89.5t-18.5 -106.5z" />
<glyph unicode="&#x1cf;" horiz-adv-x="841" d="M66 1878l49 61l24 -13q24 -13 57.5 -34.5t73.5 -45.5t73.5 -45.5t56.5 -34.5l22 -13q0 -2 22.5 12t56.5 34.5t74 45.5t74 46l56 36l23 14l51 -63l-23 -23q-23 -23 -56.5 -55.5t-73.5 -71.5t-73.5 -71.5t-56.5 -54.5l-22 -21h-103l-22 22q-23 23 -56.5 55.5t-73.5 71.5 t-74 72t-56 54zM328 0h186v1434h-186v-1434z" />
<glyph unicode="&#x1d0;" horiz-adv-x="630" d="M-41 1878l49 61l24 -13q24 -13 57.5 -34.5t73.5 -45.5t73.5 -45.5t56.5 -34.5l22 -13q0 -2 22.5 12t56.5 34.5t74 45.5t74 46l56 36l23 14l51 -63l-23 -23q-23 -23 -56.5 -55.5t-73.5 -71.5t-73.5 -71.5t-56.5 -54.5l-22 -21h-103l-22 22q-23 23 -56.5 55.5t-73.5 71.5 t-74 72t-56 54zM205 1348q0 -45 32.5 -78t77.5 -33t78 33t33 78t-33 77.5t-78 32.5t-77.5 -32.5t-32.5 -77.5zM229 0h174v1024h-174v-1024z" />
<glyph unicode="&#x1d1;" horiz-adv-x="1771" d="M516 1878l49 61l24 -13q24 -13 57.5 -34.5t73.5 -45.5t73.5 -45.5t56.5 -34.5l22 -13q0 -2 22.5 12t56.5 34.5t74 45.5t74 46l56 36l23 14l51 -63l-23 -23q-23 -23 -56.5 -55.5t-73.5 -71.5t-73.5 -71.5t-56.5 -54.5l-22 -21h-103l-22 22q-23 23 -56.5 55.5t-73.5 71.5 t-74 72t-56 54zM102 717q0 -115 44 -245t138.5 -240.5t240 -183.5t347.5 -73q137 0 249 34t201 91.5t154.5 132t107.5 157.5t63.5 167t21.5 160q0 115 -47 245t-145.5 240.5t-249 183t-355.5 72.5q-203 0 -348 -71.5t-239.5 -181t-138.5 -240.5t-44 -248zM303 717 q0 143 44 263t121 206t181.5 134t227.5 48q121 0 228 -48t188 -134t128 -206t47 -263t-47 -263t-128 -206t-188.5 -134t-227.5 -48q-123 0 -227.5 48t-181.5 134t-121 206t-44 263z" />
<glyph unicode="&#x1d2;" horiz-adv-x="1265" d="M281 1467l49 61l24 -13q24 -13 57.5 -34.5t73.5 -45.5t73.5 -45.5t56.5 -34.5l22 -13q0 -2 22.5 12t56.5 34.5t74 45.5t74 46l56 36l23 14l51 -63l-23 -23q-23 -23 -56.5 -55.5t-73.5 -71.5t-73.5 -71.5t-56.5 -54.5l-22 -21h-103l-22 22q-23 23 -56.5 55.5t-73.5 71.5 t-74 72t-56 54zM102 510q0 106 38 203.5t106.5 171t168 118t222.5 44.5q121 0 218 -44.5t166 -118t105.5 -171t36.5 -203.5t-36.5 -203.5t-105.5 -171.5t-166 -117t-218 -43q-123 0 -222.5 44t-168 118t-106.5 171.5t-38 201.5zM297 510q0 -141 31.5 -230.5t82 -138.5 t110 -66.5t114.5 -17.5t114.5 17.5t108.5 66.5t80 138.5t31 230.5q0 143 -31 232t-80 138.5t-108.5 67t-114.5 17.5t-114.5 -17.5t-110 -67t-82 -138.5t-31.5 -232z" />
<glyph unicode="&#x1d3;" horiz-adv-x="1474" d="M381 1878l49 61l24 -13q24 -13 57.5 -34.5t73.5 -45.5t73.5 -45.5t56.5 -34.5l22 -13q0 -2 22.5 12t56.5 34.5t74 45.5t74 46l56 36l23 14l51 -63l-23 -23q-23 -23 -56.5 -55.5t-73.5 -71.5t-73.5 -71.5t-56.5 -54.5l-22 -21h-103l-22 22q-23 23 -56.5 55.5t-73.5 71.5 t-74 72t-56 54zM164 553q0 -84 16.5 -185.5t77.5 -188.5t182 -145.5t330 -58.5q131 0 232.5 41t170 113t103.5 167t35 204v934h-90v-867q0 -45 -2 -91t-12.5 -92t-32 -91t-62.5 -90q-74 -80 -166 -108.5t-192 -28.5q-86 0 -152.5 26.5t-126.5 79.5q-47 41 -71.5 82t-37 81 t-14.5 81t-2 82v936h-186v-881z" />
<glyph unicode="&#x1d4;" horiz-adv-x="1189" d="M236 1467l49 61l24 -13q24 -13 57.5 -34.5t73.5 -45.5t73.5 -45.5t56.5 -34.5l22 -13q0 -2 22.5 12t56.5 34.5t74 45.5t74 46l56 36l23 14l51 -63l-23 -23q-23 -23 -56.5 -55.5t-73.5 -71.5t-73.5 -71.5t-56.5 -54.5l-22 -21h-103l-22 22q-23 23 -56.5 55.5t-73.5 71.5 t-74 72t-56 54zM164 358q0 -37 7 -101t42 -126.5t109.5 -109t209.5 -46.5h9q56 0 122 24q71 26 142 97l33 33h8v-129h174v1024h-174v-635q0 -80 -22.5 -137t-59.5 -95t-86 -56.5t-103 -18.5q-86 0 -134 34t-71.5 79t-27.5 89t-4 64v676h-174v-666z" />
<glyph unicode="&#x1d5;" horiz-adv-x="1474" d="M416 1991h641v82h-641v-82zM164 553q0 -84 16.5 -185.5t77.5 -188.5t182 -145.5t330 -58.5q131 0 232.5 41t170 113t103.5 167t35 204v934h-90v-867q0 -45 -2 -91t-12.5 -92t-32 -91t-62.5 -90q-74 -80 -166 -108.5t-192 -28.5q-86 0 -152.5 26.5t-126.5 79.5 q-47 41 -71.5 82t-37 81t-14.5 81t-2 82v936h-186v-881zM485 1757q0 -45 33 -77.5t78 -32.5t78 32.5t33 77.5t-33 78t-78 33t-78 -33t-33 -78zM768 1757q0 -45 33 -77.5t78 -32.5t77.5 32.5t32.5 77.5t-32.5 78t-77.5 33t-78 -33t-33 -78z" />
<glyph unicode="&#x1d6;" horiz-adv-x="1189" d="M272 1581h641v82h-641v-82zM164 358q0 -37 7 -101t42 -126.5t109.5 -109t209.5 -46.5q59 -2 130 24t143 97l33 33h8v-129h174v1024h-174v-635q0 -80 -22.5 -137t-59.5 -95t-86 -56.5t-103 -18.5q-86 0 -134 34t-71.5 79t-27.5 89t-4 64v676h-174v-666zM342 1348 q0 -45 33 -78t78 -33t77.5 33t32.5 78t-32.5 77.5t-77.5 32.5t-78 -32.5t-33 -77.5zM625 1348q0 -45 32.5 -78t77.5 -33t78 33t33 78t-33 77.5t-78 32.5t-77.5 -32.5t-32.5 -77.5z" />
<glyph unicode="&#x1d7;" horiz-adv-x="1474" d="M696 1991l170 260h227l-317 -260h-80zM164 553q0 -84 16.5 -185.5t77.5 -188.5t182 -145.5t330 -58.5q131 0 232.5 41t170 113t103.5 167t35 204v934h-90v-867q0 -45 -2 -91t-12.5 -92t-32 -91t-62.5 -90q-74 -80 -166 -108.5t-192 -28.5q-86 0 -152.5 26.5t-126.5 79.5 q-47 41 -71.5 82t-37 81t-14.5 81t-2 82v936h-186v-881zM485 1757q0 -45 33 -77.5t78 -32.5t78 32.5t33 77.5t-33 78t-78 33t-78 -33t-33 -78zM768 1757q0 -45 33 -77.5t78 -32.5t77.5 32.5t32.5 77.5t-32.5 78t-77.5 33t-78 -33t-33 -78z" />
<glyph unicode="&#x1d8;" horiz-adv-x="1189" d="M553 1581l170 260h227l-317 -260h-80zM164 358q0 -37 7 -101t42 -126.5t109.5 -109t209.5 -46.5q59 -2 130 24t143 97l33 33h8v-129h174v1024h-174v-635q0 -80 -22.5 -137t-59.5 -95t-86 -56.5t-103 -18.5q-86 0 -134 34t-71.5 79t-27.5 89t-4 64v676h-174v-666z M342 1348q0 -45 33 -78t78 -33t77.5 33t32.5 78t-32.5 77.5t-77.5 32.5t-78 -32.5t-33 -77.5zM625 1348q0 -45 32.5 -78t77.5 -33t78 33t33 78t-33 77.5t-78 32.5t-77.5 -32.5t-32.5 -77.5z" />
<glyph unicode="&#x1d9;" horiz-adv-x="1474" d="M381 2288l49 61l24 -13q24 -13 57.5 -34.5t73.5 -45.5t73.5 -45.5t56.5 -34.5l22 -13q0 -2 22.5 12t56.5 34.5t74 45.5t74 46l56 36l23 14l51 -63l-23 -23q-23 -23 -56.5 -55.5t-73.5 -71.5t-73.5 -71.5t-56.5 -54.5l-22 -21h-103l-22 22q-23 23 -56.5 55.5t-73.5 71.5 t-74 72t-56 54zM164 553q0 -84 16.5 -185.5t77.5 -188.5t182 -145.5t330 -58.5q131 0 232.5 41t170 113t103.5 167t35 204v934h-90v-867q0 -45 -2 -91t-12.5 -92t-32 -91t-62.5 -90q-74 -80 -166 -108.5t-192 -28.5q-86 0 -152.5 26.5t-126.5 79.5q-47 41 -71.5 82t-37 81 t-14.5 81t-2 82v936h-186v-881zM485 1757q0 -45 33 -77.5t78 -32.5t78 32.5t33 77.5t-33 78t-78 33t-78 -33t-33 -78zM768 1757q0 -45 33 -77.5t78 -32.5t77.5 32.5t32.5 77.5t-32.5 78t-77.5 33t-78 -33t-33 -78z" />
<glyph unicode="&#x1da;" horiz-adv-x="1189" d="M238 1878l49 61l24 -13q24 -13 57.5 -34.5t73.5 -45.5t73.5 -45.5t56.5 -34.5l22 -13q0 -2 22.5 12t56.5 34.5t74 45.5t74 46l56 36l23 14l51 -63l-23 -23q-23 -23 -56.5 -55.5t-73.5 -71.5t-73.5 -71.5t-56.5 -54.5l-22 -21h-103l-22 22q-23 23 -56.5 55.5t-73.5 71.5 t-74 72t-56 54zM164 358q0 -37 7 -101t42 -126.5t109.5 -109t209.5 -46.5q59 -2 130 24t143 97l33 33h8v-129h174v1024h-174v-635q0 -80 -22.5 -137t-59.5 -95t-86 -56.5t-103 -18.5q-86 0 -134 34t-71.5 79t-27.5 89t-4 64v676h-174v-666zM342 1348q0 -45 33 -78t78 -33 t77.5 33t32.5 78t-32.5 77.5t-77.5 32.5t-78 -32.5t-33 -77.5zM625 1348q0 -45 32.5 -78t77.5 -33t78 33t33 78t-33 77.5t-78 32.5t-77.5 -32.5t-32.5 -77.5z" />
<glyph unicode="&#x1db;" horiz-adv-x="1474" d="M381 2251l317 -260h80l-170 260h-227zM164 553q0 -84 16.5 -185.5t77.5 -188.5t182 -145.5t330 -58.5q131 0 232.5 41t170 113t103.5 167t35 204v934h-90v-867q0 -45 -2 -91t-12.5 -92t-32 -91t-62.5 -90q-74 -80 -166 -108.5t-192 -28.5q-86 0 -152.5 26.5t-126.5 79.5 q-47 41 -71.5 82t-37 81t-14.5 81t-2 82v936h-186v-881zM485 1757q0 -45 33 -77.5t78 -32.5t78 32.5t33 77.5t-33 78t-78 33t-78 -33t-33 -78zM768 1757q0 -45 33 -77.5t78 -32.5t77.5 32.5t32.5 77.5t-32.5 78t-77.5 33t-78 -33t-33 -78z" />
<glyph unicode="&#x1dc;" horiz-adv-x="1189" d="M238 1841l317 -260h80l-170 260h-227zM164 358q0 -37 7 -101t42 -126.5t109.5 -109t209.5 -46.5q59 -2 130 24t143 97l33 33h8v-129h174v1024h-174v-635q0 -80 -22.5 -137t-59.5 -95t-86 -56.5t-103 -18.5q-86 0 -134 34t-71.5 79t-27.5 89t-4 64v676h-174v-666z M342 1348q0 -45 33 -78t78 -33t77.5 33t32.5 78t-32.5 77.5t-77.5 32.5t-78 -32.5t-33 -77.5zM625 1348q0 -45 32.5 -78t77.5 -33t78 33t33 78t-33 77.5t-78 32.5t-77.5 -32.5t-32.5 -77.5z" />
<glyph unicode="&#x1de;" horiz-adv-x="1499" d="M428 1991h641v82h-641v-82zM61 0h95l180 422h706l197 -422h199l-668 1434h-102zM375 514l295 690h8l321 -690h-624zM498 1757q0 -45 32.5 -77.5t77.5 -32.5t78 32.5t33 77.5t-33 78t-78 33t-77.5 -33t-32.5 -78zM780 1757q0 -45 33 -77.5t78 -32.5t77.5 32.5t32.5 77.5 t-32.5 78t-77.5 33t-78 -33t-33 -78z" />
<glyph unicode="&#x1df;" horiz-adv-x="1105" d="M231 1581h641v82h-641v-82zM82 322q0 66 24.5 131t73.5 117.5t121 85t164 32.5t175 -36t136 -101v88q0 168 -50 250t-183 82q-57 0 -100.5 -14.5t-77 -40t-62.5 -63.5t-57 -85l-107 106q29 31 60.5 62t78 55.5t110 40t153.5 15.5q150 0 231.5 -42t119.5 -110t44 -156 t6 -180v-559h-166v100q-59 -57 -151.5 -91t-184.5 -34q-88 0 -155.5 31t-112.5 80t-67.5 111t-22.5 125zM258 319q0 -66 23.5 -113.5t60.5 -81.5t82 -50.5t86 -16.5q39 0 79 14.5t75.5 40t64.5 60.5t47 76v158q-10 25 -29.5 57.5t-50 63t-73.5 52t-103 21.5 q-59 0 -108.5 -23.5t-83 -61.5t-52 -89.5t-18.5 -106.5zM301 1348q0 -45 33 -78t78 -33t77.5 33t32.5 78t-32.5 77.5t-77.5 32.5t-78 -32.5t-33 -77.5zM584 1348q0 -45 32.5 -78t77.5 -33t78 33t33 78t-33 77.5t-78 32.5t-77.5 -32.5t-32.5 -77.5z" />
<glyph unicode="&#x1e2;" horiz-adv-x="2052" d="M1159 1581h641v82h-641v-82zM41 0h119l284 428h605v-428h942v113h-756v604h614v90h-614v512h721v115h-952zM506 520l543 811v-811h-543z" />
<glyph unicode="&#x1e3;" horiz-adv-x="1818" d="M557 1171h641v82h-641v-82zM84 315q0 -61 22.5 -121.5t67.5 -108.5t113.5 -79t161.5 -31q106 0 210.5 47.5t184.5 153.5q31 -37 71.5 -72.5t93 -64.5t118 -46.5t145.5 -17.5q109 0 219.5 46.5t204.5 144.5l-60 61q-88 -92 -165.5 -130t-184.5 -38q-74 0 -139.5 30 t-114.5 84t-76.5 132t-27.5 176v8h755v35q0 158 -46 260.5t-115.5 161t-148.5 81t-146 22.5q-47 0 -98.5 -10.5t-99.5 -30t-88 -46t-64 -59.5q-78 90 -160 118t-189 28q-106 0 -182 -22.5t-151 -80.5l61 -86q59 53 129 85t147 32q31 0 70 -9.5t74 -26.5t60.5 -45t29.5 -65 v-270q-37 43 -78 67.5t-82 38t-77.5 17.5t-63.5 4q-92 0 -164 -31.5t-120 -84t-72.5 -120t-24.5 -137.5zM262 338q0 61 20.5 109.5t55.5 80t81 49t95 17.5q61 0 106.5 -20.5t76 -48t47 -57.5t22.5 -50v-180q-18 -43 -47 -75t-63.5 -53.5t-71.5 -31.5t-70 -10q-53 0 -99 20.5 t-80 56t-53.5 85t-19.5 108.5zM928 561q0 102 25.5 180t66.5 130.5t94 79t107 26.5q123 0 199.5 -105.5t76.5 -291.5v-19h-569z" />
<glyph unicode="&#x1e6;" horiz-adv-x="1673" d="M565 1878l49 61l24 -13q24 -13 57.5 -34.5t73.5 -45.5t73.5 -45.5t56.5 -34.5l22 -13q0 -2 22.5 12t56.5 34.5t74 45.5t74 46l56 36l23 14l51 -63l-23 -23q-23 -23 -56.5 -55.5t-73.5 -71.5t-73.5 -71.5t-56.5 -54.5l-22 -21h-103l-22 22q-23 23 -56.5 55.5t-73.5 71.5 t-74 72t-56 54zM123 737q0 -145 46 -281.5t141.5 -244t242.5 -172t352 -64.5q154 0 272.5 34t196.5 75v-84h176v639h-405v-84h229v-371q-92 -59 -188 -87.5t-219 -28.5q-162 0 -283 49t-201 136t-119.5 207t-39.5 263q0 141 37.5 260t113.5 205t185.5 133t254.5 47 q96 0 180.5 -20.5t150 -53t107.5 -74.5t54 -85h147q-18 45 -62 101t-120 105.5t-187.5 83t-262.5 33.5q-174 0 -320.5 -49t-253 -141t-166 -226.5t-59.5 -304.5z" />
<glyph unicode="&#x1e7;" d="M213 1467l49 61l24 -13q24 -13 57.5 -34.5t73.5 -45.5t73.5 -45.5t56.5 -34.5l22 -13q0 -2 22.5 12t56.5 34.5t74 45.5t74 46l56 36l23 14l51 -63l-23 -23q-23 -23 -56.5 -55.5t-73.5 -71.5t-73.5 -71.5t-56.5 -54.5l-22 -21h-103l-22 22q-23 23 -56.5 55.5t-73.5 71.5 t-74 72t-56 54zM102 514q0 -123 34 -222t95.5 -170t146.5 -109t189 -38q115 0 200 45.5t120 143.5h8v-250q0 -94 -22.5 -159.5t-62.5 -106.5t-94 -59.5t-116 -18.5q-109 0 -175.5 55.5t-121.5 147.5l-113 -103q14 -18 45 -48t78 -59.5t113 -51t149 -21.5q156 0 252.5 44 t149.5 118t72.5 169t19.5 197v1006h-174v-160h-8q-25 86 -106 134.5t-212 48.5q-104 0 -190 -38t-147.5 -108t-95.5 -168t-34 -219zM291 518q0 143 39 228t91 130.5t106.5 58.5t84.5 13q68 0 121 -29.5t89 -80t54.5 -116t18.5 -134.5v-152q0 -86 -23.5 -151.5t-62.5 -110.5 t-90 -68.5t-107 -23.5q-49 0 -105 17.5t-104.5 64.5t-80 133t-31.5 221z" />
<glyph unicode="&#x1e8;" horiz-adv-x="1482" d="M418 1878l49 61l24 -13q24 -13 57.5 -34.5t73.5 -45.5t73.5 -45.5t56.5 -34.5l22 -13q0 -2 22.5 12t56.5 34.5t74 45.5t74 46l56 36l23 14l51 -63l-23 -23q-23 -23 -56.5 -55.5t-73.5 -71.5t-73.5 -71.5t-56.5 -54.5l-22 -21h-103l-22 22q-23 23 -56.5 55.5t-73.5 71.5 t-74 72t-56 54zM246 0h186v504l232 248l544 -752h213l-639 879l521 555h-103l-768 -807v807h-186v-1434z" />
<glyph unicode="&#x1e9;" horiz-adv-x="1097" d="M-106 1854l49 61l24 -13q24 -13 57.5 -34.5t73.5 -45.5t73.5 -45.5t56.5 -34.5l22 -13q0 -2 22.5 12t56.5 34.5t74 45.5t74 46l56 36l23 14l51 -63l-23 -23q-23 -23 -56.5 -55.5t-73.5 -71.5t-73.5 -71.5t-56.5 -54.5l-22 -21h-103l-22 22q-23 23 -56.5 55.5t-73.5 71.5 t-74 72t-56 54zM164 0h174v385l119 121l411 -506h230l-514 631l391 393h-133l-504 -508v918h-174v-1434z" />
<glyph unicode="&#x1ea;" horiz-adv-x="1771" d="M582 -278q0 -70 48 -96.5t104 -26.5q47 0 93 16.5t79 40.5l-23 56q-20 -10 -51 -22.5t-60 -12.5q-43 0 -54 26.5t-11 38.5q0 35 18.5 68t49 64.5t69.5 60t78 53.5h-98l-95 -68q-55 -41 -101 -90t-46 -108zM102 717q0 -115 44 -245t138.5 -240.5t240 -183.5t347.5 -73 q137 0 249 34t201 91.5t154.5 132t107.5 157.5t63.5 167t21.5 160q0 115 -47 245t-145.5 240.5t-249 183t-355.5 72.5q-203 0 -348 -71.5t-239.5 -181t-138.5 -240.5t-44 -248zM303 717q0 143 44 263t121 206t181.5 134t227.5 48q121 0 228 -48t188 -134t128 -206t47 -263 t-47 -263t-128 -206t-188.5 -134t-227.5 -48q-123 0 -227.5 48t-181.5 134t-121 206t-44 263z" />
<glyph unicode="&#x1eb;" horiz-adv-x="1265" d="M346 -278q0 -70 48 -96.5t104 -26.5q47 0 93 16.5t79 40.5l-23 56q-20 -10 -51 -22.5t-60 -12.5q-43 0 -54 26.5t-11 38.5q0 35 18.5 68t49 64.5t69.5 60t78 53.5h-98l-95 -68q-55 -41 -101 -90t-46 -108zM102 510q0 106 38 203.5t106.5 171t168 118t222.5 44.5 q121 0 218 -44.5t166 -118t105.5 -171t36.5 -203.5t-36.5 -203.5t-105.5 -171.5t-166 -117t-218 -43q-123 0 -222.5 44t-168 118t-106.5 171.5t-38 201.5zM297 510q0 -141 31.5 -230.5t82 -138.5t110 -66.5t114.5 -17.5t114.5 17.5t108.5 66.5t80 138.5t31 230.5 q0 143 -31 232t-80 138.5t-108.5 67t-114.5 17.5t-114.5 -17.5t-110 -67t-82 -138.5t-31.5 -232z" />
<glyph unicode="&#x1ec;" horiz-adv-x="1771" d="M551 1581h641v82h-641v-82zM582 -278q0 -70 48 -96.5t104 -26.5q47 0 93 16.5t79 40.5l-23 56q-20 -10 -51 -22.5t-60 -12.5q-43 0 -54 26.5t-11 38.5q0 35 18.5 68t49 64.5t69.5 60t78 53.5h-98l-95 -68q-55 -41 -101 -90t-46 -108zM102 717q0 -115 44 -245 t138.5 -240.5t240 -183.5t347.5 -73q137 0 249 34t201 91.5t154.5 132t107.5 157.5t63.5 167t21.5 160q0 115 -47 245t-145.5 240.5t-249 183t-355.5 72.5q-203 0 -348 -71.5t-239.5 -181t-138.5 -240.5t-44 -248zM303 717q0 143 44 263t121 206t181.5 134t227.5 48 q121 0 228 -48t188 -134t128 -206t47 -263t-47 -263t-128 -206t-188.5 -134t-227.5 -48q-123 0 -227.5 48t-181.5 134t-121 206t-44 263z" />
<glyph unicode="&#x1ed;" horiz-adv-x="1265" d="M317 1169h641v82h-641v-82zM346 -278q0 -70 48 -96.5t104 -26.5q47 0 93 16.5t79 40.5l-23 56q-20 -10 -51 -22.5t-60 -12.5q-43 0 -54 26.5t-11 38.5q0 35 18.5 68t49 64.5t69.5 60t78 53.5h-98l-95 -68q-55 -41 -101 -90t-46 -108zM102 510q0 106 38 203.5t106.5 171 t168 118t222.5 44.5q121 0 218 -44.5t166 -118t105.5 -171t36.5 -203.5t-36.5 -203.5t-105.5 -171.5t-166 -117t-218 -43q-123 0 -222.5 44t-168 118t-106.5 171.5t-38 201.5zM297 510q0 -141 31.5 -230.5t82 -138.5t110 -66.5t114.5 -17.5t114.5 17.5t108.5 66.5t80 138.5 t31 230.5q0 143 -31 232t-80 138.5t-108.5 67t-114.5 17.5t-114.5 -17.5t-110 -67t-82 -138.5t-31.5 -232z" />
<glyph unicode="&#x1f0;" horiz-adv-x="595" d="M-35 1878l49 61l24 -13q24 -13 57.5 -34.5t73.5 -45.5t73.5 -45.5t56.5 -34.5l22 -13q0 -2 22.5 12t56.5 34.5t74 45.5t74 46l56 36l23 14l51 -63l-23 -23q-23 -23 -56.5 -55.5t-73.5 -71.5t-73.5 -71.5t-56.5 -54.5l-22 -21h-103l-22 22q-23 23 -56.5 55.5t-73.5 71.5 t-74 72t-56 54zM-123 -412q45 -59 105.5 -79.5t126.5 -20.5q45 0 97 16.5t97 62.5t75 127t30 210v1120h-177v-1212q0 -47 -4 -91.5t-17 -79t-39 -55t-67 -20.5q-51 0 -76.5 24.5t-47.5 77.5zM211 1348q0 -45 31.5 -78t79.5 -33q45 0 77.5 33t32.5 78t-32.5 77.5t-77.5 32.5 q-47 0 -79 -32.5t-32 -77.5z" />
<glyph unicode="&#x1f1;" horiz-adv-x="2930" d="M1628 0h1242v113h-945l910 1321h-1155v-113h866zM266 0v1434h471q170 0 311.5 -54.5t243 -149.5t157.5 -226.5t56 -282.5q0 -158 -58 -290t-159.5 -228.5t-237 -149.5t-288.5 -53h-496zM453 90h225q168 0 285.5 56.5t193.5 146.5t111 201.5t35 222.5q0 123 -41 236.5 t-120 200.5t-196 138t-268 51h-225v-1253z" />
<glyph unicode="&#x1f2;" horiz-adv-x="2570" d="M1608 0h895v82h-643l649 942h-868v-82h616zM266 0v1434h471q170 0 311.5 -54.5t243 -149.5t157.5 -226.5t56 -282.5q0 -158 -58 -290t-159.5 -228.5t-237 -149.5t-288.5 -53h-496zM453 90h225q168 0 285.5 56.5t193.5 146.5t111 201.5t35 222.5q0 123 -41 236.5 t-120 200.5t-196 138t-268 51h-225v-1253z" />
<glyph unicode="&#x1f3;" horiz-adv-x="2240" d="M1278 0h895v82h-643l649 942h-868v-82h616zM102 514q0 -123 35 -222t97.5 -170t148.5 -109t188 -38q242 0 320 191h8v-166h174v1434h-174v-578h-8q-20 53 -54 89t-77 58.5t-91 33t-98 10.5q-102 0 -188 -38t-148.5 -108t-97.5 -168t-35 -219zM297 510q0 117 25.5 199 t69.5 134t101.5 75.5t120.5 23.5q57 0 108.5 -23.5t90.5 -69.5t62.5 -111.5t23.5 -149.5v-178q0 -68 -22.5 -128.5t-60.5 -104.5t-90 -69.5t-112 -25.5q-66 0 -123 23.5t-100 74.5t-68.5 133t-25.5 197z" />
<glyph unicode="&#x1f4;" horiz-adv-x="1673" d="M123 737q0 -145 46 -281.5t141.5 -244t242.5 -172t352 -64.5q154 0 272.5 34t196.5 75v-84h176v639h-405v-84h229v-371q-92 -59 -188 -87.5t-219 -28.5q-162 0 -283 49t-201 136t-119.5 207t-39.5 263q0 141 37.5 260t113.5 205t185.5 133t254.5 47q96 0 180.5 -20.5 t150 -53t107.5 -74.5t54 -85h147q-18 45 -62 101t-120 105.5t-187.5 83t-262.5 33.5q-174 0 -320.5 -49t-253 -141t-166 -226.5t-59.5 -304.5zM637 1608l170 260h227l-317 -260h-80z" />
<glyph unicode="&#x1f5;" d="M102 514q0 -123 34 -222t95.5 -170t146.5 -109t189 -38q115 0 200 45.5t120 143.5h8v-250q0 -94 -22.5 -159.5t-62.5 -106.5t-94 -59.5t-116 -18.5q-109 0 -175.5 55.5t-121.5 147.5l-113 -103q14 -18 45 -48t78 -59.5t113 -51t149 -21.5q156 0 252.5 44t149.5 118 t72.5 169t19.5 197v1006h-174v-160h-8q-25 86 -106 134.5t-212 48.5q-104 0 -190 -38t-147.5 -108t-95.5 -168t-34 -219zM291 518q0 143 39 228t91 130.5t106.5 58.5t84.5 13q68 0 121 -29.5t89 -80t54.5 -116t18.5 -134.5v-152q0 -86 -23.5 -151.5t-62.5 -110.5t-90 -68.5 t-107 -23.5q-49 0 -105 17.5t-104.5 64.5t-80 133t-31.5 221zM418 1198l170 260h227l-317 -260h-80z" />
<glyph unicode="&#x1f8;" horiz-adv-x="1740" d="M-106 1841l317 -260h80l-170 260h-227zM246 0h94v1096h8l1137 -1121h10v1459h-94v-1096h-8l-1137 1120h-10v-1458z" />
<glyph unicode="&#x1f9;" horiz-adv-x="1189" d="M234 1429l317 -260h80l-170 260h-227zM164 0h174v633q0 80 22.5 137t61.5 96t89 57.5t103 18.5q86 0 133.5 -34t69 -79t25.5 -90t4 -65v-674h174v664q0 37 -6 101t-40 126.5t-107.5 109t-209.5 46.5h-8q-56 0 -125 -24q-74 -26 -145 -97l-33 -33h-8v131h-174v-1024z" />
<glyph unicode="&#x1fa;" horiz-adv-x="1499" d="M709 2007l170 260h227l-317 -260h-80zM61 0h95l180 422h706l197 -422h199l-668 1434h-102zM375 514l295 690h8l321 -690h-624zM561 1698q0 -39 14.5 -73t40 -59.5t60.5 -41t74 -15.5t73.5 15.5t60 41t40 59.5t14.5 73q0 31 -11.5 64.5t-35 60t-59 44t-82.5 17.5 t-82 -17.5t-58.5 -44t-36 -60t-12.5 -64.5zM629 1698q0 51 34.5 85t86.5 34q49 0 84.5 -34t35.5 -85t-35.5 -86t-84.5 -35q-51 0 -86 35t-35 86z" />
<glyph unicode="&#x1fb;" horiz-adv-x="1105" d="M512 1597l170 260h227l-317 -260h-80zM82 322q0 66 24.5 131t73.5 117.5t121 85t164 32.5t175 -36t136 -101v88q0 168 -50 250t-183 82q-57 0 -100.5 -14.5t-77 -40t-62.5 -63.5t-57 -85l-107 106q29 31 60.5 62t78 55.5t110 40t153.5 15.5q150 0 231.5 -42t119.5 -110 t44 -156t6 -180v-559h-166v100q-59 -57 -151.5 -91t-184.5 -34q-88 0 -155.5 31t-112.5 80t-67.5 111t-22.5 125zM258 319q0 -66 23.5 -113.5t60.5 -81.5t82 -50.5t86 -16.5q39 0 79 14.5t75.5 40t64.5 60.5t47 76v158q-10 25 -29.5 57.5t-50 63t-73.5 52t-103 21.5 q-59 0 -108.5 -23.5t-83 -61.5t-52 -89.5t-18.5 -106.5zM365 1288q0 -39 14 -72.5t39.5 -59.5t60.5 -41t74 -15t74 15t60.5 41t39.5 59.5t14 72.5q0 31 -11 64.5t-34.5 60.5t-59.5 44.5t-83 17.5t-82 -17.5t-58.5 -44.5t-35.5 -60.5t-12 -64.5zM432 1288q0 51 35 85t86 34 q49 0 85 -34t36 -85t-36 -86t-85 -35q-51 0 -86 35t-35 86z" />
<glyph unicode="&#x1fc;" horiz-adv-x="2052" d="M1440 1581l170 260h227l-317 -260h-80zM41 0h119l284 428h605v-428h942v113h-756v604h614v90h-614v512h721v115h-952zM506 520l543 811v-811h-543z" />
<glyph unicode="&#x1fd;" horiz-adv-x="1818" d="M838 1171l170 260h227l-317 -260h-80zM84 315q0 -61 22.5 -121.5t67.5 -108.5t113.5 -79t161.5 -31q106 0 210.5 47.5t184.5 153.5q31 -37 71.5 -72.5t93 -64.5t118 -46.5t145.5 -17.5q109 0 219.5 46.5t204.5 144.5l-60 61q-88 -92 -165.5 -130t-184.5 -38 q-74 0 -139.5 30t-114.5 84t-76.5 132t-27.5 176v8h755v35q0 158 -46 260.5t-115.5 161t-148.5 81t-146 22.5q-47 0 -98.5 -10.5t-99.5 -30t-88 -46t-64 -59.5q-78 90 -160 118t-189 28q-106 0 -182 -22.5t-151 -80.5l61 -86q59 53 129 85t147 32q31 0 70 -9.5t74 -26.5 t60.5 -45t29.5 -65v-270q-37 43 -78 67.5t-82 38t-77.5 17.5t-63.5 4q-92 0 -164 -31.5t-120 -84t-72.5 -120t-24.5 -137.5zM262 338q0 61 20.5 109.5t55.5 80t81 49t95 17.5q61 0 106.5 -20.5t76 -48t47 -57.5t22.5 -50v-180q-18 -43 -47 -75t-63.5 -53.5t-71.5 -31.5 t-70 -10q-53 0 -99 20.5t-80 56t-53.5 85t-19.5 108.5zM928 561q0 102 25.5 180t66.5 130.5t94 79t107 26.5q123 0 199.5 -105.5t76.5 -291.5v-19h-569z" />
<glyph unicode="&#x1fe;" horiz-adv-x="1794" d="M856 1581l170 260h227l-317 -260h-80zM123 705q0 -80 21.5 -168t65.5 -172t111.5 -159t161.5 -128l-53 -103h141l27 50q66 -23 137.5 -36.5t157.5 -13.5q137 0 247.5 33t196.5 89.5t149.5 129t104.5 153.5t60.5 165t19.5 160q0 80 -21.5 169t-67.5 174t-116.5 159.5 t-167.5 127.5l66 123h-145l-37 -69q-131 45 -289 45q-203 0 -348.5 -70t-239.5 -177.5t-138 -236t-44 -245.5zM324 705q0 143 44 260.5t120.5 201.5t181 130t227.5 46q121 0 233 -51l-587 -1104q-102 86 -160.5 217.5t-58.5 299.5zM649 119l590 1108q106 -84 168.5 -217 t62.5 -305q0 -143 -44 -261t-121.5 -203t-182 -131.5t-225.5 -46.5q-137 1 -248 56z" />
<glyph unicode="&#x1ff;" horiz-adv-x="1306" d="M614 1171l170 260h227l-317 -260h-80zM123 510q0 -131 54 -244.5t153 -187.5l-58 -103h134l24 43q47 -20 102.5 -31.5t116.5 -11.5q123 0 222.5 44t168 118t106.5 171.5t38 201.5q0 135 -59.5 253t-170.5 191l54 95h-138l-20 -39q-47 16 -96 26.5t-105 10.5 q-121 0 -218 -44.5t-165.5 -118t-105.5 -171t-37 -203.5zM317 510q0 143 31 233.5t80 141.5t108.5 70.5t114.5 19.5q37 0 77 -8.5t79 -30.5l-418 -750q-33 53 -52.5 132t-19.5 192zM473 96l426 760q41 -53 65.5 -137t24.5 -209q0 -141 -31.5 -231.5t-82 -141.5t-109.5 -70.5 t-115 -19.5q-45 0 -91 10t-87 39z" />
<glyph unicode="&#x202;" horiz-adv-x="1499" d="M418 1581q0 57 22.5 108.5t63.5 89t95.5 59t119.5 21.5q63 0 118.5 -21.5t96.5 -59t63.5 -89t22.5 -108.5h-86q-4 92 -66.5 148.5t-148.5 56.5q-84 0 -146.5 -56.5t-68.5 -148.5h-86zM61 0h95l180 422h706l197 -422h199l-668 1434h-102zM375 514l295 690h8l321 -690h-624 z" />
<glyph unicode="&#x203;" horiz-adv-x="1105" d="M240 1170q0 57 22.5 108.5t63.5 89t95.5 59t119.5 21.5q63 0 118.5 -21.5t96.5 -59t63.5 -89t22.5 -108.5h-86q-4 92 -66.5 148.5t-148.5 56.5q-84 0 -146.5 -56.5t-68.5 -148.5h-86zM82 322q0 66 24.5 131t73.5 117.5t121 85t164 32.5t175 -36t136 -101v88 q0 168 -50 250t-183 82q-57 0 -100.5 -14.5t-77 -40t-62.5 -63.5t-57 -85l-107 106q29 31 60.5 62t78 55.5t110 40t153.5 15.5q150 0 231.5 -42t119.5 -110t44 -156t6 -180v-559h-166v100q-59 -57 -151.5 -91t-184.5 -34q-88 0 -155.5 31t-112.5 80t-67.5 111t-22.5 125z M258 319q0 -66 23.5 -113.5t60.5 -81.5t82 -50.5t86 -16.5q39 0 79 14.5t75.5 40t64.5 60.5t47 76v158q-10 25 -29.5 57.5t-50 63t-73.5 52t-103 21.5q-59 0 -108.5 -23.5t-83 -61.5t-52 -89.5t-18.5 -106.5z" />
<glyph unicode="&#x206;" d="M408 1581q0 57 22.5 108.5t63.5 89t95.5 59t119.5 21.5q63 0 118.5 -21.5t96.5 -59t63.5 -89t22.5 -108.5h-86q-4 92 -66.5 148.5t-148.5 56.5q-84 0 -146.5 -56.5t-68.5 -148.5h-86zM246 0h925v113h-739v600h635v94h-635v514h739v113h-925v-1434z" />
<glyph unicode="&#x207;" horiz-adv-x="1175" d="M287 1170q0 57 22.5 108.5t63.5 89t95.5 59t119.5 21.5q63 0 118.5 -21.5t96.5 -59t63.5 -89t22.5 -108.5h-86q-4 92 -66.5 148.5t-148.5 56.5q-84 0 -146.5 -56.5t-68.5 -148.5h-86zM102 518q0 -102 32 -199.5t96.5 -174t164 -123t234.5 -46.5q131 0 241.5 46.5 t192.5 132.5l-66 65q-43 -37 -80.5 -67.5t-76.5 -51t-81 -32t-93 -11.5q-57 0 -122 17.5t-120 62.5t-92 125t-37 205h778v43q0 137 -39 237.5t-105.5 166t-154.5 98t-186 32.5q-104 0 -192.5 -35.5t-154 -104t-102.5 -166t-37 -220.5zM295 549q0 82 17.5 158.5t53 136 t91 95.5t131.5 36q145 0 226 -113.5t81 -312.5h-600z" />
<glyph unicode="&#x20a;" horiz-adv-x="841" d="M119 1581q0 57 22.5 108.5t63.5 89t95.5 59t119.5 21.5q63 0 118.5 -21.5t96.5 -59t63.5 -89t22.5 -108.5h-86q-4 92 -66.5 148.5t-148.5 56.5q-84 0 -146.5 -56.5t-68.5 -148.5h-86zM328 0h186v1434h-186v-1434z" />
<glyph unicode="&#x20b;" horiz-adv-x="630" d="M14 1581q0 57 22.5 108.5t63.5 89t95.5 59t119.5 21.5q63 0 118.5 -21.5t96.5 -59t63.5 -89t22.5 -108.5h-86q-4 92 -66.5 148.5t-148.5 56.5q-84 0 -146.5 -56.5t-68.5 -148.5h-86zM205 1348q0 -45 32.5 -78t77.5 -33t78 33t33 78t-33 77.5t-78 32.5t-77.5 -32.5 t-32.5 -77.5zM229 0h174v1024h-174v-1024z" />
<glyph unicode="&#x20e;" horiz-adv-x="1771" d="M571 1581q0 57 22.5 108.5t63.5 89t95.5 59t119.5 21.5q63 0 118.5 -21.5t96.5 -59t63.5 -89t22.5 -108.5h-86q-4 92 -66.5 148.5t-148.5 56.5q-84 0 -146.5 -56.5t-68.5 -148.5h-86zM102 717q0 -115 44 -245t138.5 -240.5t240 -183.5t347.5 -73q137 0 249 34t201 91.5 t154.5 132t107.5 157.5t63.5 167t21.5 160q0 115 -47 245t-145.5 240.5t-249 183t-355.5 72.5q-203 0 -348 -71.5t-239.5 -181t-138.5 -240.5t-44 -248zM303 717q0 143 44 263t121 206t181.5 134t227.5 48q121 0 228 -48t188 -134t128 -206t47 -263t-47 -263t-128 -206 t-188.5 -134t-227.5 -48q-123 0 -227.5 48t-181.5 134t-121 206t-44 263z" />
<glyph unicode="&#x20f;" horiz-adv-x="1265" d="M336 1170q0 57 22.5 108.5t63.5 89t95.5 59t119.5 21.5q63 0 118.5 -21.5t96.5 -59t63.5 -89t22.5 -108.5h-86q-4 92 -66.5 148.5t-148.5 56.5q-84 0 -146.5 -56.5t-68.5 -148.5h-86zM102 510q0 106 38 203.5t106.5 171t168 118t222.5 44.5q121 0 218 -44.5t166 -118 t105.5 -171t36.5 -203.5t-36.5 -203.5t-105.5 -171.5t-166 -117t-218 -43q-123 0 -222.5 44t-168 118t-106.5 171.5t-38 201.5zM297 510q0 -141 31.5 -230.5t82 -138.5t110 -66.5t114.5 -17.5t114.5 17.5t108.5 66.5t80 138.5t31 230.5q0 143 -31 232t-80 138.5t-108.5 67 t-114.5 17.5t-114.5 -17.5t-110 -67t-82 -138.5t-31.5 -232z" />
<glyph unicode="&#x212;" horiz-adv-x="1470" d="M176 1581q0 57 22.5 108.5t63.5 89t95.5 59t119.5 21.5q63 0 118.5 -21.5t96.5 -59t63.5 -89t22.5 -108.5h-86q-4 92 -66.5 148.5t-148.5 56.5q-84 0 -146.5 -56.5t-68.5 -148.5h-86zM246 0h186v633h90q57 0 95 -10.5t69 -35t57.5 -63.5t63.5 -96l162 -240 q31 -47 60.5 -86t64 -66.5t79 -44t105.5 -16.5q45 0 73.5 4.5t57.5 20.5v76q-10 -2 -20.5 -3t-20.5 -1q-43 0 -75.5 12t-61.5 35.5t-55.5 57.5t-55.5 77q-86 125 -133 199.5t-74.5 115.5t-45 59.5t-42.5 30.5l-20 11v8q98 6 168.5 43t116 92t66 119.5t20.5 126.5 q0 55 -21.5 120.5t-74 122t-142.5 94.5t-227 38h-465v-1434zM432 725v618h207q78 0 140.5 -22.5t107.5 -62t68.5 -95t23.5 -121.5q0 -55 -21.5 -111.5t-64.5 -102.5t-105.5 -74.5t-144.5 -28.5h-211z" />
<glyph unicode="&#x213;" horiz-adv-x="782" d="M162 1170q0 57 22.5 108.5t63.5 89t95.5 59t119.5 21.5q63 0 118.5 -21.5t96.5 -59t63.5 -89t22.5 -108.5h-86q-4 92 -66.5 148.5t-148.5 56.5q-84 0 -146.5 -56.5t-68.5 -148.5h-86zM164 0h174v618q0 84 19.5 142.5t50 95.5t67.5 53.5t72 16.5q47 0 87 -31t58 -57 l70 127q-18 25 -44 41t-51.5 25t-47 12.5t-31.5 3.5q-86 0 -143.5 -47.5t-94.5 -139.5h-12v164h-174v-1024z" />
<glyph unicode="&#x216;" horiz-adv-x="1474" d="M436 1581q0 57 22.5 108.5t63.5 89t95.5 59t119.5 21.5q63 0 118.5 -21.5t96.5 -59t63.5 -89t22.5 -108.5h-86q-4 92 -66.5 148.5t-148.5 56.5q-84 0 -146.5 -56.5t-68.5 -148.5h-86zM164 553q0 -84 16.5 -185.5t77.5 -188.5t182 -145.5t330 -58.5q131 0 232.5 41 t170 113t103.5 167t35 204v934h-90v-867q0 -45 -2 -91t-12.5 -92t-32 -91t-62.5 -90q-74 -80 -166 -108.5t-192 -28.5q-86 0 -152.5 26.5t-126.5 79.5q-47 41 -71.5 82t-37 81t-14.5 81t-2 82v936h-186v-881z" />
<glyph unicode="&#x217;" horiz-adv-x="1189" d="M291 1170q0 57 22.5 108.5t63.5 89t95.5 59t119.5 21.5q63 0 118.5 -21.5t96.5 -59t63.5 -89t22.5 -108.5h-86q-4 92 -66.5 148.5t-148.5 56.5q-84 0 -146.5 -56.5t-68.5 -148.5h-86zM164 358q0 -37 7 -101t42 -126.5t109.5 -109t209.5 -46.5h9q56 0 122 24q71 26 142 97 l33 33h8v-129h174v1024h-174v-635q0 -80 -22.5 -137t-59.5 -95t-86 -56.5t-103 -18.5q-86 0 -134 34t-71.5 79t-27.5 89t-4 64v676h-174v-666z" />
<glyph unicode="&#x218;" horiz-adv-x="1280" d="M123 362q2 -86 44 -157.5t112.5 -122.5t166 -79t205.5 -28q246 0 386.5 109t140.5 305q0 133 -63.5 218t-159 140.5t-207 91t-207 74.5t-159 89.5t-63.5 134.5q0 45 21.5 87t63.5 73.5t104.5 51t142.5 19.5q131 0 210 -56.5t95 -176.5h162q-12 80 -56 140t-108.5 101 t-144.5 61.5t-162 20.5q-100 0 -187 -24.5t-151.5 -72.5t-101.5 -120t-37 -166q0 -135 61.5 -217t154.5 -132t201.5 -83t202 -69.5t155 -91t61.5 -148.5q0 -74 -26 -124t-72 -83t-111.5 -47t-143.5 -14q-100 0 -167.5 33.5t-109.5 80.5t-60.5 97.5t-20.5 84.5h-172z M567 -100v-351h70l123 351h-193z" />
<glyph unicode="&#x219;" horiz-adv-x="983" d="M102 279q0 -57 24 -111.5t72 -97.5t120.5 -69t170.5 -26q104 0 179 21.5t122.5 61.5t69 93.5t21.5 118.5q0 86 -44 144.5t-112 99.5t-144.5 71.5t-144 59.5t-111.5 62.5t-44 83.5q0 27 9 57.5t31.5 57t62.5 43t99 16.5q66 0 110 -17.5t69.5 -43t37 -56.5t11.5 -57h118 q0 55 -25.5 102t-72.5 81t-112.5 53.5t-145.5 19.5q-70 0 -130 -17.5t-104 -54.5t-70 -95.5t-26 -140.5q0 -74 43 -125t108.5 -90t140.5 -69.5t140.5 -62.5t108.5 -69.5t43 -91.5q0 -27 -10 -57.5t-36 -56t-72 -43t-117 -17.5q-72 0 -119 24.5t-76 59.5t-41 73t-12 65h-142z M406 -100v-351h69l123 351h-192z" />
<glyph unicode="&#x21a;" horiz-adv-x="1366" d="M41 1321h549v-1321h186v1321h549v113h-1284v-113zM590 -100v-351h69l123 351h-192z" />
<glyph unicode="&#x21b;" horiz-adv-x="768" d="M61 942v82h179v315h174v-315h248v-82h-248v-680q0 -25 2 -56.5t12 -59t31.5 -46t60.5 -18.5q49 0 82 37t53 80l97 -99q-100 -100 -228 -100q-53 0 -104 18.5t-91 56.5t-64.5 97t-24.5 139v631h-179zM406 -100v-351h69l123 351h-192z" />
<glyph unicode="&#x21e;" horiz-adv-x="1722" d="M504 1878l49 61l24 -13q24 -13 57.5 -34.5t73.5 -45.5t73.5 -45.5t56.5 -34.5l22 -13q0 -2 22.5 12t56.5 34.5t74 45.5t74 46l56 36l23 14l51 -63l-23 -23q-23 -23 -56.5 -55.5t-73.5 -71.5t-73.5 -71.5t-56.5 -54.5l-22 -21h-103l-22 22q-23 23 -56.5 55.5t-73.5 71.5 t-74 72t-56 54zM246 0h186v713h858v-713h187v1434h-187v-627h-858v627h-186v-1434z" />
<glyph unicode="&#x21f;" horiz-adv-x="1165" d="M225 1854l49 61l24 -13q24 -13 57.5 -34.5t73.5 -45.5t73.5 -45.5t56.5 -34.5l22 -13q0 -2 22.5 12t56.5 34.5t74 45.5t74 46l56 36l23 14l51 -63l-23 -23q-23 -23 -56.5 -55.5t-73.5 -71.5t-73.5 -71.5t-56.5 -54.5l-22 -21h-103l-22 22q-23 23 -56.5 55.5t-73.5 71.5 t-74 72t-56 54zM164 0h174v592q0 41 6 100.5t34 114.5t83 95t153 40q70 0 112 -25.5t64.5 -68.5t29.5 -100.5t7 -118.5v-629h174v676q0 115 -32.5 187.5t-81.5 113.5t-107.5 55.5t-111.5 14.5q-72 0 -151 -28t-148 -106l-23 -28h-8v549h-174v-1434z" />
<glyph unicode="&#x226;" horiz-adv-x="1499" d="M608 1692q0 -45 33 -78t78 -33t77.5 33t32.5 78t-32.5 77.5t-77.5 32.5t-78 -32.5t-33 -77.5zM61 0h95l180 422h706l197 -422h199l-668 1434h-102zM375 514l295 690h8l321 -690h-624z" />
<glyph unicode="&#x227;" horiz-adv-x="1105" d="M430 1280q0 -45 33 -78t78 -33t77.5 33t32.5 78t-32.5 77.5t-77.5 32.5t-78 -32.5t-33 -77.5zM82 322q0 66 24.5 131t73.5 117.5t121 85t164 32.5t175 -36t136 -101v88q0 168 -50 250t-183 82q-57 0 -100.5 -14.5t-77 -40t-62.5 -63.5t-57 -85l-107 106q29 31 60.5 62 t78 55.5t110 40t153.5 15.5q150 0 231.5 -42t119.5 -110t44 -156t6 -180v-559h-166v100q-59 -57 -151.5 -91t-184.5 -34q-88 0 -155.5 31t-112.5 80t-67.5 111t-22.5 125zM258 319q0 -66 23.5 -113.5t60.5 -81.5t82 -50.5t86 -16.5q39 0 79 14.5t75.5 40t64.5 60.5t47 76 v158q-10 25 -29.5 57.5t-50 63t-73.5 52t-103 21.5q-59 0 -108.5 -23.5t-83 -61.5t-52 -89.5t-18.5 -106.5z" />
<glyph unicode="&#x228;" d="M573 -375q31 -4 66.5 -8t70.5 -4q43 0 85 9t75 30.5t53.5 53.5t20.5 79q0 66 -55.5 103.5t-122.5 37.5h-25q-12 0 -25 -2l25 90h-68l-51 -168q14 4 38 6t38 2q78 0 104.5 -24.5t26.5 -48.5q0 -35 -18.5 -55.5t-47 -31t-62.5 -14.5t-62 -4h-27q-12 0 -23 4zM246 0h925v113 h-739v600h635v94h-635v514h739v113h-925v-1434z" />
<glyph unicode="&#x229;" horiz-adv-x="1175" d="M496 -399q31 -4 66.5 -8t70.5 -4q43 0 85 9t75 30.5t53.5 53.5t20.5 79q0 66 -55.5 103.5t-122.5 37.5h-25q-12 0 -25 -2l25 90h-68l-51 -168q14 4 38 6t38 2q78 0 104.5 -24.5t26.5 -48.5q0 -35 -18.5 -55.5t-47 -31t-62.5 -14.5t-62 -4h-27q-12 0 -23 4zM102 518 q0 -102 32 -199.5t96.5 -174t164 -123t234.5 -46.5q131 0 241.5 46.5t192.5 132.5l-66 65q-43 -37 -80.5 -67.5t-76.5 -51t-81 -32t-93 -11.5q-57 0 -122 17.5t-120 62.5t-92 125t-37 205h778v43q0 137 -39 237.5t-105.5 166t-154.5 98t-186 32.5q-104 0 -192.5 -35.5 t-154 -104t-102.5 -166t-37 -220.5zM295 549q0 82 17.5 158.5t53 136t91 95.5t131.5 36q145 0 226 -113.5t81 -312.5h-600z" />
<glyph unicode="&#x22a;" horiz-adv-x="1771" d="M563 1991h641v82h-641v-82zM102 717q0 -115 44 -245t138.5 -240.5t240 -183.5t347.5 -73q137 0 249 34t201 91.5t154.5 132t107.5 157.5t63.5 167t21.5 160q0 115 -47 245t-145.5 240.5t-249 183t-355.5 72.5q-203 0 -348 -71.5t-239.5 -181t-138.5 -240.5t-44 -248z M303 717q0 143 44 263t121 206t181.5 134t227.5 48q121 0 228 -48t188 -134t128 -206t47 -263t-47 -263t-128 -206t-188.5 -134t-227.5 -48q-123 0 -227.5 48t-181.5 134t-121 206t-44 263zM633 1757q0 -45 32.5 -77.5t77.5 -32.5t78 32.5t33 77.5t-33 78t-78 33t-77.5 -33 t-32.5 -78zM915 1757q0 -45 33 -77.5t78 -32.5t78 32.5t33 77.5t-33 78t-78 33t-78 -33t-33 -78z" />
<glyph unicode="&#x22b;" horiz-adv-x="1265" d="M313 1581h641v82h-641v-82zM102 510q0 106 38 203.5t106.5 171t168 118t222.5 44.5q121 0 218 -44.5t166 -118t105.5 -171t36.5 -203.5t-36.5 -203.5t-105.5 -171.5t-166 -117t-218 -43q-123 0 -222.5 44t-168 118t-106.5 171.5t-38 201.5zM297 510q0 -141 31.5 -230.5 t82 -138.5t110 -66.5t114.5 -17.5t114.5 17.5t108.5 66.5t80 138.5t31 230.5q0 143 -31 232t-80 138.5t-108.5 67t-114.5 17.5t-114.5 -17.5t-110 -67t-82 -138.5t-31.5 -232zM381 1348q0 -45 32.5 -78t78.5 -33q45 0 77.5 33t32.5 78t-32.5 77.5t-77.5 32.5t-78 -32.5 t-33 -77.5zM664 1348q0 -45 32.5 -78t77.5 -33t78 33t33 78t-33 77.5t-78 32.5t-77.5 -32.5t-32.5 -77.5z" />
<glyph unicode="&#x22c;" horiz-adv-x="1771" d="M407 1966h641v82h-641v-82zM102 717q0 -115 44 -245t138.5 -240.5t240 -183.5t347.5 -73q137 0 249 34t201 91.5t154.5 132t107.5 157.5t63.5 167t21.5 160q0 115 -47 245t-145.5 240.5t-249 183t-355.5 72.5q-203 0 -348 -71.5t-239.5 -181t-138.5 -240.5t-44 -248z M303 717q0 143 44 263t121 206t181.5 134t227.5 48q121 0 228 -48t188 -134t128 -206t47 -263t-47 -263t-128 -206t-188.5 -134t-227.5 -48q-123 0 -227.5 48t-181.5 134t-121 206t-44 263zM504 1647l55 -31q23 39 58.5 64.5t70.5 25.5q27 0 52.5 -8t47.5 -19 q74 -29 135.5 -51t114.5 -22q72 0 132.5 48t95.5 156l-62 29q-23 -53 -57.5 -72.5t-69.5 -19.5q-25 0 -48 6t-42 10q-88 29 -150.5 54.5t-109.5 25.5q-78 0 -136 -56t-87 -140z" />
<glyph unicode="&#x22d;" horiz-adv-x="1265" d="M153 1556h641v82h-641v-82zM102 510q0 106 38 203.5t106.5 171t168 118t222.5 44.5q121 0 218 -44.5t166 -118t105.5 -171t36.5 -203.5t-36.5 -203.5t-105.5 -171.5t-166 -117t-218 -43q-123 0 -222.5 44t-168 118t-106.5 171.5t-38 201.5zM252 1237l55 -31 q23 39 58.5 64.5t70.5 25.5q27 0 52.5 -8t48.5 -18q74 -29 135 -51.5t114 -22.5q72 0 132.5 48t95.5 157l-62 29q-23 -53 -57.5 -73t-69.5 -20q-25 0 -48 6.5t-42 10.5q-88 29 -150.5 54.5t-109.5 25.5q-78 0 -136 -56.5t-87 -140.5zM297 510q0 -141 31.5 -230.5t82 -138.5 t110 -66.5t114.5 -17.5t114.5 17.5t108.5 66.5t80 138.5t31 230.5q0 143 -31 232t-80 138.5t-108.5 67t-114.5 17.5t-114.5 -17.5t-110 -67t-82 -138.5t-31.5 -232z" />
<glyph unicode="&#x22e;" horiz-adv-x="1771" d="M762 1692q0 -45 33 -78t78 -33t77.5 33t32.5 78t-32.5 77.5t-77.5 32.5t-78 -32.5t-33 -77.5zM102 717q0 -115 44 -245t138.5 -240.5t240 -183.5t347.5 -73q137 0 249 34t201 91.5t154.5 132t107.5 157.5t63.5 167t21.5 160q0 115 -47 245t-145.5 240.5t-249 183 t-355.5 72.5q-203 0 -348 -71.5t-239.5 -181t-138.5 -240.5t-44 -248zM303 717q0 143 44 263t121 206t181.5 134t227.5 48q121 0 228 -48t188 -134t128 -206t47 -263t-47 -263t-128 -206t-188.5 -134t-227.5 -48q-123 0 -227.5 48t-181.5 134t-121 206t-44 263z" />
<glyph unicode="&#x22f;" horiz-adv-x="1265" d="M526 1280q0 -45 33 -78t78 -33t77.5 33t32.5 78t-32.5 77.5t-77.5 32.5t-78 -32.5t-33 -77.5zM102 510q0 106 38 203.5t106.5 171t168 118t222.5 44.5q121 0 218 -44.5t166 -118t105.5 -171t36.5 -203.5t-36.5 -203.5t-105.5 -171.5t-166 -117t-218 -43q-123 0 -222.5 44 t-168 118t-106.5 171.5t-38 201.5zM297 510q0 -141 31.5 -230.5t82 -138.5t110 -66.5t114.5 -17.5t114.5 17.5t108.5 66.5t80 138.5t31 230.5q0 143 -31 232t-80 138.5t-108.5 67t-114.5 17.5t-114.5 -17.5t-110 -67t-82 -138.5t-31.5 -232z" />
<glyph unicode="&#x230;" horiz-adv-x="1771" d="M551 1925h641v82h-641v-82zM762 1692q0 -45 33 -78t78 -33t77.5 33t32.5 78t-32.5 77.5t-77.5 32.5t-78 -32.5t-33 -77.5zM102 717q0 -115 44 -245t138.5 -240.5t240 -183.5t347.5 -73q137 0 249 34t201 91.5t154.5 132t107.5 157.5t63.5 167t21.5 160q0 115 -47 245 t-145.5 240.5t-249 183t-355.5 72.5q-203 0 -348 -71.5t-239.5 -181t-138.5 -240.5t-44 -248zM303 717q0 143 44 263t121 206t181.5 134t227.5 48q121 0 228 -48t188 -134t128 -206t47 -263t-47 -263t-128 -206t-188.5 -134t-227.5 -48q-123 0 -227.5 48t-181.5 134 t-121 206t-44 263z" />
<glyph unicode="&#x2c6;" horiz-adv-x="714" d="M0 1161l49 -61l24 13q24 13 57.5 34.5t73.5 45.5t73.5 45.5t56.5 34.5l22 13l23 -13q23 -13 56.5 -33.5t73.5 -45.5t74 -46l56 -36l23 -14l51 63l-23 23q-23 23 -56.5 55.5t-73.5 71.5t-73.5 71.5t-56.5 54.5l-22 21h-103l-22 -22q-23 -23 -56.5 -55.5t-73.5 -71.5 t-74 -72t-56.5 -55.5t-22.5 -20.5z" />
<glyph unicode="&#x2c7;" horiz-adv-x="714" d="M0 1397l49 61l24 -13q24 -13 57.5 -34.5t73.5 -45.5t73.5 -45.5t56.5 -34.5l22 -13q0 -2 22.5 12t56.5 34.5t74 45.5t74 46l56 36l23 14l51 -63l-23 -23q-23 -23 -56.5 -55.5t-73.5 -71.5t-73.5 -71.5t-56.5 -54.5l-22 -21h-103l-22 22q-23 23 -56.5 55.5t-73.5 71.5 t-74 72t-56 54z" />
<glyph unicode="&#x2d8;" horiz-adv-x="602" d="M0 1458q0 -57 22.5 -108.5t63.5 -89t95.5 -59t119.5 -21.5q63 0 118.5 21.5t96.5 59t63.5 89t22.5 108.5h-86q-4 -92 -66.5 -148.5t-148.5 -56.5q-84 0 -146.5 56.5t-68.5 148.5h-86z" />
<glyph unicode="&#x2d9;" horiz-adv-x="221" d="M0 1348q0 -45 33 -78t78 -33t77.5 33t32.5 78t-32.5 77.5t-77.5 32.5t-78 -32.5t-33 -77.5z" />
<glyph unicode="&#x2da;" horiz-adv-x="376" d="M0 1288q0 -39 14.5 -72.5t40 -59.5t60.5 -41t73 -15q39 0 74 15t60.5 41t40 59.5t14.5 72.5q0 31 -11.5 64.5t-35 60.5t-59 44.5t-83.5 17.5q-47 0 -81.5 -17.5t-58 -44.5t-36 -60.5t-12.5 -64.5zM68 1288q0 51 34.5 85t85.5 34q49 0 85 -34t36 -85t-35.5 -86t-85.5 -35 q-51 0 -85.5 35t-34.5 86z" />
<glyph unicode="&#x2db;" horiz-adv-x="339" d="M0 -266q0 -70 48 -96.5t104 -26.5q47 0 93 16.5t79 40.5l-23 56q-20 -10 -51 -22.5t-60 -12.5q-43 0 -54 26.5t-11 38.5q0 35 18.5 68t49 64.5t69.5 60t78 53.5h-98l-95 -68q-55 -41 -101 -90t-46 -108z" />
<glyph unicode="&#x2dc;" horiz-adv-x="761" d="M0 1237l55 -31q23 39 59 64.5t70 25.5q27 0 52.5 -8t48.5 -18q74 -29 135 -51.5t115 -22.5q72 0 132 48t95 157l-62 29q-23 -53 -57.5 -73t-69.5 -20q-25 0 -48 6.5t-42 10.5q-88 29 -150.5 54.5t-109.5 25.5q-78 0 -136 -56.5t-87 -140.5z" />
<glyph unicode="&#x402;" horiz-adv-x="1689" d="M41 1321h537v-1321h186v735q33 6 74 12.5t83 11.5t82.5 8t73.5 3q43 0 103.5 -8t115 -30.5t93 -66.5t38.5 -114v-209q0 -78 -18 -130t-49 -86t-69 -48.5t-77 -14.5q-47 0 -82.5 14.5t-62.5 36t-44 46t-26 47.5l-129 -103q76 -76 156 -102.5t178 -26.5q139 0 219 46.5 t121 113t52.5 140t11.5 131.5v155q0 41 -16.5 93.5t-63.5 97.5t-135 75.5t-230 30.5q-41 0 -93 -3t-107.5 -7t-107.5 -10.5t-91 -12.5v496h547v113h-1270v-113z" />
<glyph unicode="&#x2000;" horiz-adv-x="1175" />
<glyph unicode="&#x2001;" horiz-adv-x="2351" />
<glyph unicode="&#x2002;" horiz-adv-x="1175" />
<glyph unicode="&#x2003;" horiz-adv-x="2351" />
<glyph unicode="&#x2004;" horiz-adv-x="782" />
<glyph unicode="&#x2005;" horiz-adv-x="587" />
<glyph unicode="&#x2006;" horiz-adv-x="391" />
<glyph unicode="&#x2007;" horiz-adv-x="391" />
<glyph unicode="&#x2008;" horiz-adv-x="292" />
<glyph unicode="&#x2009;" horiz-adv-x="468" />
<glyph unicode="&#x200a;" horiz-adv-x="129" />
<glyph unicode="&#x2010;" horiz-adv-x="751" d="M123 471v154h506v-154h-506z" />
<glyph unicode="&#x2011;" horiz-adv-x="751" d="M123 471v154h506v-154h-506z" />
<glyph unicode="&#x2012;" horiz-adv-x="751" d="M123 471v154h506v-154h-506z" />
<glyph unicode="&#x2013;" horiz-adv-x="1900" d="M246 471h1409v129h-1409v-129z" />
<glyph unicode="&#x2014;" horiz-adv-x="2269" d="M82 471h2105v129h-2105v-129z" />
<glyph unicode="&#x2018;" horiz-adv-x="399" d="M102 942h195v528h-72z" />
<glyph unicode="&#x2019;" horiz-adv-x="399" d="M102 942h74l121 528h-195v-528z" />
<glyph unicode="&#x201a;" horiz-adv-x="356" d="M82 252v-528h70l122 528h-192z" />
<glyph unicode="&#x201c;" horiz-adv-x="817" d="M102 905h195v529h-72zM520 905h195v529h-74z" />
<glyph unicode="&#x201d;" horiz-adv-x="817" d="M102 905h74l121 529h-195v-529zM520 905h72l123 529h-195v-529z" />
<glyph unicode="&#x201e;" horiz-adv-x="776" d="M82 250v-529h74l120 529h-194zM500 250v-529h71l123 529h-194z" />
<glyph unicode="&#x2026;" horiz-adv-x="1169" d="M82 88q0 -45 32.5 -78t78.5 -33q45 0 77.5 33t32.5 78t-32.5 78t-77.5 33t-78 -33t-33 -78zM475 88q0 -45 33 -78t78 -33t77.5 33t32.5 78t-32.5 78t-77.5 33t-78 -33t-33 -78zM866 88q0 -45 33 -78t78 -33t77.5 33t32.5 78t-32.5 78t-77.5 33t-78 -33t-33 -78z" />
<glyph unicode="&#x202f;" horiz-adv-x="468" />
<glyph unicode="&#x2039;" horiz-adv-x="712" d="M164 530l246 -405h139l-240 405l240 406h-139z" />
<glyph unicode="&#x203a;" horiz-adv-x="712" d="M164 125l239 405l-239 406h139l246 -406l-246 -405h-139z" />
<glyph unicode="&#x205f;" horiz-adv-x="587" />
<glyph unicode="&#x20ac;" horiz-adv-x="1222" d="M2 573h143q8 -117 47 -224t108 -190t163 -133.5t213 -50.5q139 0 242.5 55.5t187.5 180.5l-68 51q-12 -18 -36.5 -51t-66.5 -65.5t-100.5 -57.5t-138.5 -25q-98 0 -165.5 44.5t-109.5 117t-61.5 163.5t-19.5 185h410l47 91h-459v114h520l47 90h-567q4 86 20.5 174 t54.5 161t104.5 118t170.5 45q41 0 93.5 -10t99.5 -41t80.5 -86t39.5 -144h113q-20 102 -74 185q-23 35 -56.5 68.5t-78.5 59t-104.5 42t-134.5 16.5q-119 0 -211.5 -50t-157 -133t-103 -188.5t-51.5 -216.5h-92l-49 -90h135q-2 -12 -2 -24v-25v-33q0 -16 2 -32h-86z" />
<glyph unicode="&#x2122;" horiz-adv-x="1839" d="M123 1352h256v-647h131v647h254v82h-641v-82zM825 705h82v598l307 -598h76l309 593v-593h138v729h-152l-301 -574l-299 574h-160v-729z" />
<glyph unicode="&#xe000;" horiz-adv-x="1025" d="M0 1025h1025v-1025h-1025v1025z" />
</font>
</defs>
</svg>
